<ttFont>
<head>
    <!-- Most of this table will be recalculated by the compiler -->
    <tableVersion value="1.0"/>
    <fontRevision value="2.202"/>
    <checkSumAdjustment value="0x4149cf9c"/>
    <magicNumber value="0x5f0f3cf5"/>
    <flags value="00000000 00011011"/>
    <unitsPerEm value="1000"/>
    <created value="Sat Jan 23 04:31:01 2016"/>
    <modified value="Thu Mar 10 20:56:41 2016"/>
    <xMin value="-85"/>
    <yMin value="-256"/>
    <xMax value="950"/>
    <yMax value="1041"/>
    <macStyle value="00000000 00000000"/>
    <lowestRecPPEM value="5"/>
    <fontDirectionHint value="2"/>
    <indexToLocFormat value="0"/>
    <glyphDataFormat value="0"/>
  </head>
    <TTGlyph name=".notdef" xMin="0" yMin="-200" xMax="500" yMax="800">
      <contour>
        <pt x="0" y="800" on="1"/>
        <pt x="500" y="800" on="1"/>
        <pt x="500" y="-200" on="1"/>
        <pt x="0" y="-200" on="1"/>
      </contour>
      <contour>
        <pt x="250" y="360" on="1"/>
        <pt x="429" y="750" on="1"/>
        <pt x="71" y="750" on="1"/>
      </contour>
      <contour>
        <pt x="222" y="300" on="1"/>
        <pt x="50" y="676" on="1"/>
        <pt x="50" y="-76" on="1"/>
      </contour>
      <contour>
        <pt x="278" y="300" on="1"/>
        <pt x="450" y="-76" on="1"/>
        <pt x="450" y="676" on="1"/>
      </contour>
      <contour>
        <pt x="71" y="-150" on="1"/>
        <pt x="429" y="-150" on="1"/>
        <pt x="250" y="240" on="1"/>
      </contour>
    </TTGlyph>
    <TTGlyph name="A" xMin="38" yMin="-7" xMax="594" yMax="728">
      <contour>
        <pt x="278" y="728" on="1"/>
        <pt x="357" y="728" on="1"/>
        <pt x="594" y="10" on="1"/>
        <pt x="521" y="-7" on="1"/>
        <pt x="445" y="231" on="1"/>
        <pt x="189" y="231" on="1"/>
        <pt x="115" y="0" on="1"/>
        <pt x="38" y="0" on="1"/>
      </contour>
      <contour>
        <pt x="210" y="298" on="1"/>
        <pt x="424" y="298" on="1"/>
        <pt x="316" y="636" on="1"/>
      </contour>
    </TTGlyph>
    <TTGlyph name="A.flat" xMin="38" yMin="0" xMax="598" yMax="728">
      <contour>
        <pt x="278" y="728" on="1"/>
        <pt x="357" y="728" on="1"/>
        <pt x="598" y="0" on="1"/>
        <pt x="518" y="0" on="1"/>
        <pt x="445" y="231" on="1"/>
        <pt x="189" y="231" on="1"/>
        <pt x="115" y="0" on="1"/>
        <pt x="38" y="0" on="1"/>
      </contour>
      <contour>
        <pt x="210" y="298" on="1"/>
        <pt x="424" y="298" on="1"/>
        <pt x="316" y="636" on="1"/>
      </contour>
    </TTGlyph>
    <TTGlyph name="AE" xMin="18" yMin="0" xMax="784" yMax="725">
      <contour>
        <pt x="388" y="725" on="1"/>
        <pt x="774" y="725" on="1"/>
        <pt x="774" y="656" on="1"/>
        <pt x="506" y="656" on="1"/>
        <pt x="506" y="414" on="1"/>
        <pt x="716" y="414" on="1"/>
        <pt x="727" y="345" on="1"/>
        <pt x="506" y="345" on="1"/>
        <pt x="506" y="69" on="1"/>
        <pt x="784" y="69" on="1"/>
        <pt x="784" y="0" on="1"/>
        <pt x="432" y="0" on="1"/>
        <pt x="432" y="232" on="1"/>
        <pt x="215" y="232" on="1"/>
        <pt x="98" y="0" on="1"/>
        <pt x="18" y="0" on="1"/>
      </contour>
      <contour>
        <pt x="432" y="298" on="1"/>
        <pt x="432" y="663" on="1"/>
        <pt x="248" y="298" on="1"/>
      </contour>
    </TTGlyph>
    <TTGlyph name="AE.flat" xMin="18" yMin="0" xMax="784" yMax="725">
      <contour>
        <pt x="388" y="725" on="1"/>
        <pt x="774" y="725" on="1"/>
        <pt x="774" y="656" on="1"/>
        <pt x="506" y="656" on="1"/>
        <pt x="506" y="414" on="1"/>
        <pt x="722" y="414" on="1"/>
        <pt x="722" y="345" on="1"/>
        <pt x="506" y="345" on="1"/>
        <pt x="506" y="69" on="1"/>
        <pt x="784" y="69" on="1"/>
        <pt x="784" y="0" on="1"/>
        <pt x="432" y="0" on="1"/>
        <pt x="432" y="232" on="1"/>
        <pt x="215" y="232" on="1"/>
        <pt x="98" y="0" on="1"/>
        <pt x="18" y="0" on="1"/>
      </contour>
      <contour>
        <pt x="432" y="298" on="1"/>
        <pt x="432" y="663" on="1"/>
        <pt x="248" y="298" on="1"/>
      </contour>
    </TTGlyph>
    <TTGlyph name="AEacute" xMin="18" yMin="0" xMax="784" yMax="931">
      <component glyphName="acute.cap" x="322" y="214" flags="0x4"/>
      <component glyphName="AE" x="0" y="0" flags="0x4"/>
    </TTGlyph>
    <TTGlyph name="AEacute.flat" xMin="18" yMin="0" xMax="784" yMax="931">
      <component glyphName="acute.cap" x="322" y="214" flags="0x4"/>
      <component glyphName="AE.flat" x="0" y="0" flags="0x4"/>
    </TTGlyph>
    <TTGlyph name="Aacute" xMin="38" yMin="-7" xMax="594" yMax="940">
      <component glyphName="A" x="0" y="0" flags="0x204"/>
      <component glyphName="acute.cap" x="149" y="223" flags="0x4"/>
    </TTGlyph>
    <TTGlyph name="Aacute.flat" xMin="38" yMin="0" xMax="598" yMax="940">
      <component glyphName="acute.cap" x="150" y="223" flags="0x4"/>
      <component glyphName="A.flat" x="0" y="0" flags="0x4"/>
    </TTGlyph>
    <TTGlyph name="Abreve" xMin="38" yMin="-7" xMax="594" yMax="917">
      <component glyphName="A" x="0" y="0" flags="0x204"/>
      <component glyphName="breve.cap" x="95" y="223" flags="0x4"/>
    </TTGlyph>
    <TTGlyph name="Abreve.flat" xMin="38" yMin="0" xMax="598" yMax="917">
      <component glyphName="breve.cap" x="96" y="223" flags="0x4"/>
      <component glyphName="A.flat" x="0" y="0" flags="0x4"/>
    </TTGlyph>
    <TTGlyph name="Acircumflex" xMin="38" yMin="-7" xMax="594" yMax="930">
      <component glyphName="A" x="0" y="0" flags="0x4"/>
      <component glyphName="circumflex.cap" x="97" y="217" flags="0x4"/>
    </TTGlyph>
    <TTGlyph name="Acircumflex.flat" xMin="38" yMin="0" xMax="598" yMax="930">
      <component glyphName="A.flat" x="0" y="0" flags="0x4"/>
      <component glyphName="circumflex.cap" x="97" y="217" flags="0x4"/>
    </TTGlyph>
    <TTGlyph name="Adieresis" xMin="38" yMin="-7" xMax="594" yMax="890">
      <component glyphName="A" x="0" y="0" flags="0x204"/>
      <component glyphName="dieresis.cap" x="95" y="223" flags="0x4"/>
    </TTGlyph>
    <TTGlyph name="Adieresis.flat" xMin="38" yMin="0" xMax="598" yMax="890">
      <component glyphName="dieresis.cap" x="96" y="223" flags="0x4"/>
      <component glyphName="A.flat" x="0" y="0" flags="0x4"/>
    </TTGlyph>
    <TTGlyph name="Agrave" xMin="38" yMin="-7" xMax="594" yMax="940">
      <component glyphName="A" x="0" y="0" flags="0x204"/>
      <component glyphName="grave.cap" x="40" y="223" flags="0x4"/>
    </TTGlyph>
    <TTGlyph name="Agrave.flat" xMin="38" yMin="0" xMax="598" yMax="940">
      <component glyphName="grave.cap" x="40" y="223" flags="0x4"/>
      <component glyphName="A.flat" x="0" y="0" flags="0x4"/>
    </TTGlyph>
    <TTGlyph name="Amacron" xMin="38" yMin="-7" xMax="594" yMax="877">
      <component glyphName="A" x="0" y="0" flags="0x204"/>
      <component glyphName="macron.cap" x="95" y="223" flags="0x4"/>
    </TTGlyph>
    <TTGlyph name="Amacron.flat" xMin="38" yMin="0" xMax="598" yMax="877">
      <component glyphName="macron.cap" x="96" y="223" flags="0x4"/>
      <component glyphName="A.flat" x="0" y="0" flags="0x4"/>
    </TTGlyph>
    <TTGlyph name="Aogonek" xMin="38" yMin="-181" xMax="602" yMax="728">
      <contour>
        <pt x="278" y="728" on="1"/>
        <pt x="357" y="728" on="1"/>
        <pt x="594" y="10" on="1"/>
        <pt x="575" y="6" on="1"/>
        <pt x="553" y="-26" on="1"/>
        <pt x="537" y="-49" on="0"/>
        <pt x="521" y="-80" on="0"/>
        <pt x="521" y="-97" on="1"/>
        <pt x="521" y="-129" on="0"/>
        <pt x="560" y="-129" on="1"/>
        <pt x="570" y="-129" on="0"/>
        <pt x="590" y="-125" on="0"/>
        <pt x="601" y="-123" on="1"/>
        <pt x="602" y="-168" on="1"/>
        <pt x="571" y="-181" on="0"/>
        <pt x="537" y="-181" on="1"/>
        <pt x="500" y="-181" on="0"/>
        <pt x="460" y="-146" on="0"/>
        <pt x="460" y="-113" on="1"/>
        <pt x="460" y="-87" on="0"/>
        <pt x="488" y="-36" on="0"/>
        <pt x="518" y="2" on="1"/>
        <pt x="445" y="231" on="1"/>
        <pt x="189" y="231" on="1"/>
        <pt x="115" y="0" on="1"/>
        <pt x="38" y="0" on="1"/>
      </contour>
      <contour>
        <pt x="210" y="298" on="1"/>
        <pt x="424" y="298" on="1"/>
        <pt x="316" y="636" on="1"/>
      </contour>
    </TTGlyph>
    <TTGlyph name="Aogonek.flat" xMin="38" yMin="-181" xMax="604" yMax="728">
      <contour>
        <pt x="604" y="-168" on="1"/>
        <pt x="573" y="-181" on="0"/>
        <pt x="539" y="-181" on="1"/>
        <pt x="502" y="-181" on="0"/>
        <pt x="462" y="-146" on="0"/>
        <pt x="462" y="-113" on="1"/>
        <pt x="462" y="-87" on="0"/>
        <pt x="493" y="-31" on="0"/>
        <pt x="518" y="0" on="1"/>
        <pt x="445" y="231" on="1"/>
        <pt x="189" y="231" on="1"/>
        <pt x="115" y="0" on="1"/>
        <pt x="38" y="0" on="1"/>
        <pt x="278" y="728" on="1"/>
        <pt x="357" y="728" on="1"/>
        <pt x="598" y="0" on="1"/>
        <pt x="573" y="0" on="1"/>
        <pt x="555" y="-26" on="1"/>
        <pt x="539" y="-49" on="0"/>
        <pt x="523" y="-80" on="0"/>
        <pt x="523" y="-97" on="1"/>
        <pt x="523" y="-129" on="0"/>
        <pt x="562" y="-129" on="1"/>
        <pt x="572" y="-129" on="0"/>
        <pt x="592" y="-125" on="0"/>
        <pt x="603" y="-123" on="1"/>
      </contour>
      <contour>
        <pt x="210" y="298" on="1"/>
        <pt x="424" y="298" on="1"/>
        <pt x="316" y="636" on="1"/>
      </contour>
    </TTGlyph>
    <TTGlyph name="Aring" xMin="38" yMin="-7" xMax="597" yMax="864">
      <contour>
        <pt x="416" y="766" on="1"/>
        <pt x="416" y="739" on="0"/>
        <pt x="393" y="696" on="0"/>
        <pt x="373" y="683" on="1"/>
        <pt x="597" y="10" on="1"/>
        <pt x="524" y="-7" on="1"/>
        <pt x="447" y="231" on="1"/>
        <pt x="189" y="231" on="1"/>
        <pt x="114" y="0" on="1"/>
        <pt x="38" y="0" on="1"/>
        <pt x="264" y="683" on="1"/>
        <pt x="243" y="695" on="0"/>
        <pt x="219" y="738" on="0"/>
        <pt x="219" y="766" on="1"/>
        <pt x="219" y="808" on="0"/>
        <pt x="275" y="864" on="0"/>
        <pt x="318" y="864" on="1"/>
        <pt x="360" y="864" on="0"/>
        <pt x="416" y="808" on="0"/>
      </contour>
      <contour>
        <pt x="210" y="298" on="1"/>
        <pt x="426" y="298" on="1"/>
        <pt x="317" y="635" on="1"/>
      </contour>
      <contour>
        <pt x="373" y="766" on="1"/>
        <pt x="373" y="792" on="0"/>
        <pt x="342" y="825" on="0"/>
        <pt x="318" y="825" on="1"/>
        <pt x="293" y="825" on="0"/>
        <pt x="262" y="792" on="0"/>
        <pt x="262" y="766" on="1"/>
        <pt x="262" y="740" on="0"/>
        <pt x="293" y="707" on="0"/>
        <pt x="318" y="707" on="1"/>
        <pt x="342" y="707" on="0"/>
        <pt x="373" y="740" on="0"/>
      </contour>
    </TTGlyph>
    <TTGlyph name="Aring.flat" xMin="38" yMin="0" xMax="600" yMax="864">
      <contour>
        <pt x="416" y="766" on="1"/>
        <pt x="416" y="739" on="0"/>
        <pt x="393" y="696" on="0"/>
        <pt x="373" y="683" on="1"/>
        <pt x="600" y="0" on="1"/>
        <pt x="521" y="0" on="1"/>
        <pt x="447" y="231" on="1"/>
        <pt x="189" y="231" on="1"/>
        <pt x="114" y="0" on="1"/>
        <pt x="38" y="0" on="1"/>
        <pt x="264" y="683" on="1"/>
        <pt x="243" y="695" on="0"/>
        <pt x="219" y="738" on="0"/>
        <pt x="219" y="766" on="1"/>
        <pt x="219" y="808" on="0"/>
        <pt x="275" y="864" on="0"/>
        <pt x="318" y="864" on="1"/>
        <pt x="360" y="864" on="0"/>
        <pt x="416" y="808" on="0"/>
      </contour>
      <contour>
        <pt x="210" y="298" on="1"/>
        <pt x="426" y="298" on="1"/>
        <pt x="317" y="635" on="1"/>
      </contour>
      <contour>
        <pt x="373" y="766" on="1"/>
        <pt x="373" y="792" on="0"/>
        <pt x="342" y="825" on="0"/>
        <pt x="318" y="825" on="1"/>
        <pt x="293" y="825" on="0"/>
        <pt x="262" y="792" on="0"/>
        <pt x="262" y="766" on="1"/>
        <pt x="262" y="740" on="0"/>
        <pt x="293" y="707" on="0"/>
        <pt x="318" y="707" on="1"/>
        <pt x="342" y="707" on="0"/>
        <pt x="373" y="740" on="0"/>
      </contour>
    </TTGlyph>
    <TTGlyph name="Aringacute" xMin="38" yMin="-7" xMax="597" yMax="1041">
      <contour>
        <pt x="416" y="766" on="1"/>
        <pt x="416" y="739" on="0"/>
        <pt x="393" y="696" on="0"/>
        <pt x="373" y="683" on="1"/>
        <pt x="597" y="10" on="1"/>
        <pt x="524" y="-7" on="1"/>
        <pt x="447" y="231" on="1"/>
        <pt x="189" y="231" on="1"/>
        <pt x="114" y="0" on="1"/>
        <pt x="38" y="0" on="1"/>
        <pt x="264" y="683" on="1"/>
        <pt x="243" y="695" on="0"/>
        <pt x="219" y="738" on="0"/>
        <pt x="219" y="766" on="1"/>
        <pt x="219" y="808" on="0"/>
        <pt x="275" y="864" on="0"/>
        <pt x="318" y="864" on="1"/>
        <pt x="360" y="864" on="0"/>
        <pt x="416" y="808" on="0"/>
      </contour>
      <contour>
        <pt x="210" y="298" on="1"/>
        <pt x="426" y="298" on="1"/>
        <pt x="317" y="635" on="1"/>
      </contour>
      <contour>
        <pt x="373" y="766" on="1"/>
        <pt x="373" y="792" on="0"/>
        <pt x="342" y="825" on="0"/>
        <pt x="318" y="825" on="1"/>
        <pt x="293" y="825" on="0"/>
        <pt x="262" y="792" on="0"/>
        <pt x="262" y="766" on="1"/>
        <pt x="262" y="740" on="0"/>
        <pt x="293" y="707" on="0"/>
        <pt x="318" y="707" on="1"/>
        <pt x="342" y="707" on="0"/>
        <pt x="373" y="740" on="0"/>
      </contour>
      <contour>
        <pt x="339" y="891" on="1"/>
        <pt x="288" y="891" on="1"/>
        <pt x="373" y="1041" on="1"/>
        <pt x="460" y="1021" on="1"/>
      </contour>
    </TTGlyph>
    <TTGlyph name="Aringacute.flat" xMin="38" yMin="0" xMax="600" yMax="1041">
      <contour>
        <pt x="416" y="766" on="1"/>
        <pt x="416" y="739" on="0"/>
        <pt x="393" y="696" on="0"/>
        <pt x="373" y="683" on="1"/>
        <pt x="600" y="0" on="1"/>
        <pt x="521" y="0" on="1"/>
        <pt x="447" y="231" on="1"/>
        <pt x="189" y="231" on="1"/>
        <pt x="114" y="0" on="1"/>
        <pt x="38" y="0" on="1"/>
        <pt x="264" y="683" on="1"/>
        <pt x="243" y="695" on="0"/>
        <pt x="219" y="738" on="0"/>
        <pt x="219" y="766" on="1"/>
        <pt x="219" y="808" on="0"/>
        <pt x="275" y="864" on="0"/>
        <pt x="318" y="864" on="1"/>
        <pt x="360" y="864" on="0"/>
        <pt x="416" y="808" on="0"/>
      </contour>
      <contour>
        <pt x="210" y="298" on="1"/>
        <pt x="426" y="298" on="1"/>
        <pt x="317" y="635" on="1"/>
      </contour>
      <contour>
        <pt x="373" y="766" on="1"/>
        <pt x="373" y="792" on="0"/>
        <pt x="342" y="825" on="0"/>
        <pt x="318" y="825" on="1"/>
        <pt x="293" y="825" on="0"/>
        <pt x="262" y="792" on="0"/>
        <pt x="262" y="766" on="1"/>
        <pt x="262" y="740" on="0"/>
        <pt x="293" y="707" on="0"/>
        <pt x="318" y="707" on="1"/>
        <pt x="342" y="707" on="0"/>
        <pt x="373" y="740" on="0"/>
      </contour>
      <contour>
        <pt x="339" y="891" on="1"/>
        <pt x="288" y="891" on="1"/>
        <pt x="373" y="1041" on="1"/>
        <pt x="460" y="1021" on="1"/>
      </contour>
    </TTGlyph>
    <TTGlyph name="Atilde" xMin="38" yMin="-7" xMax="594" yMax="912">
      <component glyphName="A" x="0" y="0" flags="0x204"/>
      <component glyphName="tilde.cap" x="98" y="223" flags="0x4"/>
    </TTGlyph>
    <TTGlyph name="Atilde.flat" xMin="38" yMin="0" xMax="598" yMax="912">
      <component glyphName="tilde.cap" x="100" y="223" flags="0x4"/>
      <component glyphName="A.flat" x="0" y="0" flags="0x4"/>
    </TTGlyph>
    <TTGlyph name="B" xMin="86" yMin="0" xMax="488" yMax="725">
      <contour>
        <pt x="488" y="207" on="1"/>
        <pt x="488" y="156" on="0"/>
        <pt x="452" y="79" on="0"/>
        <pt x="387" y="27" on="0"/>
        <pt x="295" y="0" on="0"/>
        <pt x="239" y="0" on="1"/>
        <pt x="86" y="0" on="1"/>
        <pt x="86" y="725" on="1"/>
        <pt x="241" y="725" on="1"/>
        <pt x="295" y="725" on="0"/>
        <pt x="376" y="699" on="0"/>
        <pt x="432" y="651" on="0"/>
        <pt x="460" y="585" on="0"/>
        <pt x="460" y="545" on="1"/>
        <pt x="460" y="486" on="0"/>
        <pt x="399" y="406" on="0"/>
        <pt x="351" y="386" on="1"/>
        <pt x="414" y="367" on="0"/>
        <pt x="488" y="281" on="0"/>
      </contour>
      <contour>
        <pt x="385" y="540" on="1"/>
        <pt x="385" y="595" on="0"/>
        <pt x="314" y="659" on="0"/>
        <pt x="239" y="659" on="1"/>
        <pt x="161" y="659" on="1"/>
        <pt x="161" y="412" on="1"/>
        <pt x="235" y="412" on="1"/>
        <pt x="309" y="412" on="0"/>
        <pt x="385" y="485" on="0"/>
      </contour>
      <contour>
        <pt x="413" y="205" on="1"/>
        <pt x="413" y="277" on="0"/>
        <pt x="322" y="348" on="0"/>
        <pt x="239" y="348" on="1"/>
        <pt x="161" y="348" on="1"/>
        <pt x="161" y="66" on="1"/>
        <pt x="243" y="66" on="1"/>
        <pt x="324" y="66" on="0"/>
        <pt x="413" y="139" on="0"/>
      </contour>
    </TTGlyph>
    <TTGlyph name="C" xMin="57" yMin="-12" xMax="528" yMax="737">
      <contour>
        <pt x="528" y="52" on="1"/>
        <pt x="492" y="25" on="0"/>
        <pt x="397" y="-12" on="0"/>
        <pt x="342" y="-12" on="1"/>
        <pt x="276" y="-12" on="0"/>
        <pt x="170" y="41" on="0"/>
        <pt x="97" y="139" on="0"/>
        <pt x="57" y="277" on="0"/>
        <pt x="57" y="361" on="1"/>
        <pt x="57" y="445" on="0"/>
        <pt x="98" y="584" on="0"/>
        <pt x="174" y="683" on="0"/>
        <pt x="281" y="737" on="0"/>
        <pt x="347" y="737" on="1"/>
        <pt x="401" y="737" on="0"/>
        <pt x="483" y="708" on="0"/>
        <pt x="518" y="683" on="1"/>
        <pt x="506" y="605" on="1"/>
        <pt x="469" y="634" on="0"/>
        <pt x="394" y="668" on="0"/>
        <pt x="346" y="668" on="1"/>
        <pt x="296" y="668" on="0"/>
        <pt x="218" y="623" on="0"/>
        <pt x="164" y="543" on="0"/>
        <pt x="135" y="430" on="0"/>
        <pt x="135" y="363" on="1"/>
        <pt x="135" y="294" on="0"/>
        <pt x="163" y="182" on="0"/>
        <pt x="217" y="101" on="0"/>
        <pt x="295" y="57" on="0"/>
        <pt x="345" y="57" on="1"/>
        <pt x="394" y="57" on="0"/>
        <pt x="479" y="95" on="0"/>
        <pt x="518" y="126" on="1"/>
      </contour>
    </TTGlyph>
    <TTGlyph name="Cacute" xMin="57" yMin="-12" xMax="528" yMax="940">
      <component glyphName="C" x="0" y="0" flags="0x204"/>
      <component glyphName="acute.cap" x="170" y="223" flags="0x4"/>
    </TTGlyph>
    <TTGlyph name="Ccaron" xMin="57" yMin="-12" xMax="528" yMax="935">
      <component glyphName="C" x="0" y="0" flags="0x204"/>
      <component glyphName="caron.cap" x="116" y="223" flags="0x4"/>
    </TTGlyph>
    <TTGlyph name="Ccedilla" xMin="57" yMin="-199" xMax="528" yMax="737">
      <component glyphName="C" x="0" y="0" flags="0x204"/>
      <component glyphName="cedilla.cap" x="97" y="-2" flags="0x4"/>
    </TTGlyph>
    <TTGlyph name="Cdotaccent" xMin="57" yMin="-12" xMax="528" yMax="890">
      <component glyphName="dotaccent.cap" x="116" y="223" flags="0x4"/>
      <component glyphName="C" x="0" y="0" flags="0x4"/>
    </TTGlyph>
    <TTGlyph name="D" xMin="86" yMin="0" xMax="581" yMax="725">
      <contour>
        <pt x="581" y="364" on="1"/>
        <pt x="581" y="281" on="0"/>
        <pt x="535" y="146" on="0"/>
        <pt x="448" y="51" on="0"/>
        <pt x="320" y="0" on="0"/>
        <pt x="238" y="0" on="1"/>
        <pt x="86" y="0" on="1"/>
        <pt x="86" y="725" on="1"/>
        <pt x="242" y="725" on="1"/>
        <pt x="325" y="725" on="0"/>
        <pt x="452" y="673" on="0"/>
        <pt x="537" y="578" on="0"/>
        <pt x="581" y="445" on="0"/>
      </contour>
      <contour>
        <pt x="503" y="362" on="1"/>
        <pt x="503" y="434" on="0"/>
        <pt x="467" y="544" on="0"/>
        <pt x="400" y="619" on="0"/>
        <pt x="305" y="657" on="0"/>
        <pt x="246" y="657" on="1"/>
        <pt x="162" y="657" on="1"/>
        <pt x="162" y="69" on="1"/>
        <pt x="245" y="69" on="1"/>
        <pt x="364" y="69" on="0"/>
        <pt x="503" y="216" on="0"/>
      </contour>
    </TTGlyph>
    <TTGlyph name="Dcaron" xMin="86" yMin="0" xMax="581" yMax="926">
      <component glyphName="caron.cap" x="81" y="214" flags="0x4"/>
      <component glyphName="D" x="0" y="0" flags="0x4"/>
    </TTGlyph>
    <TTGlyph name="Dcroat" xMin="19" yMin="0" xMax="589" yMax="725">
      <component glyphName="Eth" x="0" y="0" flags="0x204"/>
    </TTGlyph>
    <TTGlyph name="Dcroat.flat" xMin="24" yMin="0" xMax="589" yMax="725">
      <component glyphName="Eth.flat" x="0" y="0" flags="0x204"/>
    </TTGlyph>
    <TTGlyph name="E" xMin="86" yMin="0" xMax="443" yMax="725">
      <contour>
        <pt x="86" y="0" on="1"/>
        <pt x="86" y="725" on="1"/>
        <pt x="432" y="725" on="1"/>
        <pt x="432" y="656" on="1"/>
        <pt x="162" y="656" on="1"/>
        <pt x="162" y="414" on="1"/>
        <pt x="374" y="414" on="1"/>
        <pt x="386" y="345" on="1"/>
        <pt x="162" y="345" on="1"/>
        <pt x="162" y="69" on="1"/>
        <pt x="443" y="69" on="1"/>
        <pt x="443" y="0" on="1"/>
      </contour>
    </TTGlyph>
    <TTGlyph name="E.flat" xMin="86" yMin="0" xMax="443" yMax="725">
      <contour>
        <pt x="86" y="0" on="1"/>
        <pt x="86" y="725" on="1"/>
        <pt x="432" y="725" on="1"/>
        <pt x="432" y="656" on="1"/>
        <pt x="162" y="656" on="1"/>
        <pt x="162" y="414" on="1"/>
        <pt x="380" y="414" on="1"/>
        <pt x="380" y="345" on="1"/>
        <pt x="162" y="345" on="1"/>
        <pt x="162" y="69" on="1"/>
        <pt x="443" y="69" on="1"/>
        <pt x="443" y="0" on="1"/>
      </contour>
    </TTGlyph>
    <TTGlyph name="Eacute" xMin="86" yMin="0" xMax="443" yMax="931">
      <component glyphName="acute.cap" x="95" y="214" flags="0x4"/>
      <component glyphName="E" x="0" y="0" flags="0x4"/>
    </TTGlyph>
    <TTGlyph name="Eacute.flat" xMin="86" yMin="0" xMax="443" yMax="931">
      <component glyphName="E.flat" x="0" y="0" flags="0x4"/>
      <component glyphName="acute.cap" x="95" y="214" flags="0x4"/>
    </TTGlyph>
    <TTGlyph name="Ebreve" xMin="86" yMin="0" xMax="443" yMax="908">
      <component glyphName="breve.cap" x="41" y="214" flags="0x4"/>
      <component glyphName="E" x="0" y="0" flags="0x4"/>
    </TTGlyph>
    <TTGlyph name="Ebreve.flat" xMin="86" yMin="0" xMax="443" yMax="908">
      <component glyphName="breve.cap" x="41" y="214" flags="0x4"/>
      <component glyphName="E.flat" x="0" y="0" flags="0x4"/>
    </TTGlyph>
    <TTGlyph name="Ecaron" xMin="86" yMin="0" xMax="443" yMax="926">
      <component glyphName="caron.cap" x="40" y="214" flags="0x4"/>
      <component glyphName="E" x="0" y="0" flags="0x4"/>
    </TTGlyph>
    <TTGlyph name="Ecaron.flat" xMin="86" yMin="0" xMax="443" yMax="926">
      <component glyphName="E.flat" x="0" y="0" flags="0x4"/>
      <component glyphName="caron.cap" x="40" y="214" flags="0x4"/>
    </TTGlyph>
    <TTGlyph name="Ecircumflex" xMin="86" yMin="0" xMax="443" yMax="927">
      <component glyphName="E" x="0" y="0" flags="0x4"/>
      <component glyphName="circumflex.cap" x="41" y="214" flags="0x4"/>
    </TTGlyph>
    <TTGlyph name="Ecircumflex.flat" xMin="86" yMin="0" xMax="443" yMax="927">
      <component glyphName="E.flat" x="0" y="0" flags="0x4"/>
      <component glyphName="circumflex.cap" x="41" y="214" flags="0x4"/>
    </TTGlyph>
    <TTGlyph name="Edieresis" xMin="86" yMin="0" xMax="443" yMax="881">
      <component glyphName="dieresis.cap" x="40" y="214" flags="0x4"/>
      <component glyphName="E" x="0" y="0" flags="0x4"/>
    </TTGlyph>
    <TTGlyph name="Edieresis.flat" xMin="86" yMin="0" xMax="443" yMax="881">
      <component glyphName="E.flat" x="0" y="0" flags="0x4"/>
      <component glyphName="dieresis.cap" x="40" y="214" flags="0x4"/>
    </TTGlyph>
    <TTGlyph name="Edotaccent" xMin="86" yMin="0" xMax="443" yMax="881">
      <component glyphName="dotaccent.cap" x="41" y="214" flags="0x4"/>
      <component glyphName="E" x="0" y="0" flags="0x4"/>
    </TTGlyph>
    <TTGlyph name="Edotaccent.flat" xMin="86" yMin="0" xMax="443" yMax="881">
      <component glyphName="dotaccent.cap" x="41" y="214" flags="0x4"/>
      <component glyphName="E.flat" x="0" y="0" flags="0x4"/>
    </TTGlyph>
    <TTGlyph name="Egrave" xMin="86" yMin="0" xMax="443" yMax="931">
      <component glyphName="grave.cap" x="-15" y="214" flags="0x4"/>
      <component glyphName="E" x="0" y="0" flags="0x4"/>
    </TTGlyph>
    <TTGlyph name="Egrave.flat" xMin="86" yMin="0" xMax="443" yMax="931">
      <component glyphName="grave.cap" x="-15" y="214" flags="0x4"/>
      <component glyphName="E.flat" x="0" y="0" flags="0x4"/>
    </TTGlyph>
    <TTGlyph name="Emacron" xMin="86" yMin="0" xMax="443" yMax="868">
      <component glyphName="macron.cap" x="41" y="214" flags="0x4"/>
      <component glyphName="E" x="0" y="0" flags="0x4"/>
    </TTGlyph>
    <TTGlyph name="Emacron.flat" xMin="86" yMin="0" xMax="443" yMax="868">
      <component glyphName="E.flat" x="0" y="0" flags="0x4"/>
      <component glyphName="macron.cap" x="41" y="214" flags="0x4"/>
    </TTGlyph>
    <TTGlyph name="Eogonek" xMin="86" yMin="-181" xMax="449" yMax="725">
      <contour>
        <pt x="449" y="-168" on="1"/>
        <pt x="418" y="-181" on="0"/>
        <pt x="384" y="-181" on="1"/>
        <pt x="347" y="-181" on="0"/>
        <pt x="307" y="-146" on="0"/>
        <pt x="307" y="-113" on="1"/>
        <pt x="307" y="-87" on="0"/>
        <pt x="337" y="-38" on="0"/>
        <pt x="363" y="0" on="1"/>
        <pt x="86" y="0" on="1"/>
        <pt x="86" y="725" on="1"/>
        <pt x="432" y="725" on="1"/>
        <pt x="432" y="656" on="1"/>
        <pt x="162" y="656" on="1"/>
        <pt x="162" y="414" on="1"/>
        <pt x="374" y="414" on="1"/>
        <pt x="386" y="345" on="1"/>
        <pt x="162" y="345" on="1"/>
        <pt x="162" y="69" on="1"/>
        <pt x="443" y="69" on="1"/>
        <pt x="443" y="0" on="1"/>
        <pt x="418" y="0" on="1"/>
        <pt x="400" y="-26" on="1"/>
        <pt x="384" y="-49" on="0"/>
        <pt x="368" y="-80" on="0"/>
        <pt x="368" y="-97" on="1"/>
        <pt x="368" y="-129" on="0"/>
        <pt x="407" y="-129" on="1"/>
        <pt x="417" y="-129" on="0"/>
        <pt x="437" y="-125" on="0"/>
        <pt x="448" y="-123" on="1"/>
        <pt x="449" y="-168" on="1"/>
      </contour>
    </TTGlyph>
    <TTGlyph name="Eogonek.flat" xMin="86" yMin="-181" xMax="449" yMax="725">
      <contour>
        <pt x="449" y="-168" on="1"/>
        <pt x="418" y="-181" on="0"/>
        <pt x="384" y="-181" on="1"/>
        <pt x="347" y="-181" on="0"/>
        <pt x="307" y="-146" on="0"/>
        <pt x="307" y="-113" on="1"/>
        <pt x="307" y="-87" on="0"/>
        <pt x="337" y="-38" on="0"/>
        <pt x="363" y="0" on="1"/>
        <pt x="86" y="0" on="1"/>
        <pt x="86" y="725" on="1"/>
        <pt x="432" y="725" on="1"/>
        <pt x="432" y="656" on="1"/>
        <pt x="162" y="656" on="1"/>
        <pt x="162" y="414" on="1"/>
        <pt x="380" y="414" on="1"/>
        <pt x="380" y="345" on="1"/>
        <pt x="162" y="345" on="1"/>
        <pt x="162" y="69" on="1"/>
        <pt x="443" y="69" on="1"/>
        <pt x="443" y="0" on="1"/>
        <pt x="418" y="0" on="1"/>
        <pt x="400" y="-26" on="1"/>
        <pt x="384" y="-49" on="0"/>
        <pt x="368" y="-80" on="0"/>
        <pt x="368" y="-97" on="1"/>
        <pt x="368" y="-129" on="0"/>
        <pt x="407" y="-129" on="1"/>
        <pt x="417" y="-129" on="0"/>
        <pt x="437" y="-125" on="0"/>
        <pt x="448" y="-123" on="1"/>
        <pt x="449" y="-168" on="1"/>
      </contour>
    </TTGlyph>
    <TTGlyph name="Eth" xMin="19" yMin="0" xMax="589" yMax="725">
      <contour>
        <pt x="589" y="364" on="1"/>
        <pt x="589" y="281" on="0"/>
        <pt x="543" y="146" on="0"/>
        <pt x="456" y="51" on="0"/>
        <pt x="329" y="0" on="0"/>
        <pt x="247" y="0" on="1"/>
        <pt x="95" y="0" on="1"/>
        <pt x="95" y="346" on="1"/>
        <pt x="30" y="346" on="1"/>
        <pt x="19" y="412" on="1"/>
        <pt x="95" y="412" on="1"/>
        <pt x="95" y="725" on="1"/>
        <pt x="250" y="725" on="1"/>
        <pt x="334" y="725" on="0"/>
        <pt x="460" y="673" on="0"/>
        <pt x="546" y="578" on="0"/>
        <pt x="589" y="445" on="0"/>
      </contour>
      <contour>
        <pt x="512" y="362" on="1"/>
        <pt x="512" y="434" on="0"/>
        <pt x="476" y="544" on="0"/>
        <pt x="409" y="619" on="0"/>
        <pt x="313" y="657" on="0"/>
        <pt x="254" y="657" on="1"/>
        <pt x="171" y="657" on="1"/>
        <pt x="171" y="412" on="1"/>
        <pt x="324" y="412" on="1"/>
        <pt x="324" y="346" on="1"/>
        <pt x="171" y="346" on="1"/>
        <pt x="171" y="69" on="1"/>
        <pt x="254" y="69" on="1"/>
        <pt x="373" y="69" on="0"/>
        <pt x="512" y="216" on="0"/>
      </contour>
    </TTGlyph>
    <TTGlyph name="Eth.flat" xMin="24" yMin="0" xMax="589" yMax="725">
      <contour>
        <pt x="589" y="364" on="1"/>
        <pt x="589" y="281" on="0"/>
        <pt x="543" y="146" on="0"/>
        <pt x="456" y="51" on="0"/>
        <pt x="329" y="0" on="0"/>
        <pt x="247" y="0" on="1"/>
        <pt x="95" y="0" on="1"/>
        <pt x="95" y="346" on="1"/>
        <pt x="24" y="346" on="1"/>
        <pt x="24" y="412" on="1"/>
        <pt x="95" y="412" on="1"/>
        <pt x="95" y="725" on="1"/>
        <pt x="250" y="725" on="1"/>
        <pt x="334" y="725" on="0"/>
        <pt x="460" y="673" on="0"/>
        <pt x="546" y="578" on="0"/>
        <pt x="589" y="445" on="0"/>
      </contour>
      <contour>
        <pt x="512" y="362" on="1"/>
        <pt x="512" y="434" on="0"/>
        <pt x="476" y="544" on="0"/>
        <pt x="409" y="619" on="0"/>
        <pt x="313" y="657" on="0"/>
        <pt x="254" y="657" on="1"/>
        <pt x="171" y="657" on="1"/>
        <pt x="171" y="412" on="1"/>
        <pt x="324" y="412" on="1"/>
        <pt x="324" y="346" on="1"/>
        <pt x="171" y="346" on="1"/>
        <pt x="171" y="69" on="1"/>
        <pt x="254" y="69" on="1"/>
        <pt x="373" y="69" on="0"/>
        <pt x="512" y="216" on="0"/>
      </contour>
    </TTGlyph>
    <TTGlyph name="Euro" xMin="31" yMin="-13" xMax="538" yMax="730">
      <contour>
        <pt x="35" y="483" on="1"/>
        <pt x="126" y="483" on="1"/>
        <pt x="137" y="540" on="0"/>
        <pt x="181" y="631" on="0"/>
        <pt x="244" y="695" on="0"/>
        <pt x="324" y="730" on="0"/>
        <pt x="372" y="730" on="1"/>
        <pt x="421" y="730" on="0"/>
        <pt x="495" y="704" on="0"/>
        <pt x="527" y="681" on="1"/>
        <pt x="515" y="611" on="1"/>
        <pt x="480" y="637" on="0"/>
        <pt x="414" y="666" on="0"/>
        <pt x="372" y="666" on="1"/>
        <pt x="304" y="666" on="0"/>
        <pt x="215" y="567" on="0"/>
        <pt x="196" y="483" on="1"/>
        <pt x="426" y="483" on="1"/>
        <pt x="436" y="424" on="1"/>
        <pt x="188" y="424" on="1"/>
        <pt x="185" y="394" on="0"/>
        <pt x="185" y="359" on="1"/>
        <pt x="185" y="345" on="0"/>
        <pt x="186" y="320" on="0"/>
        <pt x="187" y="308" on="1"/>
        <pt x="432" y="308" on="1"/>
        <pt x="432" y="248" on="1"/>
        <pt x="194" y="248" on="1"/>
        <pt x="211" y="157" on="0"/>
        <pt x="303" y="52" on="0"/>
        <pt x="372" y="52" on="1"/>
        <pt x="415" y="52" on="0"/>
        <pt x="487" y="81" on="0"/>
        <pt x="528" y="112" on="1"/>
        <pt x="538" y="44" on="1"/>
        <pt x="502" y="18" on="0"/>
        <pt x="420" y="-13" on="0"/>
        <pt x="369" y="-13" on="1"/>
        <pt x="269" y="-13" on="0"/>
        <pt x="143" y="127" on="0"/>
        <pt x="123" y="248" on="1"/>
        <pt x="40" y="248" on="1"/>
        <pt x="31" y="308" on="1"/>
        <pt x="116" y="308" on="1"/>
        <pt x="115" y="320" on="0"/>
        <pt x="114" y="345" on="0"/>
        <pt x="114" y="358" on="1"/>
        <pt x="114" y="392" on="0"/>
        <pt x="117" y="424" on="1"/>
        <pt x="35" y="424" on="1"/>
      </contour>
    </TTGlyph>
    <TTGlyph name="Euro.flat" xMin="35" yMin="-13" xMax="538" yMax="730">
      <contour>
        <pt x="35" y="483" on="1"/>
        <pt x="126" y="483" on="1"/>
        <pt x="137" y="540" on="0"/>
        <pt x="181" y="631" on="0"/>
        <pt x="244" y="695" on="0"/>
        <pt x="324" y="730" on="0"/>
        <pt x="372" y="730" on="1"/>
        <pt x="421" y="730" on="0"/>
        <pt x="495" y="704" on="0"/>
        <pt x="527" y="681" on="1"/>
        <pt x="515" y="611" on="1"/>
        <pt x="480" y="637" on="0"/>
        <pt x="414" y="666" on="0"/>
        <pt x="372" y="666" on="1"/>
        <pt x="304" y="666" on="0"/>
        <pt x="215" y="567" on="0"/>
        <pt x="196" y="483" on="1"/>
        <pt x="432" y="483" on="1"/>
        <pt x="432" y="424" on="1"/>
        <pt x="188" y="424" on="1"/>
        <pt x="185" y="394" on="0"/>
        <pt x="185" y="359" on="1"/>
        <pt x="185" y="345" on="0"/>
        <pt x="186" y="320" on="0"/>
        <pt x="187" y="308" on="1"/>
        <pt x="432" y="308" on="1"/>
        <pt x="432" y="248" on="1"/>
        <pt x="194" y="248" on="1"/>
        <pt x="211" y="157" on="0"/>
        <pt x="303" y="52" on="0"/>
        <pt x="372" y="52" on="1"/>
        <pt x="415" y="52" on="0"/>
        <pt x="487" y="81" on="0"/>
        <pt x="528" y="112" on="1"/>
        <pt x="538" y="44" on="1"/>
        <pt x="502" y="18" on="0"/>
        <pt x="420" y="-13" on="0"/>
        <pt x="369" y="-13" on="1"/>
        <pt x="269" y="-13" on="0"/>
        <pt x="143" y="127" on="0"/>
        <pt x="123" y="248" on="1"/>
        <pt x="35" y="248" on="1"/>
        <pt x="35" y="308" on="1"/>
        <pt x="116" y="308" on="1"/>
        <pt x="115" y="320" on="0"/>
        <pt x="114" y="345" on="0"/>
        <pt x="114" y="358" on="1"/>
        <pt x="114" y="392" on="0"/>
        <pt x="117" y="424" on="1"/>
        <pt x="35" y="424" on="1"/>
      </contour>
    </TTGlyph>
    <TTGlyph name="Euro.tab" xMin="34" yMin="-12" xMax="502" yMax="729">
      <contour>
        <pt x="38" y="482" on="1"/>
        <pt x="119" y="482" on="1"/>
        <pt x="129" y="537" on="0"/>
        <pt x="168" y="628" on="0"/>
        <pt x="225" y="693" on="0"/>
        <pt x="300" y="729" on="0"/>
        <pt x="347" y="729" on="1"/>
        <pt x="392" y="729" on="0"/>
        <pt x="462" y="705" on="0"/>
        <pt x="491" y="683" on="1"/>
        <pt x="480" y="613" on="1"/>
        <pt x="448" y="640" on="0"/>
        <pt x="386" y="667" on="0"/>
        <pt x="347" y="667" on="1"/>
        <pt x="283" y="667" on="0"/>
        <pt x="205" y="565" on="0"/>
        <pt x="189" y="482" on="1"/>
        <pt x="398" y="482" on="1"/>
        <pt x="407" y="424" on="1"/>
        <pt x="181" y="424" on="1"/>
        <pt x="178" y="392" on="0"/>
        <pt x="178" y="360" on="1"/>
        <pt x="178" y="346" on="0"/>
        <pt x="179" y="321" on="0"/>
        <pt x="180" y="308" on="1"/>
        <pt x="403" y="308" on="1"/>
        <pt x="403" y="250" on="1"/>
        <pt x="186" y="250" on="1"/>
        <pt x="201" y="156" on="0"/>
        <pt x="284" y="51" on="0"/>
        <pt x="348" y="51" on="1"/>
        <pt x="390" y="51" on="0"/>
        <pt x="453" y="77" on="0"/>
        <pt x="491" y="108" on="1"/>
        <pt x="502" y="43" on="1"/>
        <pt x="467" y="17" on="0"/>
        <pt x="391" y="-12" on="0"/>
        <pt x="343" y="-12" on="1"/>
        <pt x="248" y="-12" on="0"/>
        <pt x="133" y="129" on="0"/>
        <pt x="116" y="250" on="1"/>
        <pt x="43" y="250" on="1"/>
        <pt x="34" y="308" on="1"/>
        <pt x="110" y="308" on="1"/>
        <pt x="109" y="320" on="0"/>
        <pt x="109" y="345" on="0"/>
        <pt x="109" y="358" on="1"/>
        <pt x="109" y="392" on="0"/>
        <pt x="112" y="424" on="1"/>
        <pt x="38" y="424" on="1"/>
      </contour>
    </TTGlyph>
    <TTGlyph name="Euro.tab_flat" xMin="38" yMin="-12" xMax="502" yMax="729">
      <contour>
        <pt x="38" y="482" on="1"/>
        <pt x="119" y="482" on="1"/>
        <pt x="129" y="537" on="0"/>
        <pt x="168" y="628" on="0"/>
        <pt x="225" y="693" on="0"/>
        <pt x="300" y="729" on="0"/>
        <pt x="347" y="729" on="1"/>
        <pt x="392" y="729" on="0"/>
        <pt x="462" y="705" on="0"/>
        <pt x="491" y="683" on="1"/>
        <pt x="480" y="613" on="1"/>
        <pt x="448" y="640" on="0"/>
        <pt x="386" y="667" on="0"/>
        <pt x="347" y="667" on="1"/>
        <pt x="283" y="667" on="0"/>
        <pt x="205" y="565" on="0"/>
        <pt x="189" y="482" on="1"/>
        <pt x="403" y="482" on="1"/>
        <pt x="403" y="424" on="1"/>
        <pt x="181" y="424" on="1"/>
        <pt x="178" y="392" on="0"/>
        <pt x="178" y="360" on="1"/>
        <pt x="178" y="346" on="0"/>
        <pt x="179" y="321" on="0"/>
        <pt x="180" y="308" on="1"/>
        <pt x="403" y="308" on="1"/>
        <pt x="403" y="250" on="1"/>
        <pt x="186" y="250" on="1"/>
        <pt x="201" y="156" on="0"/>
        <pt x="284" y="51" on="0"/>
        <pt x="348" y="51" on="1"/>
        <pt x="390" y="51" on="0"/>
        <pt x="453" y="77" on="0"/>
        <pt x="491" y="108" on="1"/>
        <pt x="502" y="43" on="1"/>
        <pt x="467" y="17" on="0"/>
        <pt x="391" y="-12" on="0"/>
        <pt x="343" y="-12" on="1"/>
        <pt x="248" y="-12" on="0"/>
        <pt x="133" y="129" on="0"/>
        <pt x="116" y="250" on="1"/>
        <pt x="38" y="250" on="1"/>
        <pt x="38" y="308" on="1"/>
        <pt x="110" y="308" on="1"/>
        <pt x="109" y="320" on="0"/>
        <pt x="109" y="345" on="0"/>
        <pt x="109" y="358" on="1"/>
        <pt x="109" y="392" on="0"/>
        <pt x="112" y="424" on="1"/>
        <pt x="38" y="424" on="1"/>
      </contour>
    </TTGlyph>
    <TTGlyph name="F" xMin="86" yMin="0" xMax="421" yMax="725">
      <contour>
        <pt x="162" y="656" on="1"/>
        <pt x="162" y="403" on="1"/>
        <pt x="366" y="403" on="1"/>
        <pt x="377" y="334" on="1"/>
        <pt x="162" y="334" on="1"/>
        <pt x="162" y="0" on="1"/>
        <pt x="86" y="0" on="1"/>
        <pt x="86" y="725" on="1"/>
        <pt x="421" y="725" on="1"/>
        <pt x="421" y="656" on="1"/>
      </contour>
    </TTGlyph>
    <TTGlyph name="F.flat" xMin="86" yMin="0" xMax="421" yMax="725">
      <contour>
        <pt x="162" y="656" on="1"/>
        <pt x="162" y="403" on="1"/>
        <pt x="371" y="403" on="1"/>
        <pt x="371" y="334" on="1"/>
        <pt x="162" y="334" on="1"/>
        <pt x="162" y="0" on="1"/>
        <pt x="86" y="0" on="1"/>
        <pt x="86" y="725" on="1"/>
        <pt x="421" y="725" on="1"/>
        <pt x="421" y="656" on="1"/>
      </contour>
    </TTGlyph>
    <TTGlyph name="G" xMin="57" yMin="-12" xMax="556" yMax="737">
      <contour>
        <pt x="556" y="54" on="1"/>
        <pt x="512" y="25" on="0"/>
        <pt x="412" y="-12" on="0"/>
        <pt x="349" y="-12" on="1"/>
        <pt x="278" y="-12" on="0"/>
        <pt x="169" y="42" on="0"/>
        <pt x="95" y="141" on="0"/>
        <pt x="57" y="278" on="0"/>
        <pt x="57" y="361" on="1"/>
        <pt x="57" y="444" on="0"/>
        <pt x="97" y="583" on="0"/>
        <pt x="173" y="682" on="0"/>
        <pt x="283" y="737" on="0"/>
        <pt x="353" y="737" on="1"/>
        <pt x="408" y="737" on="0"/>
        <pt x="496" y="709" on="0"/>
        <pt x="533" y="683" on="1"/>
        <pt x="522" y="605" on="1"/>
        <pt x="484" y="634" on="0"/>
        <pt x="402" y="668" on="0"/>
        <pt x="351" y="668" on="1"/>
        <pt x="298" y="668" on="0"/>
        <pt x="218" y="624" on="0"/>
        <pt x="163" y="544" on="0"/>
        <pt x="135" y="431" on="0"/>
        <pt x="135" y="363" on="1"/>
        <pt x="135" y="297" on="0"/>
        <pt x="162" y="185" on="0"/>
        <pt x="216" y="103" on="0"/>
        <pt x="298" y="57" on="0"/>
        <pt x="352" y="57" on="1"/>
        <pt x="393" y="57" on="0"/>
        <pt x="454" y="77" on="0"/>
        <pt x="483" y="94" on="1"/>
        <pt x="483" y="315" on="1"/>
        <pt x="338" y="315" on="1"/>
        <pt x="328" y="384" on="1"/>
        <pt x="556" y="384" on="1"/>
      </contour>
    </TTGlyph>
    <TTGlyph name="G.flat" xMin="57" yMin="-12" xMax="556" yMax="737">
      <contour>
        <pt x="556" y="54" on="1"/>
        <pt x="512" y="25" on="0"/>
        <pt x="412" y="-12" on="0"/>
        <pt x="349" y="-12" on="1"/>
        <pt x="278" y="-12" on="0"/>
        <pt x="169" y="42" on="0"/>
        <pt x="95" y="141" on="0"/>
        <pt x="57" y="278" on="0"/>
        <pt x="57" y="361" on="1"/>
        <pt x="57" y="444" on="0"/>
        <pt x="97" y="583" on="0"/>
        <pt x="173" y="682" on="0"/>
        <pt x="283" y="737" on="0"/>
        <pt x="353" y="737" on="1"/>
        <pt x="408" y="737" on="0"/>
        <pt x="496" y="709" on="0"/>
        <pt x="533" y="683" on="1"/>
        <pt x="522" y="605" on="1"/>
        <pt x="484" y="634" on="0"/>
        <pt x="402" y="668" on="0"/>
        <pt x="351" y="668" on="1"/>
        <pt x="298" y="668" on="0"/>
        <pt x="218" y="624" on="0"/>
        <pt x="163" y="544" on="0"/>
        <pt x="135" y="431" on="0"/>
        <pt x="135" y="363" on="1"/>
        <pt x="135" y="297" on="0"/>
        <pt x="162" y="185" on="0"/>
        <pt x="216" y="103" on="0"/>
        <pt x="298" y="57" on="0"/>
        <pt x="352" y="57" on="1"/>
        <pt x="393" y="57" on="0"/>
        <pt x="454" y="77" on="0"/>
        <pt x="483" y="94" on="1"/>
        <pt x="483" y="315" on="1"/>
        <pt x="333" y="315" on="1"/>
        <pt x="333" y="384" on="1"/>
        <pt x="556" y="384" on="1"/>
      </contour>
    </TTGlyph>
    <TTGlyph name="Gbreve" xMin="57" yMin="-12" xMax="556" yMax="917">
      <component glyphName="breve.cap" x="119" y="223" flags="0x4"/>
      <component glyphName="G" x="0" y="0" flags="0x4"/>
    </TTGlyph>
    <TTGlyph name="Gbreve.flat" xMin="57" yMin="-12" xMax="556" yMax="917">
      <component glyphName="breve.cap" x="119" y="223" flags="0x4"/>
      <component glyphName="G.flat" x="0" y="0" flags="0x4"/>
    </TTGlyph>
    <TTGlyph name="Gcommaaccent" xMin="57" yMin="-245" xMax="556" yMax="737">
      <component glyphName="G" x="0" y="0" flags="0x204"/>
      <component glyphName="commaaccent.cap" x="127" y="-4" flags="0x4"/>
    </TTGlyph>
    <TTGlyph name="Gcommaaccent.flat" xMin="57" yMin="-245" xMax="556" yMax="737">
      <component glyphName="G.flat" x="0" y="0" flags="0x204"/>
      <component glyphName="commaaccent.cap" x="127" y="-4" flags="0x4"/>
    </TTGlyph>
    <TTGlyph name="Gdotaccent" xMin="57" yMin="-12" xMax="556" yMax="890">
      <component glyphName="dotaccent.cap" x="119" y="223" flags="0x4"/>
      <component glyphName="G" x="0" y="0" flags="0x4"/>
    </TTGlyph>
    <TTGlyph name="Gdotaccent.flat" xMin="57" yMin="-12" xMax="556" yMax="890">
      <component glyphName="dotaccent.cap" x="119" y="223" flags="0x4"/>
      <component glyphName="G.flat" x="0" y="0" flags="0x4"/>
    </TTGlyph>
    <TTGlyph name="H" xMin="86" yMin="0" xMax="563" yMax="725">
      <contour>
        <pt x="487" y="0" on="1"/>
        <pt x="487" y="345" on="1"/>
        <pt x="162" y="345" on="1"/>
        <pt x="162" y="0" on="1"/>
        <pt x="86" y="0" on="1"/>
        <pt x="86" y="725" on="1"/>
        <pt x="162" y="725" on="1"/>
        <pt x="162" y="414" on="1"/>
        <pt x="487" y="414" on="1"/>
        <pt x="487" y="725" on="1"/>
        <pt x="563" y="725" on="1"/>
        <pt x="563" y="0" on="1"/>
      </contour>
    </TTGlyph>
    <TTGlyph name="Hbar" xMin="17" yMin="0" xMax="654" yMax="725">
      <contour>
        <pt x="500" y="0" on="1"/>
        <pt x="500" y="339" on="1"/>
        <pt x="176" y="339" on="1"/>
        <pt x="176" y="0" on="1"/>
        <pt x="100" y="0" on="1"/>
        <pt x="100" y="548" on="1"/>
        <pt x="28" y="548" on="1"/>
        <pt x="17" y="611" on="1"/>
        <pt x="100" y="611" on="1"/>
        <pt x="100" y="725" on="1"/>
        <pt x="176" y="725" on="1"/>
        <pt x="176" y="611" on="1"/>
        <pt x="500" y="611" on="1"/>
        <pt x="500" y="725" on="1"/>
        <pt x="576" y="725" on="1"/>
        <pt x="576" y="611" on="1"/>
        <pt x="654" y="611" on="1"/>
        <pt x="654" y="548" on="1"/>
        <pt x="576" y="548" on="1"/>
        <pt x="576" y="0" on="1"/>
      </contour>
      <contour>
        <pt x="500" y="406" on="1"/>
        <pt x="500" y="549" on="1"/>
        <pt x="176" y="549" on="1"/>
        <pt x="176" y="406" on="1"/>
      </contour>
    </TTGlyph>
    <TTGlyph name="Hbar.flat" xMin="22" yMin="0" xMax="654" yMax="725">
      <contour>
        <pt x="500" y="0" on="1"/>
        <pt x="500" y="339" on="1"/>
        <pt x="176" y="339" on="1"/>
        <pt x="176" y="0" on="1"/>
        <pt x="100" y="0" on="1"/>
        <pt x="100" y="548" on="1"/>
        <pt x="22" y="548" on="1"/>
        <pt x="22" y="611" on="1"/>
        <pt x="100" y="611" on="1"/>
        <pt x="100" y="725" on="1"/>
        <pt x="176" y="725" on="1"/>
        <pt x="176" y="611" on="1"/>
        <pt x="500" y="611" on="1"/>
        <pt x="500" y="725" on="1"/>
        <pt x="576" y="725" on="1"/>
        <pt x="576" y="611" on="1"/>
        <pt x="654" y="611" on="1"/>
        <pt x="654" y="548" on="1"/>
        <pt x="576" y="548" on="1"/>
        <pt x="576" y="0" on="1"/>
      </contour>
      <contour>
        <pt x="500" y="406" on="1"/>
        <pt x="500" y="549" on="1"/>
        <pt x="176" y="549" on="1"/>
        <pt x="176" y="406" on="1"/>
      </contour>
    </TTGlyph>
    <TTGlyph name="I" xMin="94" yMin="0" xMax="170" yMax="725">
      <contour>
        <pt x="94" y="0" on="1"/>
        <pt x="94" y="725" on="1"/>
        <pt x="170" y="725" on="1"/>
        <pt x="170" y="0" on="1"/>
      </contour>
    </TTGlyph>
    <TTGlyph name="Iacute" xMin="94" yMin="0" xMax="274" yMax="931">
      <component glyphName="I" x="0" y="0" flags="0x204"/>
      <component glyphName="acute.cap" x="-36" y="214" flags="0x4"/>
    </TTGlyph>
    <TTGlyph name="Ibreve" xMin="7" yMin="0" xMax="256" yMax="908">
      <component glyphName="I" x="0" y="0" flags="0x204"/>
      <component glyphName="breve.cap" x="-90" y="214" flags="0x4"/>
    </TTGlyph>
    <TTGlyph name="Icircumflex" xMin="5" yMin="0" xMax="257" yMax="927">
      <component glyphName="I" x="0" y="0" flags="0x204"/>
      <component glyphName="circumflex.cap" x="-90" y="214" flags="0x4"/>
    </TTGlyph>
    <TTGlyph name="Idieresis" xMin="10" yMin="0" xMax="252" yMax="881">
      <component glyphName="I" x="0" y="0" flags="0x204"/>
      <component glyphName="dieresis.cap" x="-90" y="214" flags="0x4"/>
    </TTGlyph>
    <TTGlyph name="Idotaccent" xMin="89" yMin="0" xMax="173" yMax="881">
      <component glyphName="I" x="0" y="0" flags="0x204"/>
      <component glyphName="dotaccent.cap" x="-90" y="214" flags="0x4"/>
    </TTGlyph>
    <TTGlyph name="Igrave" xMin="-11" yMin="0" xMax="170" yMax="931">
      <component glyphName="I" x="0" y="0" flags="0x204"/>
      <component glyphName="grave.cap" x="-145" y="214" flags="0x4"/>
    </TTGlyph>
    <TTGlyph name="Imacron" xMin="5" yMin="0" xMax="257" yMax="868">
      <component glyphName="I" x="0" y="0" flags="0x204"/>
      <component glyphName="macron.cap" x="-90" y="214" flags="0x4"/>
    </TTGlyph>
    <TTGlyph name="Iogonek" xMin="48" yMin="-181" xMax="190" yMax="725">
      <contour>
        <pt x="190" y="-168" on="1"/>
        <pt x="159" y="-181" on="0"/>
        <pt x="125" y="-181" on="1"/>
        <pt x="88" y="-181" on="0"/>
        <pt x="48" y="-146" on="0"/>
        <pt x="48" y="-113" on="1"/>
        <pt x="48" y="-87" on="0"/>
        <pt x="78" y="-38" on="0"/>
        <pt x="104" y="0" on="1"/>
        <pt x="94" y="0" on="1"/>
        <pt x="94" y="725" on="1"/>
        <pt x="170" y="725" on="1"/>
        <pt x="170" y="0" on="1"/>
        <pt x="159" y="0" on="1"/>
        <pt x="141" y="-26" on="1"/>
        <pt x="125" y="-49" on="0"/>
        <pt x="109" y="-80" on="0"/>
        <pt x="109" y="-97" on="1"/>
        <pt x="109" y="-129" on="0"/>
        <pt x="148" y="-129" on="1"/>
        <pt x="158" y="-129" on="0"/>
        <pt x="178" y="-125" on="0"/>
        <pt x="189" y="-123" on="1"/>
        <pt x="190" y="-168" on="1"/>
      </contour>
    </TTGlyph>
    <TTGlyph name="J" xMin="27" yMin="-7" xMax="269" yMax="725">
      <contour>
        <pt x="269" y="160" on="1"/>
        <pt x="269" y="117" on="0"/>
        <pt x="244" y="54" on="0"/>
        <pt x="200" y="13" on="0"/>
        <pt x="138" y="-7" on="0"/>
        <pt x="101" y="-7" on="1"/>
        <pt x="84" y="-7" on="0"/>
        <pt x="51" y="-3" on="0"/>
        <pt x="39" y="0" on="1"/>
        <pt x="27" y="70" on="1"/>
        <pt x="60" y="61" on="0"/>
        <pt x="97" y="61" on="1"/>
        <pt x="143" y="61" on="0"/>
        <pt x="194" y="110" on="0"/>
        <pt x="194" y="164" on="1"/>
        <pt x="194" y="725" on="1"/>
        <pt x="269" y="725" on="1"/>
      </contour>
    </TTGlyph>
    <TTGlyph name="K" xMin="86" yMin="-7" xMax="548" yMax="725">
      <contour>
        <pt x="467" y="-7" on="1"/>
        <pt x="162" y="370" on="1"/>
        <pt x="162" y="0" on="1"/>
        <pt x="86" y="0" on="1"/>
        <pt x="86" y="725" on="1"/>
        <pt x="162" y="725" on="1"/>
        <pt x="162" y="398" on="1"/>
        <pt x="441" y="725" on="1"/>
        <pt x="533" y="725" on="1"/>
        <pt x="240" y="387" on="1"/>
        <pt x="548" y="10" on="1"/>
      </contour>
    </TTGlyph>
    <TTGlyph name="K.flat" xMin="86" yMin="0" xMax="556" yMax="725">
      <contour>
        <pt x="461" y="0" on="1"/>
        <pt x="162" y="370" on="1"/>
        <pt x="162" y="0" on="1"/>
        <pt x="86" y="0" on="1"/>
        <pt x="86" y="725" on="1"/>
        <pt x="162" y="725" on="1"/>
        <pt x="162" y="398" on="1"/>
        <pt x="441" y="725" on="1"/>
        <pt x="533" y="725" on="1"/>
        <pt x="240" y="387" on="1"/>
        <pt x="556" y="0" on="1"/>
      </contour>
    </TTGlyph>
    <TTGlyph name="Kcommaaccent" xMin="86" yMin="-236" xMax="548" yMax="725">
      <component glyphName="K" x="0" y="0" flags="0x4"/>
      <component glyphName="commaaccent.cap" x="76" y="5" flags="0x4"/>
    </TTGlyph>
    <TTGlyph name="Kcommaaccent.flat" xMin="86" yMin="-236" xMax="556" yMax="725">
      <component glyphName="K.flat" x="0" y="0" flags="0x4"/>
      <component glyphName="commaaccent.cap" x="76" y="5" flags="0x4"/>
    </TTGlyph>
    <TTGlyph name="L" xMin="86" yMin="0" xMax="419" yMax="725">
      <contour>
        <pt x="86" y="0" on="1"/>
        <pt x="86" y="725" on="1"/>
        <pt x="162" y="725" on="1"/>
        <pt x="162" y="70" on="1"/>
        <pt x="408" y="70" on="1"/>
        <pt x="419" y="0" on="1"/>
      </contour>
    </TTGlyph>
    <TTGlyph name="L.flat" xMin="86" yMin="0" xMax="414" yMax="725">
      <contour>
        <pt x="86" y="0" on="1"/>
        <pt x="86" y="725" on="1"/>
        <pt x="162" y="725" on="1"/>
        <pt x="162" y="70" on="1"/>
        <pt x="414" y="70" on="1"/>
        <pt x="414" y="0" on="1"/>
      </contour>
    </TTGlyph>
    <TTGlyph name="Lacute" xMin="86" yMin="0" xMax="419" yMax="929">
      <component glyphName="acute.cap" x="-28" y="212" flags="0x4"/>
      <component glyphName="L" x="0" y="0" flags="0x4"/>
    </TTGlyph>
    <TTGlyph name="Lacute.flat" xMin="86" yMin="0" xMax="414" yMax="929">
      <component glyphName="acute.cap" x="-28" y="212" flags="0x4"/>
      <component glyphName="L.flat" x="0" y="0" flags="0x4"/>
    </TTGlyph>
    <TTGlyph name="Lcaron" xMin="86" yMin="0" xMax="419" yMax="730">
      <component glyphName="L" x="0" y="0" flags="0x204"/>
      <component glyphName="caron.alt.cap" x="57" y="-24" flags="0x4"/>
    </TTGlyph>
    <TTGlyph name="Lcaron.flat" xMin="86" yMin="0" xMax="414" yMax="730">
      <component glyphName="L.flat" x="0" y="0" flags="0x204"/>
      <component glyphName="caron.alt.cap" x="57" y="-24" flags="0x4"/>
    </TTGlyph>
    <TTGlyph name="Lcommaaccent" xMin="86" yMin="-241" xMax="419" yMax="725">
      <component glyphName="L" x="0" y="0" flags="0x204"/>
      <component glyphName="commaaccent.cap" x="34" y="0" flags="0x4"/>
    </TTGlyph>
    <TTGlyph name="Lcommaaccent.flat" xMin="86" yMin="-241" xMax="414" yMax="725">
      <component glyphName="L.flat" x="0" y="0" flags="0x204"/>
      <component glyphName="commaaccent.cap" x="34" y="0" flags="0x4"/>
    </TTGlyph>
    <TTGlyph name="Ldot" xMin="86" yMin="0" xMax="419" yMax="725">
      <contour>
        <pt x="298" y="324" on="1"/>
        <pt x="298" y="419" on="1"/>
        <pt x="381" y="419" on="1"/>
        <pt x="381" y="324" on="1"/>
      </contour>
      <contour>
        <pt x="86" y="0" on="1"/>
        <pt x="86" y="725" on="1"/>
        <pt x="162" y="725" on="1"/>
        <pt x="162" y="70" on="1"/>
        <pt x="408" y="70" on="1"/>
        <pt x="419" y="0" on="1"/>
      </contour>
    </TTGlyph>
    <TTGlyph name="Ldot.flat" xMin="86" yMin="0" xMax="414" yMax="725">
      <contour>
        <pt x="298" y="324" on="1"/>
        <pt x="298" y="419" on="1"/>
        <pt x="381" y="419" on="1"/>
        <pt x="381" y="324" on="1"/>
      </contour>
      <contour>
        <pt x="86" y="0" on="1"/>
        <pt x="86" y="725" on="1"/>
        <pt x="162" y="725" on="1"/>
        <pt x="162" y="70" on="1"/>
        <pt x="414" y="70" on="1"/>
        <pt x="414" y="0" on="1"/>
      </contour>
    </TTGlyph>
    <TTGlyph name="Lslash" xMin="19" yMin="0" xMax="432" yMax="725">
      <contour>
        <pt x="177" y="332" on="1"/>
        <pt x="177" y="70" on="1"/>
        <pt x="422" y="70" on="1"/>
        <pt x="432" y="0" on="1"/>
        <pt x="101" y="0" on="1"/>
        <pt x="101" y="290" on="1"/>
        <pt x="29" y="250" on="1"/>
        <pt x="19" y="318" on="1"/>
        <pt x="101" y="363" on="1"/>
        <pt x="101" y="725" on="1"/>
        <pt x="177" y="725" on="1"/>
        <pt x="177" y="405" on="1"/>
        <pt x="318" y="485" on="1"/>
        <pt x="318" y="410" on="1"/>
      </contour>
    </TTGlyph>
    <TTGlyph name="Lslash.flat" xMin="24" yMin="0" xMax="430" yMax="725">
      <contour>
        <pt x="177" y="332" on="1"/>
        <pt x="177" y="70" on="1"/>
        <pt x="426" y="70" on="1"/>
        <pt x="430" y="0" on="1"/>
        <pt x="101" y="0" on="1"/>
        <pt x="101" y="290" on="1"/>
        <pt x="24" y="247" on="1"/>
        <pt x="24" y="322" on="1"/>
        <pt x="101" y="364" on="1"/>
        <pt x="101" y="725" on="1"/>
        <pt x="177" y="725" on="1"/>
        <pt x="177" y="405" on="1"/>
        <pt x="318" y="485" on="1"/>
        <pt x="318" y="410" on="1"/>
      </contour>
    </TTGlyph>
    <TTGlyph name="M" xMin="70" yMin="-4" xMax="769" yMax="725">
      <contour>
        <pt x="696" y="0" on="1"/>
        <pt x="659" y="607" on="1"/>
        <pt x="449" y="-4" on="1"/>
        <pt x="387" y="-4" on="1"/>
        <pt x="176" y="607" on="1"/>
        <pt x="140" y="0" on="1"/>
        <pt x="70" y="0" on="1"/>
        <pt x="117" y="725" on="1"/>
        <pt x="209" y="725" on="1"/>
        <pt x="420" y="103" on="1"/>
        <pt x="632" y="725" on="1"/>
        <pt x="723" y="725" on="1"/>
        <pt x="769" y="0" on="1"/>
      </contour>
    </TTGlyph>
    <TTGlyph name="M.alt" xMin="87" yMin="-4" xMax="742" yMax="725">
      <contour>
        <pt x="670" y="0" on="1"/>
        <pt x="670" y="608" on="1"/>
        <pt x="444" y="-4" on="1"/>
        <pt x="381" y="-4" on="1"/>
        <pt x="156" y="608" on="1"/>
        <pt x="156" y="0" on="1"/>
        <pt x="87" y="0" on="1"/>
        <pt x="87" y="725" on="1"/>
        <pt x="186" y="725" on="1"/>
        <pt x="415" y="102" on="1"/>
        <pt x="645" y="725" on="1"/>
        <pt x="742" y="725" on="1"/>
        <pt x="742" y="0" on="1"/>
      </contour>
    </TTGlyph>
    <TTGlyph name="N" xMin="86" yMin="0" xMax="564" yMax="725">
      <contour>
        <pt x="501" y="0" on="1"/>
        <pt x="156" y="593" on="1"/>
        <pt x="157" y="0" on="1"/>
        <pt x="86" y="0" on="1"/>
        <pt x="86" y="725" on="1"/>
        <pt x="160" y="725" on="1"/>
        <pt x="494" y="150" on="1"/>
        <pt x="492" y="725" on="1"/>
        <pt x="564" y="725" on="1"/>
        <pt x="564" y="0" on="1"/>
      </contour>
    </TTGlyph>
    <TTGlyph name="Nacute" xMin="86" yMin="0" xMax="564" yMax="925">
      <component glyphName="acute.cap" x="160" y="208" flags="0x4"/>
      <component glyphName="N" x="0" y="0" flags="0x4"/>
    </TTGlyph>
    <TTGlyph name="Ncaron" xMin="86" yMin="0" xMax="564" yMax="920">
      <component glyphName="caron.cap" x="105" y="208" flags="0x4"/>
      <component glyphName="N" x="0" y="0" flags="0x4"/>
    </TTGlyph>
    <TTGlyph name="Ncommaaccent" xMin="86" yMin="-236" xMax="564" yMax="725">
      <component glyphName="commaaccent.cap" x="113" y="5" flags="0x4"/>
      <component glyphName="N" x="0" y="0" flags="0x4"/>
    </TTGlyph>
    <TTGlyph name="Ntilde" xMin="86" yMin="0" xMax="564" yMax="897">
      <component glyphName="tilde.cap" x="109" y="208" flags="0x4"/>
      <component glyphName="N" x="0" y="0" flags="0x4"/>
    </TTGlyph>
    <TTGlyph name="O" xMin="57" yMin="-13" xMax="621" yMax="737">
      <contour>
        <pt x="621" y="363" on="1"/>
        <pt x="621" y="279" on="0"/>
        <pt x="581" y="140" on="0"/>
        <pt x="507" y="41" on="0"/>
        <pt x="402" y="-13" on="0"/>
        <pt x="338" y="-13" on="1"/>
        <pt x="273" y="-13" on="0"/>
        <pt x="170" y="41" on="0"/>
        <pt x="96" y="139" on="0"/>
        <pt x="57" y="277" on="0"/>
        <pt x="57" y="361" on="1"/>
        <pt x="57" y="446" on="0"/>
        <pt x="97" y="584" on="0"/>
        <pt x="171" y="683" on="0"/>
        <pt x="276" y="737" on="0"/>
        <pt x="340" y="737" on="1"/>
        <pt x="404" y="737" on="0"/>
        <pt x="508" y="683" on="0"/>
        <pt x="582" y="585" on="0"/>
        <pt x="621" y="447" on="0"/>
      </contour>
      <contour>
        <pt x="544" y="362" on="1"/>
        <pt x="544" y="430" on="0"/>
        <pt x="515" y="543" on="0"/>
        <pt x="462" y="624" on="0"/>
        <pt x="386" y="669" on="0"/>
        <pt x="339" y="669" on="1"/>
        <pt x="291" y="669" on="0"/>
        <pt x="215" y="624" on="0"/>
        <pt x="163" y="543" on="0"/>
        <pt x="135" y="431" on="0"/>
        <pt x="135" y="363" on="1"/>
        <pt x="135" y="295" on="0"/>
        <pt x="163" y="182" on="0"/>
        <pt x="216" y="101" on="0"/>
        <pt x="292" y="56" on="0"/>
        <pt x="339" y="56" on="1"/>
        <pt x="387" y="56" on="0"/>
        <pt x="463" y="100" on="0"/>
        <pt x="516" y="181" on="0"/>
        <pt x="544" y="294" on="0"/>
      </contour>
    </TTGlyph>
    <TTGlyph name="OE" xMin="57" yMin="0" xMax="785" yMax="725">
      <contour>
        <pt x="396" y="0" on="1"/>
        <pt x="313" y="0" on="0"/>
        <pt x="186" y="52" on="0"/>
        <pt x="100" y="147" on="0"/>
        <pt x="57" y="280" on="0"/>
        <pt x="57" y="361" on="1"/>
        <pt x="57" y="444" on="0"/>
        <pt x="103" y="578" on="0"/>
        <pt x="190" y="673" on="0"/>
        <pt x="318" y="725" on="0"/>
        <pt x="400" y="725" on="1"/>
        <pt x="775" y="725" on="1"/>
        <pt x="775" y="656" on="1"/>
        <pt x="509" y="656" on="1"/>
        <pt x="509" y="414" on="1"/>
        <pt x="718" y="414" on="1"/>
        <pt x="729" y="345" on="1"/>
        <pt x="509" y="345" on="1"/>
        <pt x="509" y="69" on="1"/>
        <pt x="785" y="69" on="1"/>
        <pt x="785" y="0" on="1"/>
      </contour>
      <contour>
        <pt x="434" y="657" on="1"/>
        <pt x="392" y="657" on="1"/>
        <pt x="333" y="657" on="0"/>
        <pt x="237" y="620" on="0"/>
        <pt x="170" y="546" on="0"/>
        <pt x="134" y="435" on="0"/>
        <pt x="134" y="362" on="1"/>
        <pt x="134" y="290" on="0"/>
        <pt x="170" y="181" on="0"/>
        <pt x="238" y="107" on="0"/>
        <pt x="333" y="69" on="0"/>
        <pt x="392" y="69" on="1"/>
        <pt x="434" y="69" on="1"/>
      </contour>
    </TTGlyph>
    <TTGlyph name="OE.flat" xMin="57" yMin="0" xMax="785" yMax="725">
      <contour>
        <pt x="396" y="0" on="1"/>
        <pt x="313" y="0" on="0"/>
        <pt x="186" y="52" on="0"/>
        <pt x="100" y="147" on="0"/>
        <pt x="57" y="280" on="0"/>
        <pt x="57" y="361" on="1"/>
        <pt x="57" y="444" on="0"/>
        <pt x="103" y="578" on="0"/>
        <pt x="190" y="673" on="0"/>
        <pt x="318" y="725" on="0"/>
        <pt x="400" y="725" on="1"/>
        <pt x="775" y="725" on="1"/>
        <pt x="775" y="656" on="1"/>
        <pt x="509" y="656" on="1"/>
        <pt x="509" y="414" on="1"/>
        <pt x="723" y="414" on="1"/>
        <pt x="723" y="345" on="1"/>
        <pt x="509" y="345" on="1"/>
        <pt x="509" y="69" on="1"/>
        <pt x="785" y="69" on="1"/>
        <pt x="785" y="0" on="1"/>
      </contour>
      <contour>
        <pt x="434" y="657" on="1"/>
        <pt x="392" y="657" on="1"/>
        <pt x="333" y="657" on="0"/>
        <pt x="237" y="620" on="0"/>
        <pt x="170" y="546" on="0"/>
        <pt x="134" y="435" on="0"/>
        <pt x="134" y="362" on="1"/>
        <pt x="134" y="290" on="0"/>
        <pt x="170" y="181" on="0"/>
        <pt x="238" y="107" on="0"/>
        <pt x="333" y="69" on="0"/>
        <pt x="392" y="69" on="1"/>
        <pt x="434" y="69" on="1"/>
      </contour>
    </TTGlyph>
    <TTGlyph name="Oacute" xMin="57" yMin="-13" xMax="621" yMax="940">
      <component glyphName="acute.cap" x="172" y="223" flags="0x4"/>
      <component glyphName="O" x="0" y="0" flags="0x4"/>
    </TTGlyph>
    <TTGlyph name="Obreve" xMin="57" yMin="-13" xMax="621" yMax="917">
      <component glyphName="breve.cap" x="118" y="223" flags="0x4"/>
      <component glyphName="O" x="0" y="0" flags="0x4"/>
    </TTGlyph>
    <TTGlyph name="Ocircumflex" xMin="57" yMin="-13" xMax="621" yMax="936">
      <component glyphName="O" x="0" y="0" flags="0x4"/>
      <component glyphName="circumflex.cap" x="118" y="223" flags="0x4"/>
    </TTGlyph>
    <TTGlyph name="Odieresis" xMin="57" yMin="-13" xMax="621" yMax="890">
      <component glyphName="dieresis.cap" x="118" y="223" flags="0x4"/>
      <component glyphName="O" x="0" y="0" flags="0x4"/>
    </TTGlyph>
    <TTGlyph name="Ograve" xMin="57" yMin="-13" xMax="621" yMax="940">
      <component glyphName="grave.cap" x="63" y="223" flags="0x4"/>
      <component glyphName="O" x="0" y="0" flags="0x4"/>
    </TTGlyph>
    <TTGlyph name="Ohungarumlaut" xMin="57" yMin="-13" xMax="621" yMax="942">
      <component glyphName="O" x="0" y="0" flags="0x4"/>
      <component glyphName="hungarumlaut.cap" x="168" y="223" flags="0x4"/>
    </TTGlyph>
    <TTGlyph name="Omacron" xMin="57" yMin="-13" xMax="621" yMax="877">
      <component glyphName="macron.cap" x="118" y="223" flags="0x4"/>
      <component glyphName="O" x="0" y="0" flags="0x4"/>
    </TTGlyph>
    <TTGlyph name="Oslash" xMin="50" yMin="-13" xMax="628" yMax="737">
      <contour>
        <pt x="621" y="363" on="1"/>
        <pt x="621" y="279" on="0"/>
        <pt x="581" y="140" on="0"/>
        <pt x="507" y="41" on="0"/>
        <pt x="402" y="-13" on="0"/>
        <pt x="338" y="-13" on="1"/>
        <pt x="285" y="-13" on="0"/>
        <pt x="197" y="23" on="0"/>
        <pt x="162" y="57" on="1"/>
        <pt x="116" y="-9" on="1"/>
        <pt x="50" y="7" on="1"/>
        <pt x="121" y="107" on="1"/>
        <pt x="90" y="156" on="0"/>
        <pt x="57" y="284" on="0"/>
        <pt x="57" y="361" on="1"/>
        <pt x="57" y="446" on="0"/>
        <pt x="97" y="584" on="0"/>
        <pt x="171" y="683" on="0"/>
        <pt x="275" y="737" on="0"/>
        <pt x="340" y="737" on="1"/>
        <pt x="393" y="737" on="0"/>
        <pt x="481" y="701" on="0"/>
        <pt x="516" y="668" on="1"/>
        <pt x="562" y="733" on="1"/>
        <pt x="628" y="718" on="1"/>
        <pt x="556" y="618" on="1"/>
        <pt x="588" y="570" on="0"/>
        <pt x="621" y="441" on="0"/>
      </contour>
      <contour>
        <pt x="338" y="670" on="1"/>
        <pt x="290" y="670" on="0"/>
        <pt x="214" y="625" on="0"/>
        <pt x="162" y="544" on="0"/>
        <pt x="134" y="431" on="0"/>
        <pt x="134" y="363" on="1"/>
        <pt x="134" y="251" on="0"/>
        <pt x="171" y="172" on="1"/>
        <pt x="474" y="606" on="1"/>
        <pt x="448" y="637" on="0"/>
        <pt x="380" y="670" on="0"/>
      </contour>
      <contour>
        <pt x="545" y="362" on="1"/>
        <pt x="545" y="476" on="0"/>
        <pt x="507" y="554" on="1"/>
        <pt x="204" y="118" on="1"/>
        <pt x="230" y="87" on="0"/>
        <pt x="297" y="54" on="0"/>
        <pt x="339" y="54" on="1"/>
        <pt x="387" y="54" on="0"/>
        <pt x="464" y="99" on="0"/>
        <pt x="517" y="180" on="0"/>
        <pt x="545" y="294" on="0"/>
      </contour>
    </TTGlyph>
    <TTGlyph name="Oslashacute" xMin="50" yMin="-13" xMax="628" yMax="940">
      <component glyphName="Oslash" x="0" y="0" flags="0x204"/>
      <component glyphName="acute.cap" x="175" y="223" flags="0x4"/>
    </TTGlyph>
    <TTGlyph name="Otilde" xMin="57" yMin="-13" xMax="621" yMax="912">
      <component glyphName="tilde.cap" x="121" y="223" flags="0x4"/>
      <component glyphName="O" x="0" y="0" flags="0x4"/>
    </TTGlyph>
    <TTGlyph name="P" xMin="86" yMin="0" xMax="473" yMax="725">
      <contour>
        <pt x="473" y="515" on="1"/>
        <pt x="473" y="461" on="0"/>
        <pt x="437" y="379" on="0"/>
        <pt x="373" y="324" on="0"/>
        <pt x="282" y="296" on="0"/>
        <pt x="227" y="296" on="1"/>
        <pt x="162" y="296" on="1"/>
        <pt x="162" y="0" on="1"/>
        <pt x="86" y="0" on="1"/>
        <pt x="86" y="725" on="1"/>
        <pt x="240" y="725" on="1"/>
        <pt x="351" y="725" on="0"/>
        <pt x="473" y="616" on="0"/>
      </contour>
      <contour>
        <pt x="397" y="513" on="1"/>
        <pt x="397" y="584" on="0"/>
        <pt x="316" y="657" on="0"/>
        <pt x="235" y="657" on="1"/>
        <pt x="162" y="657" on="1"/>
        <pt x="162" y="363" on="1"/>
        <pt x="229" y="363" on="1"/>
        <pt x="312" y="363" on="0"/>
        <pt x="397" y="439" on="0"/>
      </contour>
    </TTGlyph>
    <TTGlyph name="Q" xMin="57" yMin="-144" xMax="621" yMax="737">
      <contour>
        <pt x="621" y="363" on="1"/>
        <pt x="621" y="213" on="0"/>
        <pt x="506" y="30" on="0"/>
        <pt x="409" y="2" on="1"/>
        <pt x="605" y="-73" on="1"/>
        <pt x="590" y="-144" on="1"/>
        <pt x="265" y="-7" on="1"/>
        <pt x="215" y="14" on="0"/>
        <pt x="138" y="78" on="0"/>
        <pt x="85" y="167" on="0"/>
        <pt x="57" y="285" on="0"/>
        <pt x="57" y="361" on="1"/>
        <pt x="57" y="446" on="0"/>
        <pt x="97" y="584" on="0"/>
        <pt x="171" y="683" on="0"/>
        <pt x="276" y="737" on="0"/>
        <pt x="340" y="737" on="1"/>
        <pt x="404" y="737" on="0"/>
        <pt x="508" y="683" on="0"/>
        <pt x="582" y="585" on="0"/>
        <pt x="621" y="447" on="0"/>
      </contour>
      <contour>
        <pt x="544" y="362" on="1"/>
        <pt x="544" y="430" on="0"/>
        <pt x="515" y="543" on="0"/>
        <pt x="462" y="624" on="0"/>
        <pt x="386" y="669" on="0"/>
        <pt x="339" y="669" on="1"/>
        <pt x="291" y="669" on="0"/>
        <pt x="215" y="625" on="0"/>
        <pt x="163" y="544" on="0"/>
        <pt x="135" y="431" on="0"/>
        <pt x="135" y="363" on="1"/>
        <pt x="135" y="295" on="0"/>
        <pt x="163" y="182" on="0"/>
        <pt x="216" y="99" on="0"/>
        <pt x="291" y="53" on="0"/>
        <pt x="339" y="53" on="1"/>
        <pt x="387" y="53" on="0"/>
        <pt x="463" y="99" on="0"/>
        <pt x="516" y="181" on="0"/>
        <pt x="544" y="294" on="0"/>
      </contour>
    </TTGlyph>
    <TTGlyph name="Q.alt" xMin="56" yMin="-15" xMax="636" yMax="737">
      <contour>
        <pt x="621" y="-15" on="1"/>
        <pt x="525" y="70" on="1"/>
        <pt x="489" y="30" on="0"/>
        <pt x="395" y="-13" on="0"/>
        <pt x="338" y="-13" on="1"/>
        <pt x="273" y="-13" on="0"/>
        <pt x="169" y="41" on="0"/>
        <pt x="96" y="139" on="0"/>
        <pt x="56" y="277" on="0"/>
        <pt x="56" y="361" on="1"/>
        <pt x="56" y="446" on="0"/>
        <pt x="96" y="584" on="0"/>
        <pt x="171" y="683" on="0"/>
        <pt x="275" y="737" on="0"/>
        <pt x="340" y="737" on="1"/>
        <pt x="404" y="737" on="0"/>
        <pt x="508" y="683" on="0"/>
        <pt x="581" y="585" on="0"/>
        <pt x="621" y="447" on="0"/>
        <pt x="621" y="363" on="1"/>
        <pt x="621" y="292" on="0"/>
        <pt x="592" y="172" on="0"/>
        <pt x="564" y="124" on="1"/>
        <pt x="636" y="64" on="1"/>
      </contour>
      <contour>
        <pt x="544" y="362" on="1"/>
        <pt x="544" y="430" on="0"/>
        <pt x="515" y="543" on="0"/>
        <pt x="462" y="624" on="0"/>
        <pt x="386" y="669" on="0"/>
        <pt x="339" y="669" on="1"/>
        <pt x="291" y="669" on="0"/>
        <pt x="215" y="625" on="0"/>
        <pt x="162" y="544" on="0"/>
        <pt x="134" y="431" on="0"/>
        <pt x="134" y="363" on="1"/>
        <pt x="134" y="295" on="0"/>
        <pt x="163" y="182" on="0"/>
        <pt x="216" y="101" on="0"/>
        <pt x="292" y="56" on="0"/>
        <pt x="339" y="56" on="1"/>
        <pt x="380" y="56" on="0"/>
        <pt x="446" y="87" on="0"/>
        <pt x="472" y="116" on="1"/>
        <pt x="320" y="247" on="1"/>
        <pt x="405" y="265" on="1"/>
        <pt x="508" y="173" on="1"/>
        <pt x="544" y="248" on="0"/>
      </contour>
    </TTGlyph>
    <TTGlyph name="Q.alt_flat" xMin="56" yMin="-19" xMax="630" yMax="737">
      <contour>
        <pt x="630" y="-19" on="1"/>
        <pt x="525" y="71" on="1"/>
        <pt x="489" y="31" on="0"/>
        <pt x="395" y="-13" on="0"/>
        <pt x="338" y="-13" on="1"/>
        <pt x="273" y="-13" on="0"/>
        <pt x="169" y="41" on="0"/>
        <pt x="96" y="139" on="0"/>
        <pt x="56" y="277" on="0"/>
        <pt x="56" y="361" on="1"/>
        <pt x="56" y="446" on="0"/>
        <pt x="96" y="584" on="0"/>
        <pt x="171" y="683" on="0"/>
        <pt x="275" y="737" on="0"/>
        <pt x="340" y="737" on="1"/>
        <pt x="404" y="737" on="0"/>
        <pt x="508" y="683" on="0"/>
        <pt x="581" y="585" on="0"/>
        <pt x="621" y="447" on="0"/>
        <pt x="621" y="363" on="1"/>
        <pt x="621" y="292" on="0"/>
        <pt x="592" y="174" on="0"/>
        <pt x="565" y="126" on="1"/>
        <pt x="630" y="71" on="1"/>
      </contour>
      <contour>
        <pt x="544" y="362" on="1"/>
        <pt x="544" y="430" on="0"/>
        <pt x="515" y="543" on="0"/>
        <pt x="462" y="624" on="0"/>
        <pt x="386" y="669" on="0"/>
        <pt x="339" y="669" on="1"/>
        <pt x="291" y="669" on="0"/>
        <pt x="215" y="625" on="0"/>
        <pt x="162" y="544" on="0"/>
        <pt x="134" y="431" on="0"/>
        <pt x="134" y="363" on="1"/>
        <pt x="134" y="295" on="0"/>
        <pt x="163" y="182" on="0"/>
        <pt x="216" y="101" on="0"/>
        <pt x="292" y="56" on="0"/>
        <pt x="339" y="56" on="1"/>
        <pt x="420" y="56" on="0"/>
        <pt x="472" y="116" on="1"/>
        <pt x="356" y="211" on="1"/>
        <pt x="356" y="302" on="1"/>
        <pt x="508" y="172" on="1"/>
        <pt x="525" y="210" on="0"/>
        <pt x="544" y="305" on="0"/>
      </contour>
    </TTGlyph>
    <TTGlyph name="R" xMin="86" yMin="-7" xMax="525" yMax="725">
      <contour>
        <pt x="447" y="-7" on="1"/>
        <pt x="239" y="317" on="1"/>
        <pt x="162" y="317" on="1"/>
        <pt x="162" y="0" on="1"/>
        <pt x="86" y="0" on="1"/>
        <pt x="86" y="725" on="1"/>
        <pt x="247" y="725" on="1"/>
        <pt x="356" y="725" on="0"/>
        <pt x="476" y="618" on="0"/>
        <pt x="476" y="523" on="1"/>
        <pt x="476" y="483" on="0"/>
        <pt x="453" y="418" on="0"/>
        <pt x="411" y="369" on="0"/>
        <pt x="353" y="336" on="0"/>
        <pt x="319" y="327" on="1"/>
        <pt x="525" y="10" on="1"/>
      </contour>
      <contour>
        <pt x="400" y="521" on="1"/>
        <pt x="400" y="586" on="0"/>
        <pt x="322" y="657" on="0"/>
        <pt x="244" y="657" on="1"/>
        <pt x="162" y="657" on="1"/>
        <pt x="162" y="381" on="1"/>
        <pt x="234" y="381" on="1"/>
        <pt x="313" y="381" on="0"/>
        <pt x="400" y="455" on="0"/>
      </contour>
    </TTGlyph>
    <TTGlyph name="R.flat" xMin="86" yMin="0" xMax="531" yMax="725">
      <contour>
        <pt x="442" y="0" on="1"/>
        <pt x="239" y="317" on="1"/>
        <pt x="162" y="317" on="1"/>
        <pt x="162" y="0" on="1"/>
        <pt x="86" y="0" on="1"/>
        <pt x="86" y="725" on="1"/>
        <pt x="247" y="725" on="1"/>
        <pt x="356" y="725" on="0"/>
        <pt x="476" y="618" on="0"/>
        <pt x="476" y="523" on="1"/>
        <pt x="476" y="483" on="0"/>
        <pt x="453" y="418" on="0"/>
        <pt x="411" y="369" on="0"/>
        <pt x="353" y="336" on="0"/>
        <pt x="319" y="327" on="1"/>
        <pt x="531" y="0" on="1"/>
      </contour>
      <contour>
        <pt x="400" y="521" on="1"/>
        <pt x="400" y="586" on="0"/>
        <pt x="322" y="657" on="0"/>
        <pt x="244" y="657" on="1"/>
        <pt x="162" y="657" on="1"/>
        <pt x="162" y="381" on="1"/>
        <pt x="234" y="381" on="1"/>
        <pt x="313" y="381" on="0"/>
        <pt x="400" y="455" on="0"/>
      </contour>
    </TTGlyph>
    <TTGlyph name="R_p" xMin="92" yMin="-193" xMax="950" yMax="717">
      <contour>
        <pt x="242" y="315" on="1"/>
        <pt x="165" y="315" on="1"/>
        <pt x="165" y="0" on="1"/>
        <pt x="92" y="0" on="1"/>
        <pt x="92" y="717" on="1"/>
        <pt x="250" y="717" on="1"/>
        <pt x="357" y="717" on="0"/>
        <pt x="478" y="613" on="0"/>
        <pt x="478" y="519" on="1"/>
        <pt x="478" y="479" on="0"/>
        <pt x="454" y="415" on="0"/>
        <pt x="412" y="366" on="0"/>
        <pt x="355" y="333" on="0"/>
        <pt x="321" y="324" on="1"/>
        <pt x="518" y="10" on="1"/>
        <pt x="443" y="-7" on="1"/>
      </contour>
      <contour>
        <pt x="950" y="262" on="1"/>
        <pt x="950" y="194" on="0"/>
        <pt x="916" y="93" on="0"/>
        <pt x="859" y="27" on="0"/>
        <pt x="785" y="-6" on="0"/>
        <pt x="744" y="-6" on="1"/>
        <pt x="714" y="-6" on="0"/>
        <pt x="664" y="6" on="0"/>
        <pt x="641" y="15" on="1"/>
        <pt x="641" y="-181" on="1"/>
        <pt x="568" y="-193" on="1"/>
        <pt x="568" y="501" on="1"/>
        <pt x="624" y="501" on="1"/>
        <pt x="635" y="435" on="1"/>
        <pt x="663" y="467" on="0"/>
        <pt x="729" y="511" on="0"/>
        <pt x="775" y="511" on="1"/>
        <pt x="811" y="511" on="0"/>
        <pt x="875" y="481" on="0"/>
        <pt x="923" y="419" on="0"/>
        <pt x="950" y="325" on="0"/>
      </contour>
      <contour>
        <pt x="878" y="260" on="1"/>
        <pt x="878" y="354" on="0"/>
        <pt x="814" y="445" on="0"/>
        <pt x="765" y="445" on="1"/>
        <pt x="731" y="445" on="0"/>
        <pt x="672" y="404" on="0"/>
        <pt x="641" y="368" on="1"/>
        <pt x="641" y="81" on="1"/>
        <pt x="665" y="69" on="0"/>
        <pt x="711" y="57" on="0"/>
        <pt x="740" y="57" on="1"/>
        <pt x="769" y="57" on="0"/>
        <pt x="820" y="82" on="0"/>
        <pt x="857" y="132" on="0"/>
        <pt x="878" y="208" on="0"/>
      </contour>
      <contour>
        <pt x="238" y="377" on="1"/>
        <pt x="317" y="377" on="0"/>
        <pt x="403" y="451" on="0"/>
        <pt x="403" y="516" on="1"/>
        <pt x="403" y="581" on="0"/>
        <pt x="325" y="652" on="0"/>
        <pt x="247" y="652" on="1"/>
        <pt x="165" y="652" on="1"/>
        <pt x="165" y="377" on="1"/>
      </contour>
    </TTGlyph>
    <TTGlyph name="R_p.flat" xMin="92" yMin="-193" xMax="950" yMax="717">
      <contour>
        <pt x="242" y="315" on="1"/>
        <pt x="165" y="315" on="1"/>
        <pt x="165" y="0" on="1"/>
        <pt x="92" y="0" on="1"/>
        <pt x="92" y="717" on="1"/>
        <pt x="250" y="717" on="1"/>
        <pt x="357" y="717" on="0"/>
        <pt x="478" y="613" on="0"/>
        <pt x="478" y="519" on="1"/>
        <pt x="478" y="479" on="0"/>
        <pt x="454" y="415" on="0"/>
        <pt x="412" y="366" on="0"/>
        <pt x="355" y="333" on="0"/>
        <pt x="321" y="324" on="1"/>
        <pt x="524" y="0" on="1"/>
        <pt x="438" y="0" on="1"/>
      </contour>
      <contour>
        <pt x="950" y="262" on="1"/>
        <pt x="950" y="194" on="0"/>
        <pt x="916" y="93" on="0"/>
        <pt x="859" y="27" on="0"/>
        <pt x="785" y="-6" on="0"/>
        <pt x="744" y="-6" on="1"/>
        <pt x="714" y="-6" on="0"/>
        <pt x="664" y="6" on="0"/>
        <pt x="641" y="15" on="1"/>
        <pt x="641" y="-181" on="1"/>
        <pt x="568" y="-193" on="1"/>
        <pt x="568" y="501" on="1"/>
        <pt x="624" y="501" on="1"/>
        <pt x="635" y="435" on="1"/>
        <pt x="663" y="467" on="0"/>
        <pt x="729" y="511" on="0"/>
        <pt x="775" y="511" on="1"/>
        <pt x="811" y="511" on="0"/>
        <pt x="875" y="481" on="0"/>
        <pt x="923" y="419" on="0"/>
        <pt x="950" y="325" on="0"/>
      </contour>
      <contour>
        <pt x="878" y="260" on="1"/>
        <pt x="878" y="354" on="0"/>
        <pt x="814" y="445" on="0"/>
        <pt x="765" y="445" on="1"/>
        <pt x="731" y="445" on="0"/>
        <pt x="672" y="404" on="0"/>
        <pt x="641" y="368" on="1"/>
        <pt x="641" y="81" on="1"/>
        <pt x="665" y="69" on="0"/>
        <pt x="711" y="57" on="0"/>
        <pt x="740" y="57" on="1"/>
        <pt x="769" y="57" on="0"/>
        <pt x="820" y="82" on="0"/>
        <pt x="857" y="132" on="0"/>
        <pt x="878" y="208" on="0"/>
      </contour>
      <contour>
        <pt x="238" y="377" on="1"/>
        <pt x="317" y="377" on="0"/>
        <pt x="403" y="451" on="0"/>
        <pt x="403" y="516" on="1"/>
        <pt x="403" y="581" on="0"/>
        <pt x="325" y="652" on="0"/>
        <pt x="247" y="652" on="1"/>
        <pt x="165" y="652" on="1"/>
        <pt x="165" y="377" on="1"/>
      </contour>
    </TTGlyph>
    <TTGlyph name="Racute" xMin="86" yMin="-7" xMax="525" yMax="931">
      <component glyphName="R" x="0" y="0" flags="0x204"/>
      <component glyphName="acute.cap" x="94" y="214" flags="0x4"/>
    </TTGlyph>
    <TTGlyph name="Racute.flat" xMin="86" yMin="0" xMax="531" yMax="931">
      <component glyphName="acute.cap" x="94" y="214" flags="0x4"/>
      <component glyphName="R.flat" x="0" y="0" flags="0x4"/>
    </TTGlyph>
    <TTGlyph name="Rcaron" xMin="86" yMin="-7" xMax="525" yMax="926">
      <component glyphName="caron.cap" x="39" y="214" flags="0x4"/>
      <component glyphName="R" x="0" y="0" flags="0x4"/>
    </TTGlyph>
    <TTGlyph name="Rcaron.flat" xMin="86" yMin="0" xMax="531" yMax="926">
      <component glyphName="caron.cap" x="39" y="214" flags="0x4"/>
      <component glyphName="R.flat" x="0" y="0" flags="0x4"/>
    </TTGlyph>
    <TTGlyph name="Rcommaaccent" xMin="86" yMin="-236" xMax="525" yMax="725">
      <component glyphName="R" x="0" y="0" flags="0x204"/>
      <component glyphName="commaaccent.cap" x="67" y="5" flags="0x4"/>
    </TTGlyph>
    <TTGlyph name="Rcommaaccent.flat" xMin="86" yMin="-236" xMax="531" yMax="725">
      <component glyphName="R.flat" x="0" y="0" flags="0x204"/>
      <component glyphName="commaaccent.cap" x="67" y="5" flags="0x4"/>
    </TTGlyph>
    <TTGlyph name="S" xMin="54" yMin="-8" xMax="439" yMax="732">
      <contour>
        <pt x="439" y="187" on="1"/>
        <pt x="439" y="143" on="0"/>
        <pt x="408" y="71" on="0"/>
        <pt x="352" y="20" on="0"/>
        <pt x="274" y="-8" on="0"/>
        <pt x="228" y="-8" on="1"/>
        <pt x="177" y="-8" on="0"/>
        <pt x="89" y="17" on="0"/>
        <pt x="54" y="36" on="1"/>
        <pt x="65" y="113" on="1"/>
        <pt x="98" y="92" on="0"/>
        <pt x="183" y="60" on="0"/>
        <pt x="231" y="60" on="1"/>
        <pt x="290" y="60" on="0"/>
        <pt x="363" y="125" on="0"/>
        <pt x="363" y="181" on="1"/>
        <pt x="363" y="206" on="0"/>
        <pt x="350" y="247" on="0"/>
        <pt x="319" y="284" on="0"/>
        <pt x="270" y="321" on="0"/>
        <pt x="234" y="342" on="1"/>
        <pt x="190" y="367" on="0"/>
        <pt x="127" y="412" on="0"/>
        <pt x="86" y="461" on="0"/>
        <pt x="66" y="518" on="0"/>
        <pt x="66" y="555" on="1"/>
        <pt x="66" y="594" on="0"/>
        <pt x="95" y="660" on="0"/>
        <pt x="147" y="706" on="0"/>
        <pt x="218" y="732" on="0"/>
        <pt x="261" y="732" on="1"/>
        <pt x="307" y="732" on="0"/>
        <pt x="378" y="713" on="0"/>
        <pt x="406" y="696" on="1"/>
        <pt x="394" y="620" on="1"/>
        <pt x="365" y="640" on="0"/>
        <pt x="298" y="665" on="0"/>
        <pt x="259" y="665" on="1"/>
        <pt x="203" y="665" on="0"/>
        <pt x="142" y="604" on="0"/>
        <pt x="142" y="559" on="1"/>
        <pt x="142" y="535" on="0"/>
        <pt x="155" y="498" on="0"/>
        <pt x="186" y="463" on="0"/>
        <pt x="236" y="429" on="0"/>
        <pt x="272" y="408" on="1"/>
        <pt x="316" y="382" on="0"/>
        <pt x="379" y="334" on="0"/>
        <pt x="420" y="283" on="0"/>
        <pt x="439" y="224" on="0"/>
      </contour>
    </TTGlyph>
    <TTGlyph name="Sacute" xMin="54" yMin="-8" xMax="439" yMax="940">
      <component glyphName="S" x="0" y="0" flags="0x4"/>
      <component glyphName="acute.cap" x="85" y="223" flags="0x4"/>
    </TTGlyph>
    <TTGlyph name="Scaron" xMin="54" yMin="-8" xMax="439" yMax="935">
      <component glyphName="S" x="0" y="0" flags="0x4"/>
      <component glyphName="caron.cap" x="31" y="223" flags="0x4"/>
    </TTGlyph>
    <TTGlyph name="Scedilla" xMin="54" yMin="-199" xMax="439" yMax="732">
      <component glyphName="S" x="0" y="0" flags="0x4"/>
      <component glyphName="cedilla.cap" x="12" y="-2" flags="0x4"/>
    </TTGlyph>
    <TTGlyph name="Scommaaccent" xMin="54" yMin="-243" xMax="439" yMax="732">
      <component glyphName="S" x="0" y="0" flags="0x4"/>
      <component glyphName="commaaccent.cap" x="36" y="-2" flags="0x4"/>
    </TTGlyph>
    <TTGlyph name="T" xMin="32" yMin="0" xMax="507" yMax="725">
      <contour>
        <pt x="304" y="656" on="1"/>
        <pt x="304" y="0" on="1"/>
        <pt x="229" y="0" on="1"/>
        <pt x="229" y="656" on="1"/>
        <pt x="32" y="656" on="1"/>
        <pt x="32" y="725" on="1"/>
        <pt x="496" y="725" on="1"/>
        <pt x="507" y="656" on="1"/>
      </contour>
    </TTGlyph>
    <TTGlyph name="T.flat" xMin="32" yMin="0" xMax="502" yMax="725">
      <contour>
        <pt x="304" y="656" on="1"/>
        <pt x="304" y="0" on="1"/>
        <pt x="229" y="0" on="1"/>
        <pt x="229" y="656" on="1"/>
        <pt x="32" y="656" on="1"/>
        <pt x="32" y="725" on="1"/>
        <pt x="502" y="725" on="1"/>
        <pt x="502" y="656" on="1"/>
      </contour>
    </TTGlyph>
    <TTGlyph name="Tcaron" xMin="32" yMin="0" xMax="507" yMax="926">
      <component glyphName="caron.cap" x="47" y="214" flags="0x4"/>
      <component glyphName="T" x="0" y="0" flags="0x4"/>
    </TTGlyph>
    <TTGlyph name="Tcaron.flat" xMin="32" yMin="0" xMax="502" yMax="926">
      <component glyphName="caron.cap" x="47" y="214" flags="0x4"/>
      <component glyphName="T.flat" x="0" y="0" flags="0x4"/>
    </TTGlyph>
    <TTGlyph name="Tcommaaccent" xMin="32" yMin="-241" xMax="507" yMax="725">
      <component glyphName="T" x="0" y="0" flags="0x204"/>
      <component glyphName="commaaccent.cap" x="55" y="0" flags="0x4"/>
    </TTGlyph>
    <TTGlyph name="Tcommaaccent.flat" xMin="32" yMin="-241" xMax="502" yMax="725">
      <component glyphName="T.flat" x="0" y="0" flags="0x204"/>
      <component glyphName="commaaccent.cap" x="55" y="0" flags="0x4"/>
    </TTGlyph>
    <TTGlyph name="Thorn" xMin="86" yMin="0" xMax="474" yMax="725">
      <contour>
        <pt x="474" y="375" on="1"/>
        <pt x="474" y="321" on="0"/>
        <pt x="438" y="240" on="0"/>
        <pt x="374" y="184" on="0"/>
        <pt x="283" y="156" on="0"/>
        <pt x="228" y="156" on="1"/>
        <pt x="162" y="156" on="1"/>
        <pt x="162" y="0" on="1"/>
        <pt x="86" y="0" on="1"/>
        <pt x="86" y="725" on="1"/>
        <pt x="162" y="725" on="1"/>
        <pt x="162" y="585" on="1"/>
        <pt x="241" y="585" on="1"/>
        <pt x="351" y="585" on="0"/>
        <pt x="474" y="477" on="0"/>
      </contour>
      <contour>
        <pt x="398" y="374" on="1"/>
        <pt x="398" y="444" on="0"/>
        <pt x="318" y="518" on="0"/>
        <pt x="237" y="518" on="1"/>
        <pt x="162" y="518" on="1"/>
        <pt x="162" y="224" on="1"/>
        <pt x="230" y="224" on="1"/>
        <pt x="312" y="224" on="0"/>
        <pt x="398" y="300" on="0"/>
      </contour>
    </TTGlyph>
    <TTGlyph name="U" xMin="79" yMin="-11" xMax="555" yMax="725">
      <contour>
        <pt x="555" y="250" on="1"/>
        <pt x="555" y="129" on="0"/>
        <pt x="431" y="-11" on="0"/>
        <pt x="316" y="-11" on="1"/>
        <pt x="258" y="-11" on="0"/>
        <pt x="170" y="25" on="0"/>
        <pt x="110" y="93" on="0"/>
        <pt x="79" y="187" on="0"/>
        <pt x="79" y="246" on="1"/>
        <pt x="79" y="725" on="1"/>
        <pt x="155" y="725" on="1"/>
        <pt x="155" y="253" on="1"/>
        <pt x="155" y="209" on="0"/>
        <pt x="174" y="137" on="0"/>
        <pt x="213" y="86" on="0"/>
        <pt x="275" y="57" on="0"/>
        <pt x="317" y="57" on="1"/>
        <pt x="399" y="57" on="0"/>
        <pt x="480" y="161" on="0"/>
        <pt x="480" y="250" on="1"/>
        <pt x="480" y="725" on="1"/>
        <pt x="555" y="725" on="1"/>
      </contour>
    </TTGlyph>
    <TTGlyph name="U.alt" xMin="82" yMin="-8" xMax="554" yMax="725">
      <contour>
        <pt x="484" y="75" on="1"/>
        <pt x="437" y="38" on="0"/>
        <pt x="337" y="-8" on="0"/>
        <pt x="282" y="-8" on="1"/>
        <pt x="237" y="-8" on="0"/>
        <pt x="163" y="17" on="0"/>
        <pt x="110" y="68" on="0"/>
        <pt x="82" y="147" on="0"/>
        <pt x="82" y="201" on="1"/>
        <pt x="82" y="725" on="1"/>
        <pt x="158" y="725" on="1"/>
        <pt x="158" y="207" on="1"/>
        <pt x="158" y="132" on="0"/>
        <pt x="226" y="60" on="0"/>
        <pt x="289" y="60" on="1"/>
        <pt x="338" y="60" on="0"/>
        <pt x="430" y="106" on="0"/>
        <pt x="478" y="146" on="1"/>
        <pt x="478" y="725" on="1"/>
        <pt x="554" y="725" on="1"/>
        <pt x="554" y="0" on="1"/>
        <pt x="496" y="0" on="1"/>
      </contour>
    </TTGlyph>
    <TTGlyph name="Uacute" xMin="79" yMin="-11" xMax="555" yMax="925">
      <component glyphName="acute.cap" x="150" y="208" flags="0x4"/>
      <component glyphName="U" x="0" y="0" flags="0x4"/>
    </TTGlyph>
    <TTGlyph name="Uacute.alt" xMin="82" yMin="-8" xMax="554" yMax="925">
      <component glyphName="acute.cap" x="151" y="208" flags="0x4"/>
      <component glyphName="U.alt" x="0" y="0" flags="0x4"/>
    </TTGlyph>
    <TTGlyph name="Ubreve" xMin="79" yMin="-11" xMax="555" yMax="896">
      <component glyphName="breve.cap" x="96" y="202" flags="0x4"/>
      <component glyphName="U" x="0" y="0" flags="0x4"/>
    </TTGlyph>
    <TTGlyph name="Ubreve.alt" xMin="82" yMin="-8" xMax="554" yMax="896">
      <component glyphName="breve.cap" x="97" y="202" flags="0x4"/>
      <component glyphName="U.alt" x="0" y="0" flags="0x4"/>
    </TTGlyph>
    <TTGlyph name="Ucircumflex" xMin="79" yMin="-11" xMax="555" yMax="921">
      <component glyphName="U" x="0" y="0" flags="0x204"/>
      <component glyphName="circumflex.cap" x="96" y="208" flags="0x4"/>
    </TTGlyph>
    <TTGlyph name="Ucircumflex.alt" xMin="82" yMin="-8" xMax="554" yMax="921">
      <component glyphName="circumflex.cap" x="97" y="208" flags="0x4"/>
      <component glyphName="U.alt" x="0" y="0" flags="0x4"/>
    </TTGlyph>
    <TTGlyph name="Udieresis" xMin="79" yMin="-11" xMax="555" yMax="875">
      <component glyphName="dieresis.cap" x="96" y="208" flags="0x4"/>
      <component glyphName="U" x="0" y="0" flags="0x4"/>
    </TTGlyph>
    <TTGlyph name="Udieresis.alt" xMin="82" yMin="-8" xMax="554" yMax="875">
      <component glyphName="dieresis.cap" x="97" y="208" flags="0x4"/>
      <component glyphName="U.alt" x="0" y="0" flags="0x4"/>
    </TTGlyph>
    <TTGlyph name="Ugrave" xMin="79" yMin="-11" xMax="555" yMax="925">
      <component glyphName="grave.cap" x="40" y="208" flags="0x4"/>
      <component glyphName="U" x="0" y="0" flags="0x4"/>
    </TTGlyph>
    <TTGlyph name="Ugrave.alt" xMin="82" yMin="-8" xMax="554" yMax="925">
      <component glyphName="grave.cap" x="42" y="208" flags="0x4"/>
      <component glyphName="U.alt" x="0" y="0" flags="0x4"/>
    </TTGlyph>
    <TTGlyph name="Uhungarumlaut" xMin="79" yMin="-11" xMax="555" yMax="927">
      <component glyphName="U" x="0" y="0" flags="0x204"/>
      <component glyphName="hungarumlaut.cap" x="146" y="208" flags="0x4"/>
    </TTGlyph>
    <TTGlyph name="Uhungarumlaut.alt" xMin="82" yMin="-8" xMax="554" yMax="927">
      <component glyphName="U.alt" x="0" y="0" flags="0x4"/>
      <component glyphName="hungarumlaut.cap" x="148" y="208" flags="0x4"/>
    </TTGlyph>
    <TTGlyph name="Umacron" xMin="79" yMin="-11" xMax="555" yMax="862">
      <component glyphName="macron.cap" x="96" y="208" flags="0x4"/>
      <component glyphName="U" x="0" y="0" flags="0x4"/>
    </TTGlyph>
    <TTGlyph name="Umacron.alt" xMin="82" yMin="-8" xMax="554" yMax="862">
      <component glyphName="macron.cap" x="97" y="208" flags="0x4"/>
      <component glyphName="U.alt" x="0" y="0" flags="0x4"/>
    </TTGlyph>
    <TTGlyph name="Uogonek" xMin="79" yMin="-181" xMax="555" yMax="725">
      <contour>
        <pt x="322" y="-181" on="1"/>
        <pt x="285" y="-181" on="0"/>
        <pt x="245" y="-146" on="0"/>
        <pt x="245" y="-113" on="1"/>
        <pt x="245" y="-89" on="0"/>
        <pt x="270" y="-41" on="0"/>
        <pt x="293" y="-10" on="1"/>
        <pt x="188" y="-3" on="0"/>
        <pt x="79" y="134" on="0"/>
        <pt x="79" y="246" on="1"/>
        <pt x="79" y="725" on="1"/>
        <pt x="155" y="725" on="1"/>
        <pt x="155" y="253" on="1"/>
        <pt x="155" y="209" on="0"/>
        <pt x="174" y="137" on="0"/>
        <pt x="213" y="86" on="0"/>
        <pt x="275" y="57" on="0"/>
        <pt x="317" y="57" on="1"/>
        <pt x="399" y="57" on="0"/>
        <pt x="480" y="161" on="0"/>
        <pt x="480" y="250" on="1"/>
        <pt x="480" y="725" on="1"/>
        <pt x="555" y="725" on="1"/>
        <pt x="555" y="250" on="1"/>
        <pt x="555" y="138" on="0"/>
        <pt x="449" y="2" on="0"/>
        <pt x="350" y="-9" on="1"/>
        <pt x="338" y="-26" on="1"/>
        <pt x="322" y="-49" on="0"/>
        <pt x="306" y="-80" on="0"/>
        <pt x="306" y="-97" on="1"/>
        <pt x="306" y="-129" on="0"/>
        <pt x="345" y="-129" on="1"/>
        <pt x="355" y="-129" on="0"/>
        <pt x="375" y="-125" on="0"/>
        <pt x="386" y="-123" on="1"/>
        <pt x="387" y="-168" on="1"/>
        <pt x="356" y="-181" on="0"/>
      </contour>
    </TTGlyph>
    <TTGlyph name="Uogonek.alt" xMin="82" yMin="-181" xMax="569" yMax="725">
      <contour>
        <pt x="569" y="-168" on="1"/>
        <pt x="538" y="-181" on="0"/>
        <pt x="504" y="-181" on="1"/>
        <pt x="467" y="-181" on="0"/>
        <pt x="427" y="-146" on="0"/>
        <pt x="427" y="-113" on="1"/>
        <pt x="427" y="-87" on="0"/>
        <pt x="455" y="-37" on="0"/>
        <pt x="481" y="-3" on="1"/>
        <pt x="494" y="13" on="1"/>
        <pt x="484" y="75" on="1"/>
        <pt x="437" y="38" on="0"/>
        <pt x="337" y="-8" on="0"/>
        <pt x="282" y="-8" on="1"/>
        <pt x="237" y="-8" on="0"/>
        <pt x="163" y="17" on="0"/>
        <pt x="110" y="68" on="0"/>
        <pt x="82" y="147" on="0"/>
        <pt x="82" y="201" on="1"/>
        <pt x="82" y="725" on="1"/>
        <pt x="158" y="725" on="1"/>
        <pt x="158" y="207" on="1"/>
        <pt x="158" y="132" on="0"/>
        <pt x="226" y="60" on="0"/>
        <pt x="289" y="60" on="1"/>
        <pt x="338" y="60" on="0"/>
        <pt x="430" y="106" on="0"/>
        <pt x="478" y="146" on="1"/>
        <pt x="478" y="725" on="1"/>
        <pt x="554" y="725" on="1"/>
        <pt x="554" y="0" on="1"/>
        <pt x="538" y="0" on="1"/>
        <pt x="520" y="-26" on="1"/>
        <pt x="504" y="-49" on="0"/>
        <pt x="488" y="-80" on="0"/>
        <pt x="488" y="-97" on="1"/>
        <pt x="488" y="-129" on="0"/>
        <pt x="527" y="-129" on="1"/>
        <pt x="537" y="-129" on="0"/>
        <pt x="557" y="-125" on="0"/>
        <pt x="568" y="-123" on="1"/>
        <pt x="569" y="-168" on="1"/>
      </contour>
    </TTGlyph>
    <TTGlyph name="Uring" xMin="79" yMin="-11" xMax="555" yMax="958">
      <component glyphName="U" x="0" y="0" flags="0x204"/>
      <component glyphName="ring.cap" x="95" y="197" flags="0x4"/>
    </TTGlyph>
    <TTGlyph name="Uring.alt" xMin="82" yMin="-8" xMax="554" yMax="958">
      <component glyphName="ring.cap" x="96" y="197" flags="0x4"/>
      <component glyphName="U.alt" x="0" y="0" flags="0x4"/>
    </TTGlyph>
    <TTGlyph name="V" xMin="38" yMin="-4" xMax="585" yMax="731">
      <contour>
        <pt x="346" y="-4" on="1"/>
        <pt x="274" y="-4" on="1"/>
        <pt x="38" y="715" on="1"/>
        <pt x="114" y="731" on="1"/>
        <pt x="312" y="100" on="1"/>
        <pt x="506" y="725" on="1"/>
        <pt x="585" y="725" on="1"/>
      </contour>
    </TTGlyph>
    <TTGlyph name="V.flat" xMin="37" yMin="-4" xMax="587" yMax="725">
      <contour>
        <pt x="348" y="-4" on="1"/>
        <pt x="276" y="-4" on="1"/>
        <pt x="37" y="725" on="1"/>
        <pt x="117" y="725" on="1"/>
        <pt x="313" y="100" on="1"/>
        <pt x="508" y="725" on="1"/>
        <pt x="587" y="725" on="1"/>
      </contour>
    </TTGlyph>
    <TTGlyph name="W" xMin="45" yMin="-3" xMax="898" yMax="731">
      <contour>
        <pt x="712" y="-3" on="1"/>
        <pt x="643" y="-3" on="1"/>
        <pt x="469" y="613" on="1"/>
        <pt x="296" y="-3" on="1"/>
        <pt x="229" y="-3" on="1"/>
        <pt x="45" y="715" on="1"/>
        <pt x="120" y="731" on="1"/>
        <pt x="266" y="124" on="1"/>
        <pt x="432" y="725" on="1"/>
        <pt x="509" y="725" on="1"/>
        <pt x="678" y="124" on="1"/>
        <pt x="822" y="725" on="1"/>
        <pt x="898" y="725" on="1"/>
      </contour>
    </TTGlyph>
    <TTGlyph name="W.alt" xMin="39" yMin="-3" xMax="886" yMax="731">
      <contour>
        <pt x="665" y="-3" on="1"/>
        <pt x="594" y="-3" on="1"/>
        <pt x="464" y="413" on="1"/>
        <pt x="331" y="-3" on="1"/>
        <pt x="261" y="-3" on="1"/>
        <pt x="39" y="715" on="1"/>
        <pt x="115" y="731" on="1"/>
        <pt x="299" y="107" on="1"/>
        <pt x="430" y="518" on="1"/>
        <pt x="368" y="715" on="1"/>
        <pt x="444" y="731" on="1"/>
        <pt x="631" y="107" on="1"/>
        <pt x="808" y="725" on="1"/>
        <pt x="886" y="725" on="1"/>
      </contour>
    </TTGlyph>
    <TTGlyph name="W.alt_flat" xMin="38" yMin="-3" xMax="888" yMax="725">
      <contour>
        <pt x="666" y="-3" on="1"/>
        <pt x="595" y="-3" on="1"/>
        <pt x="465" y="413" on="1"/>
        <pt x="333" y="-3" on="1"/>
        <pt x="262" y="-3" on="1"/>
        <pt x="38" y="725" on="1"/>
        <pt x="118" y="725" on="1"/>
        <pt x="300" y="107" on="1"/>
        <pt x="431" y="519" on="1"/>
        <pt x="367" y="725" on="1"/>
        <pt x="448" y="725" on="1"/>
        <pt x="633" y="107" on="1"/>
        <pt x="810" y="725" on="1"/>
        <pt x="888" y="725" on="1"/>
      </contour>
    </TTGlyph>
    <TTGlyph name="W.flat" xMin="43" yMin="-3" xMax="898" yMax="725">
      <contour>
        <pt x="712" y="-3" on="1"/>
        <pt x="643" y="-3" on="1"/>
        <pt x="469" y="613" on="1"/>
        <pt x="296" y="-3" on="1"/>
        <pt x="229" y="-3" on="1"/>
        <pt x="43" y="725" on="1"/>
        <pt x="122" y="725" on="1"/>
        <pt x="266" y="124" on="1"/>
        <pt x="432" y="725" on="1"/>
        <pt x="509" y="725" on="1"/>
        <pt x="678" y="124" on="1"/>
        <pt x="822" y="725" on="1"/>
        <pt x="898" y="725" on="1"/>
      </contour>
    </TTGlyph>
    <TTGlyph name="Wacute" xMin="45" yMin="-3" xMax="898" yMax="931">
      <component glyphName="acute.cap" x="303" y="214" flags="0x4"/>
      <component glyphName="W" x="0" y="0" flags="0x4"/>
    </TTGlyph>
    <TTGlyph name="Wacute.alt" xMin="39" yMin="-3" xMax="886" yMax="931">
      <component glyphName="acute.cap" x="285" y="214" flags="0x4"/>
      <component glyphName="W.alt" x="0" y="0" flags="0x4"/>
    </TTGlyph>
    <TTGlyph name="Wacute.alt_flat" xMin="38" yMin="-3" xMax="888" yMax="931">
      <component glyphName="acute.cap" x="286" y="214" flags="0x4"/>
      <component glyphName="W.alt_flat" x="0" y="0" flags="0x4"/>
    </TTGlyph>
    <TTGlyph name="Wacute.flat" xMin="43" yMin="-3" xMax="898" yMax="931">
      <component glyphName="acute.cap" x="303" y="214" flags="0x4"/>
      <component glyphName="W.flat" x="0" y="0" flags="0x4"/>
    </TTGlyph>
    <TTGlyph name="Wcircumflex" xMin="45" yMin="-3" xMax="898" yMax="926">
      <component glyphName="W" x="0" y="0" flags="0x204"/>
      <component glyphName="circumflex.cap" x="249" y="213" flags="0x4"/>
    </TTGlyph>
    <TTGlyph name="Wcircumflex.alt" xMin="39" yMin="-3" xMax="886" yMax="927">
      <component glyphName="W.alt" x="0" y="0" flags="0x204"/>
      <component glyphName="circumflex.cap" x="231" y="214" flags="0x4"/>
    </TTGlyph>
    <TTGlyph name="Wcircumflex.alt_flat" xMin="38" yMin="-3" xMax="888" yMax="927">
      <component glyphName="W.alt_flat" x="0" y="0" flags="0x204"/>
      <component glyphName="circumflex.cap" x="232" y="214" flags="0x4"/>
    </TTGlyph>
    <TTGlyph name="Wcircumflex.flat" xMin="43" yMin="-3" xMax="898" yMax="926">
      <component glyphName="W.flat" x="0" y="0" flags="0x204"/>
      <component glyphName="circumflex.cap" x="249" y="213" flags="0x4"/>
    </TTGlyph>
    <TTGlyph name="Wdieresis" xMin="45" yMin="-3" xMax="898" yMax="881">
      <component glyphName="dieresis.cap" x="248" y="214" flags="0x4"/>
      <component glyphName="W" x="0" y="0" flags="0x4"/>
    </TTGlyph>
    <TTGlyph name="Wdieresis.alt" xMin="39" yMin="-3" xMax="886" yMax="881">
      <component glyphName="dieresis.cap" x="230" y="214" flags="0x4"/>
      <component glyphName="W.alt" x="0" y="0" flags="0x4"/>
    </TTGlyph>
    <TTGlyph name="Wdieresis.alt_flat" xMin="38" yMin="-3" xMax="888" yMax="881">
      <component glyphName="dieresis.cap" x="232" y="214" flags="0x4"/>
      <component glyphName="W.alt_flat" x="0" y="0" flags="0x4"/>
    </TTGlyph>
    <TTGlyph name="Wdieresis.flat" xMin="43" yMin="-3" xMax="898" yMax="881">
      <component glyphName="dieresis.cap" x="248" y="214" flags="0x4"/>
      <component glyphName="W.flat" x="0" y="0" flags="0x4"/>
    </TTGlyph>
    <TTGlyph name="Wgrave" xMin="45" yMin="-3" xMax="898" yMax="931">
      <component glyphName="grave.cap" x="193" y="214" flags="0x4"/>
      <component glyphName="W" x="0" y="0" flags="0x4"/>
    </TTGlyph>
    <TTGlyph name="Wgrave.alt" xMin="39" yMin="-3" xMax="886" yMax="931">
      <component glyphName="grave.cap" x="176" y="214" flags="0x4"/>
      <component glyphName="W.alt" x="0" y="0" flags="0x4"/>
    </TTGlyph>
    <TTGlyph name="Wgrave.alt_flat" xMin="38" yMin="-3" xMax="888" yMax="931">
      <component glyphName="grave.cap" x="176" y="214" flags="0x4"/>
      <component glyphName="W.alt_flat" x="0" y="0" flags="0x4"/>
    </TTGlyph>
    <TTGlyph name="Wgrave.flat" xMin="43" yMin="-3" xMax="898" yMax="931">
      <component glyphName="grave.cap" x="193" y="214" flags="0x4"/>
      <component glyphName="W.flat" x="0" y="0" flags="0x4"/>
    </TTGlyph>
    <TTGlyph name="X" xMin="32" yMin="-6" xMax="553" yMax="731">
      <contour>
        <pt x="477" y="-6" on="1"/>
        <pt x="292" y="317" on="1"/>
        <pt x="114" y="0" on="1"/>
        <pt x="32" y="0" on="1"/>
        <pt x="252" y="376" on="1"/>
        <pt x="52" y="715" on="1"/>
        <pt x="128" y="731" on="1"/>
        <pt x="294" y="438" on="1"/>
        <pt x="455" y="725" on="1"/>
        <pt x="536" y="725" on="1"/>
        <pt x="335" y="380" on="1"/>
        <pt x="553" y="10" on="1"/>
      </contour>
    </TTGlyph>
    <TTGlyph name="X.flat" xMin="32" yMin="0" xMax="553" yMax="725">
      <contour>
        <pt x="468" y="0" on="1"/>
        <pt x="291" y="314" on="1"/>
        <pt x="114" y="0" on="1"/>
        <pt x="32" y="0" on="1"/>
        <pt x="251" y="374" on="1"/>
        <pt x="48" y="725" on="1"/>
        <pt x="133" y="725" on="1"/>
        <pt x="294" y="437" on="1"/>
        <pt x="455" y="725" on="1"/>
        <pt x="537" y="725" on="1"/>
        <pt x="334" y="378" on="1"/>
        <pt x="553" y="0" on="1"/>
      </contour>
    </TTGlyph>
    <TTGlyph name="Y" xMin="29" yMin="0" xMax="552" yMax="731">
      <contour>
        <pt x="327" y="296" on="1"/>
        <pt x="327" y="0" on="1"/>
        <pt x="251" y="0" on="1"/>
        <pt x="251" y="296" on="1"/>
        <pt x="29" y="716" on="1"/>
        <pt x="106" y="731" on="1"/>
        <pt x="290" y="371" on="1"/>
        <pt x="468" y="725" on="1"/>
        <pt x="552" y="725" on="1"/>
      </contour>
    </TTGlyph>
    <TTGlyph name="Y.flat" xMin="27" yMin="0" xMax="554" yMax="725">
      <contour>
        <pt x="328" y="296" on="1"/>
        <pt x="328" y="0" on="1"/>
        <pt x="252" y="0" on="1"/>
        <pt x="252" y="296" on="1"/>
        <pt x="27" y="725" on="1"/>
        <pt x="113" y="725" on="1"/>
        <pt x="292" y="371" on="1"/>
        <pt x="470" y="725" on="1"/>
        <pt x="554" y="725" on="1"/>
      </contour>
    </TTGlyph>
    <TTGlyph name="Yacute" xMin="29" yMin="0" xMax="552" yMax="923">
      <component glyphName="Y" x="0" y="0" flags="0x204"/>
      <component glyphName="acute.cap" x="123" y="206" flags="0x4"/>
    </TTGlyph>
    <TTGlyph name="Yacute.flat" xMin="27" yMin="0" xMax="554" yMax="923">
      <component glyphName="acute.cap" x="124" y="206" flags="0x4"/>
      <component glyphName="Y.flat" x="0" y="0" flags="0x4"/>
    </TTGlyph>
    <TTGlyph name="Ycircumflex" xMin="29" yMin="0" xMax="552" yMax="921">
      <component glyphName="Y" x="0" y="0" flags="0x204"/>
      <component glyphName="circumflex.cap" x="69" y="208" flags="0x4"/>
    </TTGlyph>
    <TTGlyph name="Ycircumflex.flat" xMin="27" yMin="0" xMax="554" yMax="921">
      <component glyphName="Y.flat" x="0" y="0" flags="0x204"/>
      <component glyphName="circumflex.cap" x="70" y="208" flags="0x4"/>
    </TTGlyph>
    <TTGlyph name="Ydieresis" xMin="29" yMin="0" xMax="552" yMax="875">
      <component glyphName="Y" x="0" y="0" flags="0x204"/>
      <component glyphName="dieresis.cap" x="69" y="208" flags="0x4"/>
    </TTGlyph>
    <TTGlyph name="Ydieresis.flat" xMin="27" yMin="0" xMax="554" yMax="875">
      <component glyphName="dieresis.cap" x="69" y="208" flags="0x4"/>
      <component glyphName="Y.flat" x="0" y="0" flags="0x4"/>
    </TTGlyph>
    <TTGlyph name="Ygrave" xMin="29" yMin="0" xMax="552" yMax="923">
      <component glyphName="Y" x="0" y="0" flags="0x204"/>
      <component glyphName="grave.cap" x="14" y="206" flags="0x4"/>
    </TTGlyph>
    <TTGlyph name="Ygrave.flat" xMin="27" yMin="0" xMax="554" yMax="923">
      <component glyphName="grave.cap" x="14" y="206" flags="0x4"/>
      <component glyphName="Y.flat" x="0" y="0" flags="0x4"/>
    </TTGlyph>
    <TTGlyph name="Z" xMin="51" yMin="0" xMax="505" yMax="725">
      <contour>
        <pt x="51" y="0" on="1"/>
        <pt x="51" y="55" on="1"/>
        <pt x="411" y="658" on="1"/>
        <pt x="80" y="658" on="1"/>
        <pt x="69" y="725" on="1"/>
        <pt x="500" y="725" on="1"/>
        <pt x="500" y="669" on="1"/>
        <pt x="140" y="67" on="1"/>
        <pt x="495" y="67" on="1"/>
        <pt x="505" y="0" on="1"/>
      </contour>
    </TTGlyph>
    <TTGlyph name="Z.flat" xMin="51" yMin="0" xMax="500" yMax="725">
      <contour>
        <pt x="51" y="0" on="1"/>
        <pt x="51" y="55" on="1"/>
        <pt x="411" y="658" on="1"/>
        <pt x="74" y="658" on="1"/>
        <pt x="74" y="725" on="1"/>
        <pt x="500" y="725" on="1"/>
        <pt x="500" y="669" on="1"/>
        <pt x="140" y="67" on="1"/>
        <pt x="499" y="67" on="1"/>
        <pt x="499" y="0" on="1"/>
      </contour>
    </TTGlyph>
    <TTGlyph name="Zacute" xMin="51" yMin="0" xMax="505" yMax="931">
      <component glyphName="Z" x="0" y="0" flags="0x204"/>
      <component glyphName="acute.cap" x="113" y="214" flags="0x4"/>
    </TTGlyph>
    <TTGlyph name="Zacute.flat" xMin="51" yMin="0" xMax="500" yMax="931">
      <component glyphName="acute.cap" x="113" y="214" flags="0x4"/>
      <component glyphName="Z.flat" x="0" y="0" flags="0x4"/>
    </TTGlyph>
    <TTGlyph name="Zcaron" xMin="51" yMin="0" xMax="505" yMax="926">
      <component glyphName="caron.cap" x="58" y="214" flags="0x4"/>
      <component glyphName="Z" x="0" y="0" flags="0x4"/>
    </TTGlyph>
    <TTGlyph name="Zcaron.flat" xMin="51" yMin="0" xMax="500" yMax="926">
      <component glyphName="caron.cap" x="58" y="214" flags="0x4"/>
      <component glyphName="Z.flat" x="0" y="0" flags="0x4"/>
    </TTGlyph>
    <TTGlyph name="Zdotaccent" xMin="51" yMin="0" xMax="505" yMax="881">
      <component glyphName="dotaccent.cap" x="58" y="214" flags="0x4"/>
      <component glyphName="Z" x="0" y="0" flags="0x4"/>
    </TTGlyph>
    <TTGlyph name="Zdotaccent.flat" xMin="51" yMin="0" xMax="500" yMax="881">
      <component glyphName="dotaccent.cap" x="58" y="214" flags="0x4"/>
      <component glyphName="Z.flat" x="0" y="0" flags="0x4"/>
    </TTGlyph>
    <TTGlyph name="a" xMin="47" yMin="-11" xMax="420" yMax="543">
      <contour>
        <pt x="363" y="0" on="1"/>
        <pt x="353" y="66" on="1"/>
        <pt x="317" y="31" on="0"/>
        <pt x="239" y="-11" on="0"/>
        <pt x="189" y="-11" on="1"/>
        <pt x="128" y="-11" on="0"/>
        <pt x="47" y="65" on="0"/>
        <pt x="47" y="134" on="1"/>
        <pt x="47" y="225" on="0"/>
        <pt x="192" y="322" on="0"/>
        <pt x="347" y="340" on="1"/>
        <pt x="347" y="379" on="1"/>
        <pt x="347" y="430" on="0"/>
        <pt x="295" y="477" on="0"/>
        <pt x="248" y="477" on="1"/>
        <pt x="208" y="477" on="0"/>
        <pt x="128" y="452" on="0"/>
        <pt x="89" y="431" on="1"/>
        <pt x="79" y="499" on="1"/>
        <pt x="119" y="518" on="0"/>
        <pt x="205" y="543" on="0"/>
        <pt x="256" y="543" on="1"/>
        <pt x="420" y="543" on="0"/>
        <pt x="420" y="383" on="1"/>
        <pt x="420" y="0" on="1"/>
      </contour>
      <contour>
        <pt x="347" y="281" on="1"/>
        <pt x="283" y="273" on="0"/>
        <pt x="196" y="247" on="0"/>
        <pt x="143" y="211" on="0"/>
        <pt x="120" y="165" on="0"/>
        <pt x="120" y="138" on="1"/>
        <pt x="120" y="97" on="0"/>
        <pt x="166" y="54" on="0"/>
        <pt x="201" y="54" on="1"/>
        <pt x="236" y="54" on="0"/>
        <pt x="309" y="92" on="0"/>
        <pt x="347" y="128" on="1"/>
      </contour>
    </TTGlyph>
    <TTGlyph name="aacute" xMin="47" yMin="-11" xMax="420" yMax="766">
      <component glyphName="a" x="0" y="0" flags="0x204"/>
      <component glyphName="acute" x="69" y="2" flags="0x4"/>
    </TTGlyph>
    <TTGlyph name="abreve" xMin="47" yMin="-11" xMax="420" yMax="741">
      <component glyphName="a" x="0" y="0" flags="0x204"/>
      <component glyphName="breve" x="12" y="2" flags="0x4"/>
    </TTGlyph>
    <TTGlyph name="acircumflex" xMin="47" yMin="-11" xMax="420" yMax="762">
      <component glyphName="a" x="0" y="0" flags="0x204"/>
      <component glyphName="circumflex" x="11" y="2" flags="0x4"/>
    </TTGlyph>
    <TTGlyph name="acute" xMin="148" yMin="605" xMax="330" yMax="764">
      <contour>
        <pt x="200" y="605" on="1"/>
        <pt x="148" y="605" on="1"/>
        <pt x="239" y="764" on="1"/>
        <pt x="330" y="744" on="1"/>
      </contour>
    </TTGlyph>
    <TTGlyph name="acute.cap" xMin="138" yMin="567" xMax="310" yMax="717">
      <contour>
        <pt x="189" y="567" on="1"/>
        <pt x="138" y="567" on="1"/>
        <pt x="223" y="717" on="1"/>
        <pt x="310" y="697" on="1"/>
      </contour>
    </TTGlyph>
    <TTGlyph name="adieresis" xMin="47" yMin="-11" xMax="420" yMax="712">
      <component glyphName="a" x="0" y="0" flags="0x204"/>
      <component glyphName="dieresis" x="11" y="2" flags="0x4"/>
    </TTGlyph>
    <TTGlyph name="ae" xMin="47" yMin="-11" xMax="743" yMax="544">
      <contour>
        <pt x="743" y="255" on="1"/>
        <pt x="417" y="255" on="1"/>
        <pt x="419" y="160" on="0"/>
        <pt x="498" y="55" on="0"/>
        <pt x="566" y="55" on="1"/>
        <pt x="611" y="55" on="0"/>
        <pt x="691" y="91" on="0"/>
        <pt x="731" y="123" on="1"/>
        <pt x="742" y="55" on="1"/>
        <pt x="706" y="26" on="0"/>
        <pt x="616" y="-10" on="0"/>
        <pt x="560" y="-10" on="1"/>
        <pt x="506" y="-10" on="0"/>
        <pt x="420" y="35" on="0"/>
        <pt x="391" y="78" on="1"/>
        <pt x="349" y="39" on="0"/>
        <pt x="258" y="-11" on="0"/>
        <pt x="200" y="-11" on="1"/>
        <pt x="168" y="-11" on="0"/>
        <pt x="112" y="8" on="0"/>
        <pt x="71" y="45" on="0"/>
        <pt x="47" y="100" on="0"/>
        <pt x="47" y="135" on="1"/>
        <pt x="47" y="223" on="0"/>
        <pt x="190" y="321" on="0"/>
        <pt x="344" y="340" on="1"/>
        <pt x="344" y="380" on="1"/>
        <pt x="344" y="477" on="0"/>
        <pt x="249" y="477" on="1"/>
        <pt x="208" y="477" on="0"/>
        <pt x="128" y="452" on="0"/>
        <pt x="89" y="431" on="1"/>
        <pt x="79" y="499" on="1"/>
        <pt x="119" y="519" on="0"/>
        <pt x="204" y="543" on="0"/>
        <pt x="254" y="543" on="1"/>
        <pt x="315" y="543" on="0"/>
        <pt x="386" y="501" on="0"/>
        <pt x="400" y="456" on="1"/>
        <pt x="426" y="498" on="0"/>
        <pt x="501" y="544" on="0"/>
        <pt x="551" y="544" on="1"/>
        <pt x="601" y="544" on="0"/>
        <pt x="673" y="502" on="0"/>
        <pt x="720" y="430" on="0"/>
        <pt x="743" y="333" on="0"/>
        <pt x="743" y="277" on="1"/>
      </contour>
      <contour>
        <pt x="668" y="315" on="1"/>
        <pt x="663" y="391" on="0"/>
        <pt x="605" y="483" on="0"/>
        <pt x="551" y="483" on="1"/>
        <pt x="497" y="483" on="0"/>
        <pt x="428" y="393" on="0"/>
        <pt x="420" y="315" on="1"/>
      </contour>
      <contour>
        <pt x="364" y="133" on="1"/>
        <pt x="344" y="191" on="0"/>
        <pt x="344" y="268" on="1"/>
        <pt x="344" y="281" on="1"/>
        <pt x="281" y="273" on="0"/>
        <pt x="195" y="247" on="0"/>
        <pt x="143" y="211" on="0"/>
        <pt x="120" y="166" on="0"/>
        <pt x="120" y="139" on="1"/>
        <pt x="120" y="99" on="0"/>
        <pt x="169" y="54" on="0"/>
        <pt x="207" y="54" on="1"/>
        <pt x="247" y="54" on="0"/>
        <pt x="324" y="95" on="0"/>
      </contour>
    </TTGlyph>
    <TTGlyph name="aeacute" xMin="47" yMin="-11" xMax="743" yMax="764">
      <component glyphName="acute" x="223" y="0" flags="0x4"/>
      <component glyphName="ae" x="0" y="0" flags="0x4"/>
    </TTGlyph>
    <TTGlyph name="agrave" xMin="47" yMin="-11" xMax="420" yMax="766">
      <component glyphName="a" x="0" y="0" flags="0x204"/>
      <component glyphName="grave" x="-48" y="2" flags="0x4"/>
    </TTGlyph>
    <TTGlyph name="amacron" xMin="47" yMin="-11" xMax="420" yMax="698">
      <component glyphName="a" x="0" y="0" flags="0x204"/>
      <component glyphName="macron" x="12" y="2" flags="0x4"/>
    </TTGlyph>
    <TTGlyph name="ampersand" xMin="46" yMin="-11" xMax="632" yMax="736">
      <contour>
        <pt x="557" y="-7" on="1"/>
        <pt x="461" y="104" on="1"/>
        <pt x="421" y="48" on="0"/>
        <pt x="317" y="-11" on="0"/>
        <pt x="254" y="-11" on="1"/>
        <pt x="206" y="-11" on="0"/>
        <pt x="129" y="18" on="0"/>
        <pt x="75" y="70" on="0"/>
        <pt x="46" y="141" on="0"/>
        <pt x="46" y="183" on="1"/>
        <pt x="46" y="222" on="0"/>
        <pt x="70" y="288" on="0"/>
        <pt x="112" y="344" on="0"/>
        <pt x="169" y="388" on="0"/>
        <pt x="202" y="406" on="1"/>
        <pt x="168" y="449" on="0"/>
        <pt x="135" y="523" on="0"/>
        <pt x="135" y="569" on="1"/>
        <pt x="135" y="603" on="0"/>
        <pt x="159" y="664" on="0"/>
        <pt x="205" y="710" on="0"/>
        <pt x="271" y="736" on="0"/>
        <pt x="313" y="736" on="1"/>
        <pt x="355" y="736" on="0"/>
        <pt x="428" y="714" on="0"/>
        <pt x="461" y="694" on="1"/>
        <pt x="446" y="619" on="1"/>
        <pt x="375" y="669" on="0"/>
        <pt x="311" y="669" on="1"/>
        <pt x="265" y="669" on="0"/>
        <pt x="210" y="616" on="0"/>
        <pt x="210" y="571" on="1"/>
        <pt x="210" y="534" on="0"/>
        <pt x="243" y="467" on="0"/>
        <pt x="281" y="423" on="1"/>
        <pt x="450" y="225" on="1"/>
        <pt x="483" y="304" on="0"/>
        <pt x="501" y="423" on="1"/>
        <pt x="569" y="407" on="1"/>
        <pt x="545" y="265" on="0"/>
        <pt x="498" y="169" on="1"/>
        <pt x="632" y="12" on="1"/>
      </contour>
      <contour>
        <pt x="256" y="56" on="1"/>
        <pt x="301" y="56" on="0"/>
        <pt x="383" y="104" on="0"/>
        <pt x="415" y="158" on="1"/>
        <pt x="243" y="357" on="1"/>
        <pt x="187" y="327" on="0"/>
        <pt x="122" y="243" on="0"/>
        <pt x="122" y="187" on="1"/>
        <pt x="122" y="158" on="0"/>
        <pt x="142" y="110" on="0"/>
        <pt x="178" y="75" on="0"/>
        <pt x="227" y="56" on="0"/>
      </contour>
    </TTGlyph>
    <TTGlyph name="ampersand.flat" xMin="46" yMin="-11" xMax="642" yMax="736">
      <contour>
        <pt x="552" y="0" on="1"/>
        <pt x="461" y="105" on="1"/>
        <pt x="422" y="48" on="0"/>
        <pt x="317" y="-11" on="0"/>
        <pt x="254" y="-11" on="1"/>
        <pt x="206" y="-11" on="0"/>
        <pt x="129" y="18" on="0"/>
        <pt x="75" y="70" on="0"/>
        <pt x="46" y="141" on="0"/>
        <pt x="46" y="183" on="1"/>
        <pt x="46" y="222" on="0"/>
        <pt x="70" y="288" on="0"/>
        <pt x="112" y="344" on="0"/>
        <pt x="169" y="388" on="0"/>
        <pt x="202" y="406" on="1"/>
        <pt x="168" y="449" on="0"/>
        <pt x="135" y="523" on="0"/>
        <pt x="135" y="569" on="1"/>
        <pt x="135" y="603" on="0"/>
        <pt x="159" y="664" on="0"/>
        <pt x="205" y="710" on="0"/>
        <pt x="271" y="736" on="0"/>
        <pt x="313" y="736" on="1"/>
        <pt x="355" y="736" on="0"/>
        <pt x="428" y="714" on="0"/>
        <pt x="461" y="694" on="1"/>
        <pt x="446" y="619" on="1"/>
        <pt x="375" y="669" on="0"/>
        <pt x="311" y="669" on="1"/>
        <pt x="265" y="669" on="0"/>
        <pt x="210" y="616" on="0"/>
        <pt x="210" y="571" on="1"/>
        <pt x="210" y="534" on="0"/>
        <pt x="244" y="467" on="0"/>
        <pt x="281" y="423" on="1"/>
        <pt x="450" y="225" on="1"/>
        <pt x="483" y="305" on="0"/>
        <pt x="501" y="423" on="1"/>
        <pt x="569" y="407" on="1"/>
        <pt x="545" y="265" on="0"/>
        <pt x="498" y="169" on="1"/>
        <pt x="642" y="0" on="1"/>
      </contour>
      <contour>
        <pt x="256" y="56" on="1"/>
        <pt x="301" y="56" on="0"/>
        <pt x="383" y="105" on="0"/>
        <pt x="416" y="158" on="1"/>
        <pt x="243" y="357" on="1"/>
        <pt x="187" y="327" on="0"/>
        <pt x="122" y="243" on="0"/>
        <pt x="122" y="187" on="1"/>
        <pt x="122" y="158" on="0"/>
        <pt x="142" y="110" on="0"/>
        <pt x="178" y="75" on="0"/>
        <pt x="227" y="56" on="0"/>
      </contour>
    </TTGlyph>
    <TTGlyph name="aogonek" xMin="47" yMin="-192" xMax="441" yMax="543">
      <contour>
        <pt x="407" y="0" on="1"/>
        <pt x="388" y="-27" on="1"/>
        <pt x="371" y="-52" on="0"/>
        <pt x="355" y="-87" on="0"/>
        <pt x="355" y="-104" on="1"/>
        <pt x="355" y="-138" on="0"/>
        <pt x="396" y="-138" on="1"/>
        <pt x="407" y="-138" on="0"/>
        <pt x="429" y="-134" on="0"/>
        <pt x="440" y="-132" on="1"/>
        <pt x="441" y="-178" on="1"/>
        <pt x="426" y="-184" on="0"/>
        <pt x="390" y="-192" on="0"/>
        <pt x="373" y="-192" on="1"/>
        <pt x="334" y="-192" on="0"/>
        <pt x="291" y="-155" on="0"/>
        <pt x="291" y="-120" on="1"/>
        <pt x="291" y="-94" on="0"/>
        <pt x="319" y="-40" on="0"/>
        <pt x="348" y="-4" on="1"/>
        <pt x="361" y="12" on="1"/>
        <pt x="353" y="66" on="1"/>
        <pt x="317" y="31" on="0"/>
        <pt x="239" y="-11" on="0"/>
        <pt x="189" y="-11" on="1"/>
        <pt x="128" y="-11" on="0"/>
        <pt x="47" y="65" on="0"/>
        <pt x="47" y="134" on="1"/>
        <pt x="47" y="225" on="0"/>
        <pt x="192" y="322" on="0"/>
        <pt x="347" y="340" on="1"/>
        <pt x="347" y="379" on="1"/>
        <pt x="347" y="430" on="0"/>
        <pt x="295" y="477" on="0"/>
        <pt x="248" y="477" on="1"/>
        <pt x="208" y="477" on="0"/>
        <pt x="128" y="452" on="0"/>
        <pt x="89" y="431" on="1"/>
        <pt x="79" y="499" on="1"/>
        <pt x="119" y="518" on="0"/>
        <pt x="205" y="543" on="0"/>
        <pt x="256" y="543" on="1"/>
        <pt x="420" y="543" on="0"/>
        <pt x="420" y="383" on="1"/>
        <pt x="420" y="0" on="1"/>
      </contour>
      <contour>
        <pt x="347" y="281" on="1"/>
        <pt x="283" y="273" on="0"/>
        <pt x="196" y="247" on="0"/>
        <pt x="143" y="211" on="0"/>
        <pt x="120" y="165" on="0"/>
        <pt x="120" y="138" on="1"/>
        <pt x="120" y="97" on="0"/>
        <pt x="166" y="54" on="0"/>
        <pt x="201" y="54" on="1"/>
        <pt x="236" y="54" on="0"/>
        <pt x="309" y="92" on="0"/>
        <pt x="347" y="128" on="1"/>
      </contour>
    </TTGlyph>
    <TTGlyph name="aring" xMin="47" yMin="-11" xMax="420" yMax="812">
      <component glyphName="a" x="0" y="0" flags="0x204"/>
      <component glyphName="ring" x="11" y="2" flags="0x4"/>
    </TTGlyph>
    <TTGlyph name="aringacute" xMin="47" yMin="-11" xMax="420" yMax="1010">
      <contour>
        <pt x="363" y="0" on="1"/>
        <pt x="353" y="66" on="1"/>
        <pt x="317" y="31" on="0"/>
        <pt x="239" y="-11" on="0"/>
        <pt x="189" y="-11" on="1"/>
        <pt x="128" y="-11" on="0"/>
        <pt x="47" y="65" on="0"/>
        <pt x="47" y="134" on="1"/>
        <pt x="47" y="225" on="0"/>
        <pt x="192" y="322" on="0"/>
        <pt x="347" y="340" on="1"/>
        <pt x="347" y="379" on="1"/>
        <pt x="347" y="430" on="0"/>
        <pt x="295" y="477" on="0"/>
        <pt x="248" y="477" on="1"/>
        <pt x="208" y="477" on="0"/>
        <pt x="128" y="452" on="0"/>
        <pt x="89" y="431" on="1"/>
        <pt x="79" y="499" on="1"/>
        <pt x="119" y="518" on="0"/>
        <pt x="205" y="543" on="0"/>
        <pt x="256" y="543" on="1"/>
        <pt x="420" y="543" on="0"/>
        <pt x="420" y="383" on="1"/>
        <pt x="420" y="0" on="1"/>
      </contour>
      <contour>
        <pt x="347" y="281" on="1"/>
        <pt x="283" y="273" on="0"/>
        <pt x="196" y="247" on="0"/>
        <pt x="143" y="211" on="0"/>
        <pt x="120" y="165" on="0"/>
        <pt x="120" y="138" on="1"/>
        <pt x="120" y="97" on="0"/>
        <pt x="166" y="54" on="0"/>
        <pt x="201" y="54" on="1"/>
        <pt x="236" y="54" on="0"/>
        <pt x="309" y="92" on="0"/>
        <pt x="347" y="128" on="1"/>
      </contour>
      <contour>
        <pt x="268" y="851" on="1"/>
        <pt x="216" y="851" on="1"/>
        <pt x="307" y="1010" on="1"/>
        <pt x="398" y="990" on="1"/>
      </contour>
      <contour>
        <pt x="353" y="708" on="1"/>
        <pt x="353" y="663" on="0"/>
        <pt x="294" y="605" on="0"/>
        <pt x="249" y="605" on="1"/>
        <pt x="226" y="605" on="0"/>
        <pt x="188" y="621" on="0"/>
        <pt x="160" y="648" on="0"/>
        <pt x="144" y="686" on="0"/>
        <pt x="144" y="708" on="1"/>
        <pt x="144" y="730" on="0"/>
        <pt x="160" y="768" on="0"/>
        <pt x="188" y="796" on="0"/>
        <pt x="226" y="812" on="0"/>
        <pt x="249" y="812" on="1"/>
        <pt x="294" y="812" on="0"/>
        <pt x="353" y="753" on="0"/>
      </contour>
      <contour>
        <pt x="308" y="708" on="1"/>
        <pt x="308" y="735" on="0"/>
        <pt x="275" y="771" on="0"/>
        <pt x="249" y="771" on="1"/>
        <pt x="223" y="771" on="0"/>
        <pt x="189" y="735" on="0"/>
        <pt x="189" y="708" on="1"/>
        <pt x="189" y="681" on="0"/>
        <pt x="223" y="645" on="0"/>
        <pt x="249" y="645" on="1"/>
        <pt x="275" y="645" on="0"/>
        <pt x="308" y="681" on="0"/>
      </contour>
    </TTGlyph>
    <TTGlyph name="asciicircum" xMin="72" yMin="536" xMax="359" yMax="730">
      <contour>
        <pt x="302" y="536" on="1"/>
        <pt x="215" y="663" on="1"/>
        <pt x="127" y="536" on="1"/>
        <pt x="72" y="536" on="1"/>
        <pt x="185" y="730" on="1"/>
        <pt x="246" y="730" on="1"/>
        <pt x="359" y="536" on="1"/>
      </contour>
    </TTGlyph>
    <TTGlyph name="asciitilde" xMin="61" yMin="261" xMax="388" yMax="397">
      <contour>
        <pt x="388" y="387" on="1"/>
        <pt x="380" y="322" on="0"/>
        <pt x="337" y="264" on="0"/>
        <pt x="305" y="264" on="1"/>
        <pt x="285" y="264" on="0"/>
        <pt x="246" y="281" on="0"/>
        <pt x="218" y="297" on="1"/>
        <pt x="192" y="313" on="0"/>
        <pt x="161" y="328" on="0"/>
        <pt x="150" y="328" on="1"/>
        <pt x="136" y="328" on="0"/>
        <pt x="120" y="298" on="0"/>
        <pt x="112" y="261" on="1"/>
        <pt x="61" y="271" on="1"/>
        <pt x="69" y="337" on="0"/>
        <pt x="112" y="394" on="0"/>
        <pt x="144" y="394" on="1"/>
        <pt x="165" y="394" on="0"/>
        <pt x="203" y="377" on="0"/>
        <pt x="231" y="360" on="1"/>
        <pt x="257" y="346" on="0"/>
        <pt x="288" y="330" on="0"/>
        <pt x="300" y="330" on="1"/>
        <pt x="313" y="330" on="0"/>
        <pt x="329" y="361" on="0"/>
        <pt x="337" y="397" on="1"/>
      </contour>
    </TTGlyph>
    <TTGlyph name="asterisk" xMin="45" yMin="477" xMax="361" yMax="779">
      <contour>
        <pt x="244" y="603" on="1"/>
        <pt x="309" y="490" on="1"/>
        <pt x="288" y="477" on="1"/>
        <pt x="202" y="573" on="1"/>
        <pt x="117" y="477" on="1"/>
        <pt x="96" y="490" on="1"/>
        <pt x="160" y="603" on="1"/>
        <pt x="45" y="654" on="1"/>
        <pt x="52" y="678" on="1"/>
        <pt x="177" y="651" on="1"/>
        <pt x="189" y="779" on="1"/>
        <pt x="216" y="779" on="1"/>
        <pt x="228" y="651" on="1"/>
        <pt x="353" y="678" on="1"/>
        <pt x="361" y="654" on="1"/>
      </contour>
    </TTGlyph>
    <TTGlyph name="at" xMin="57" yMin="-155" xMax="814" yMax="702">
      <contour>
        <pt x="620" y="50" on="1"/>
        <pt x="568" y="50" on="0"/>
        <pt x="510" y="107" on="0"/>
        <pt x="507" y="154" on="1"/>
        <pt x="466" y="103" on="0"/>
        <pt x="397" y="52" on="0"/>
        <pt x="358" y="52" on="1"/>
        <pt x="313" y="52" on="0"/>
        <pt x="248" y="126" on="0"/>
        <pt x="248" y="195" on="1"/>
        <pt x="248" y="259" on="0"/>
        <pt x="288" y="371" on="0"/>
        <pt x="356" y="453" on="0"/>
        <pt x="445" y="501" on="0"/>
        <pt x="495" y="501" on="1"/>
        <pt x="529" y="501" on="0"/>
        <pt x="587" y="485" on="0"/>
        <pt x="613" y="474" on="1"/>
        <pt x="572" y="209" on="1"/>
        <pt x="570" y="198" on="0"/>
        <pt x="567" y="172" on="0"/>
        <pt x="567" y="161" on="1"/>
        <pt x="567" y="129" on="0"/>
        <pt x="597" y="94" on="0"/>
        <pt x="629" y="94" on="1"/>
        <pt x="657" y="94" on="0"/>
        <pt x="710" y="134" on="0"/>
        <pt x="749" y="206" on="0"/>
        <pt x="773" y="306" on="0"/>
        <pt x="773" y="367" on="1"/>
        <pt x="773" y="439" on="0"/>
        <pt x="734" y="550" on="0"/>
        <pt x="661" y="626" on="0"/>
        <pt x="558" y="665" on="0"/>
        <pt x="494" y="665" on="1"/>
        <pt x="412" y="665" on="0"/>
        <pt x="268" y="590" on="0"/>
        <pt x="161" y="462" on="0"/>
        <pt x="99" y="292" on="0"/>
        <pt x="99" y="196" on="1"/>
        <pt x="99" y="116" on="0"/>
        <pt x="142" y="-2" on="0"/>
        <pt x="219" y="-80" on="0"/>
        <pt x="325" y="-118" on="0"/>
        <pt x="389" y="-118" on="1"/>
        <pt x="451" y="-118" on="0"/>
        <pt x="562" y="-89" on="0"/>
        <pt x="608" y="-65" on="1"/>
        <pt x="614" y="-102" on="1"/>
        <pt x="569" y="-125" on="0"/>
        <pt x="453" y="-155" on="0"/>
        <pt x="387" y="-155" on="1"/>
        <pt x="312" y="-155" on="0"/>
        <pt x="191" y="-110" on="0"/>
        <pt x="104" y="-22" on="0"/>
        <pt x="57" y="109" on="0"/>
        <pt x="57" y="195" on="1"/>
        <pt x="57" y="299" on="0"/>
        <pt x="126" y="483" on="0"/>
        <pt x="245" y="621" on="0"/>
        <pt x="405" y="702" on="0"/>
        <pt x="496" y="702" on="1"/>
        <pt x="569" y="702" on="0"/>
        <pt x="687" y="656" on="0"/>
        <pt x="769" y="570" on="0"/>
        <pt x="814" y="446" on="0"/>
        <pt x="814" y="368" on="1"/>
        <pt x="814" y="299" on="0"/>
        <pt x="785" y="182" on="0"/>
        <pt x="733" y="97" on="0"/>
        <pt x="662" y="50" on="0"/>
      </contour>
      <contour>
        <pt x="373" y="110" on="1"/>
        <pt x="401" y="110" on="0"/>
        <pt x="465" y="165" on="0"/>
        <pt x="508" y="219" on="1"/>
        <pt x="543" y="433" on="1"/>
        <pt x="530" y="438" on="0"/>
        <pt x="504" y="444" on="0"/>
        <pt x="487" y="444" on="1"/>
        <pt x="453" y="444" on="0"/>
        <pt x="390" y="406" on="0"/>
        <pt x="342" y="340" on="0"/>
        <pt x="314" y="252" on="0"/>
        <pt x="314" y="202" on="1"/>
        <pt x="314" y="155" on="0"/>
        <pt x="345" y="110" on="0"/>
      </contour>
    </TTGlyph>
    <TTGlyph name="atilde" xMin="47" yMin="-11" xMax="420" yMax="736">
      <component glyphName="a" x="0" y="0" flags="0x204"/>
      <component glyphName="tilde" x="15" y="2" flags="0x4"/>
    </TTGlyph>
    <TTGlyph name="b" xMin="80" yMin="-7" xMax="487" yMax="805">
      <contour>
        <pt x="487" y="279" on="1"/>
        <pt x="487" y="206" on="0"/>
        <pt x="451" y="99" on="0"/>
        <pt x="388" y="28" on="0"/>
        <pt x="302" y="-7" on="0"/>
        <pt x="253" y="-7" on="1"/>
        <pt x="203" y="-7" on="0"/>
        <pt x="121" y="13" on="0"/>
        <pt x="80" y="30" on="1"/>
        <pt x="80" y="792" on="1"/>
        <pt x="155" y="805" on="1"/>
        <pt x="155" y="472" on="1"/>
        <pt x="183" y="501" on="0"/>
        <pt x="251" y="544" on="0"/>
        <pt x="299" y="544" on="1"/>
        <pt x="338" y="544" on="0"/>
        <pt x="406" y="512" on="0"/>
        <pt x="457" y="446" on="0"/>
        <pt x="487" y="346" on="0"/>
      </contour>
      <contour>
        <pt x="412" y="277" on="1"/>
        <pt x="412" y="377" on="0"/>
        <pt x="343" y="477" on="0"/>
        <pt x="289" y="477" on="1"/>
        <pt x="253" y="477" on="0"/>
        <pt x="189" y="433" on="0"/>
        <pt x="155" y="395" on="1"/>
        <pt x="155" y="78" on="1"/>
        <pt x="178" y="69" on="0"/>
        <pt x="224" y="59" on="0"/>
        <pt x="255" y="59" on="1"/>
        <pt x="289" y="59" on="0"/>
        <pt x="347" y="85" on="0"/>
        <pt x="389" y="138" on="0"/>
        <pt x="412" y="220" on="0"/>
      </contour>
    </TTGlyph>
    <TTGlyph name="backslash" xMin="23" yMin="-140" xMax="492" yMax="781">
      <contour>
        <pt x="429" y="-140" on="1"/>
        <pt x="23" y="767" on="1"/>
        <pt x="86" y="781" on="1"/>
        <pt x="492" y="-126" on="1"/>
      </contour>
    </TTGlyph>
    <TTGlyph name="baht" xMin="-4" yMin="-132" xMax="490" yMax="775">
      <contour>
        <pt x="-4" y="-118" on="1"/>
        <pt x="82" y="53" on="1"/>
        <pt x="82" y="717" on="1"/>
        <pt x="240" y="717" on="1"/>
        <pt x="327" y="717" on="0"/>
        <pt x="383" y="681" on="1"/>
        <pt x="430" y="775" on="1"/>
        <pt x="490" y="761" on="1"/>
        <pt x="428" y="639" on="1"/>
        <pt x="456" y="597" on="0"/>
        <pt x="456" y="541" on="1"/>
        <pt x="456" y="481" on="0"/>
        <pt x="395" y="401" on="0"/>
        <pt x="348" y="382" on="1"/>
        <pt x="409" y="363" on="0"/>
        <pt x="483" y="277" on="0"/>
        <pt x="483" y="205" on="1"/>
        <pt x="483" y="155" on="0"/>
        <pt x="447" y="79" on="0"/>
        <pt x="383" y="27" on="0"/>
        <pt x="291" y="0" on="0"/>
        <pt x="236" y="0" on="1"/>
        <pt x="122" y="0" on="1"/>
        <pt x="56" y="-132" on="1"/>
      </contour>
      <contour>
        <pt x="154" y="345" on="1"/>
        <pt x="154" y="63" on="1"/>
        <pt x="240" y="63" on="1"/>
        <pt x="321" y="63" on="0"/>
        <pt x="411" y="137" on="0"/>
        <pt x="411" y="203" on="1"/>
        <pt x="411" y="274" on="0"/>
        <pt x="319" y="345" on="0"/>
        <pt x="236" y="345" on="1"/>
      </contour>
      <contour>
        <pt x="154" y="655" on="1"/>
        <pt x="154" y="406" on="1"/>
        <pt x="236" y="406" on="1"/>
        <pt x="308" y="406" on="0"/>
        <pt x="383" y="480" on="0"/>
        <pt x="383" y="535" on="1"/>
        <pt x="383" y="589" on="0"/>
        <pt x="313" y="655" on="0"/>
        <pt x="238" y="655" on="1"/>
      </contour>
    </TTGlyph>
    <TTGlyph name="bar" xMin="110" yMin="-211" xMax="173" yMax="809">
      <contour>
        <pt x="110" y="-211" on="1"/>
        <pt x="110" y="799" on="1"/>
        <pt x="173" y="809" on="1"/>
        <pt x="173" y="-202" on="1"/>
      </contour>
    </TTGlyph>
    <TTGlyph name="bar.tab" xMin="98" yMin="-147" xMax="163" yMax="908">
      <contour>
        <pt x="98" y="-147" on="1"/>
        <pt x="98" y="898" on="1"/>
        <pt x="163" y="908" on="1"/>
        <pt x="163" y="-137" on="1"/>
      </contour>
    </TTGlyph>
    <TTGlyph name="braceleft" xMin="45" yMin="-112" xMax="424" yMax="778">
      <contour>
        <pt x="337" y="-112" on="1"/>
        <pt x="255" y="-112" on="0"/>
        <pt x="179" y="-41" on="0"/>
        <pt x="179" y="31" on="1"/>
        <pt x="179" y="69" on="0"/>
        <pt x="195" y="148" on="0"/>
        <pt x="195" y="189" on="1"/>
        <pt x="195" y="222" on="0"/>
        <pt x="177" y="266" on="0"/>
        <pt x="146" y="293" on="0"/>
        <pt x="104" y="305" on="0"/>
        <pt x="79" y="305" on="1"/>
        <pt x="53" y="305" on="1"/>
        <pt x="45" y="362" on="1"/>
        <pt x="80" y="362" on="1"/>
        <pt x="105" y="362" on="0"/>
        <pt x="147" y="373" on="0"/>
        <pt x="178" y="400" on="0"/>
        <pt x="195" y="444" on="0"/>
        <pt x="195" y="477" on="1"/>
        <pt x="195" y="517" on="0"/>
        <pt x="179" y="595" on="0"/>
        <pt x="179" y="634" on="1"/>
        <pt x="179" y="705" on="0"/>
        <pt x="256" y="778" on="0"/>
        <pt x="337" y="778" on="1"/>
        <pt x="419" y="778" on="1"/>
        <pt x="419" y="720" on="1"/>
        <pt x="340" y="720" on="1"/>
        <pt x="292" y="720" on="0"/>
        <pt x="251" y="675" on="0"/>
        <pt x="251" y="636" on="1"/>
        <pt x="251" y="601" on="0"/>
        <pt x="267" y="515" on="0"/>
        <pt x="267" y="478" on="1"/>
        <pt x="267" y="409" on="0"/>
        <pt x="206" y="345" on="0"/>
        <pt x="155" y="334" on="1"/>
        <pt x="155" y="332" on="1"/>
        <pt x="180" y="326" on="0"/>
        <pt x="222" y="306" on="0"/>
        <pt x="251" y="272" on="0"/>
        <pt x="267" y="223" on="0"/>
        <pt x="267" y="188" on="1"/>
        <pt x="267" y="151" on="0"/>
        <pt x="251" y="65" on="0"/>
        <pt x="251" y="31" on="1"/>
        <pt x="251" y="-9" on="0"/>
        <pt x="290" y="-54" on="0"/>
        <pt x="338" y="-54" on="1"/>
        <pt x="415" y="-54" on="1"/>
        <pt x="424" y="-112" on="1"/>
      </contour>
    </TTGlyph>
    <TTGlyph name="braceleft.flat" xMin="48" yMin="-112" xMax="419" yMax="778">
      <contour>
        <pt x="337" y="-112" on="1"/>
        <pt x="255" y="-112" on="0"/>
        <pt x="179" y="-41" on="0"/>
        <pt x="179" y="31" on="1"/>
        <pt x="179" y="69" on="0"/>
        <pt x="195" y="148" on="0"/>
        <pt x="195" y="189" on="1"/>
        <pt x="195" y="222" on="0"/>
        <pt x="177" y="266" on="0"/>
        <pt x="146" y="293" on="0"/>
        <pt x="104" y="305" on="0"/>
        <pt x="79" y="305" on="1"/>
        <pt x="48" y="305" on="1"/>
        <pt x="48" y="362" on="1"/>
        <pt x="80" y="362" on="1"/>
        <pt x="105" y="362" on="0"/>
        <pt x="147" y="373" on="0"/>
        <pt x="178" y="400" on="0"/>
        <pt x="195" y="444" on="0"/>
        <pt x="195" y="477" on="1"/>
        <pt x="195" y="517" on="0"/>
        <pt x="179" y="595" on="0"/>
        <pt x="179" y="634" on="1"/>
        <pt x="179" y="705" on="0"/>
        <pt x="256" y="778" on="0"/>
        <pt x="337" y="778" on="1"/>
        <pt x="419" y="778" on="1"/>
        <pt x="419" y="720" on="1"/>
        <pt x="340" y="720" on="1"/>
        <pt x="292" y="720" on="0"/>
        <pt x="251" y="675" on="0"/>
        <pt x="251" y="636" on="1"/>
        <pt x="251" y="601" on="0"/>
        <pt x="267" y="515" on="0"/>
        <pt x="267" y="478" on="1"/>
        <pt x="267" y="409" on="0"/>
        <pt x="206" y="345" on="0"/>
        <pt x="155" y="334" on="1"/>
        <pt x="155" y="332" on="1"/>
        <pt x="180" y="326" on="0"/>
        <pt x="222" y="306" on="0"/>
        <pt x="251" y="272" on="0"/>
        <pt x="267" y="223" on="0"/>
        <pt x="267" y="188" on="1"/>
        <pt x="267" y="151" on="0"/>
        <pt x="251" y="65" on="0"/>
        <pt x="251" y="31" on="1"/>
        <pt x="251" y="-9" on="0"/>
        <pt x="290" y="-54" on="0"/>
        <pt x="338" y="-54" on="1"/>
        <pt x="419" y="-54" on="1"/>
        <pt x="419" y="-112" on="1"/>
      </contour>
    </TTGlyph>
    <TTGlyph name="braceright" xMin="50" yMin="-112" xMax="429" yMax="778">
      <contour>
        <pt x="137" y="778" on="1"/>
        <pt x="219" y="778" on="0"/>
        <pt x="294" y="707" on="0"/>
        <pt x="294" y="636" on="1"/>
        <pt x="294" y="598" on="0"/>
        <pt x="278" y="518" on="0"/>
        <pt x="278" y="477" on="1"/>
        <pt x="278" y="444" on="0"/>
        <pt x="296" y="400" on="0"/>
        <pt x="327" y="373" on="0"/>
        <pt x="370" y="362" on="0"/>
        <pt x="395" y="362" on="1"/>
        <pt x="420" y="362" on="1"/>
        <pt x="429" y="305" on="1"/>
        <pt x="394" y="305" on="1"/>
        <pt x="369" y="305" on="0"/>
        <pt x="326" y="294" on="0"/>
        <pt x="295" y="267" on="0"/>
        <pt x="278" y="223" on="0"/>
        <pt x="278" y="190" on="1"/>
        <pt x="278" y="149" on="0"/>
        <pt x="294" y="71" on="0"/>
        <pt x="294" y="33" on="1"/>
        <pt x="294" y="-39" on="0"/>
        <pt x="218" y="-112" on="0"/>
        <pt x="137" y="-112" on="1"/>
        <pt x="56" y="-112" on="1"/>
        <pt x="56" y="-54" on="1"/>
        <pt x="135" y="-54" on="1"/>
        <pt x="182" y="-54" on="0"/>
        <pt x="223" y="-8" on="0"/>
        <pt x="223" y="31" on="1"/>
        <pt x="223" y="66" on="0"/>
        <pt x="206" y="151" on="0"/>
        <pt x="206" y="189" on="1"/>
        <pt x="206" y="258" on="0"/>
        <pt x="268" y="321" on="0"/>
        <pt x="318" y="332" on="1"/>
        <pt x="318" y="334" on="1"/>
        <pt x="293" y="340" on="0"/>
        <pt x="252" y="360" on="0"/>
        <pt x="222" y="394" on="0"/>
        <pt x="206" y="443" on="0"/>
        <pt x="206" y="478" on="1"/>
        <pt x="206" y="496" on="0"/>
        <pt x="211" y="538" on="0"/>
        <pt x="218" y="580" on="0"/>
        <pt x="223" y="620" on="0"/>
        <pt x="223" y="637" on="1"/>
        <pt x="223" y="676" on="0"/>
        <pt x="183" y="720" on="0"/>
        <pt x="135" y="720" on="1"/>
        <pt x="60" y="720" on="1"/>
        <pt x="50" y="778" on="1"/>
      </contour>
    </TTGlyph>
    <TTGlyph name="braceright.flat" xMin="56" yMin="-112" xMax="425" yMax="778">
      <contour>
        <pt x="137" y="778" on="1"/>
        <pt x="219" y="778" on="0"/>
        <pt x="294" y="707" on="0"/>
        <pt x="294" y="636" on="1"/>
        <pt x="294" y="598" on="0"/>
        <pt x="278" y="518" on="0"/>
        <pt x="278" y="477" on="1"/>
        <pt x="278" y="444" on="0"/>
        <pt x="296" y="400" on="0"/>
        <pt x="327" y="373" on="0"/>
        <pt x="370" y="362" on="0"/>
        <pt x="395" y="362" on="1"/>
        <pt x="425" y="362" on="1"/>
        <pt x="425" y="305" on="1"/>
        <pt x="394" y="305" on="1"/>
        <pt x="369" y="305" on="0"/>
        <pt x="326" y="294" on="0"/>
        <pt x="295" y="267" on="0"/>
        <pt x="278" y="223" on="0"/>
        <pt x="278" y="190" on="1"/>
        <pt x="278" y="149" on="0"/>
        <pt x="294" y="71" on="0"/>
        <pt x="294" y="33" on="1"/>
        <pt x="294" y="-39" on="0"/>
        <pt x="218" y="-112" on="0"/>
        <pt x="137" y="-112" on="1"/>
        <pt x="56" y="-112" on="1"/>
        <pt x="56" y="-54" on="1"/>
        <pt x="135" y="-54" on="1"/>
        <pt x="182" y="-54" on="0"/>
        <pt x="223" y="-8" on="0"/>
        <pt x="223" y="31" on="1"/>
        <pt x="223" y="66" on="0"/>
        <pt x="206" y="151" on="0"/>
        <pt x="206" y="189" on="1"/>
        <pt x="206" y="258" on="0"/>
        <pt x="268" y="321" on="0"/>
        <pt x="318" y="332" on="1"/>
        <pt x="318" y="334" on="1"/>
        <pt x="293" y="340" on="0"/>
        <pt x="252" y="360" on="0"/>
        <pt x="222" y="394" on="0"/>
        <pt x="206" y="443" on="0"/>
        <pt x="206" y="478" on="1"/>
        <pt x="206" y="496" on="0"/>
        <pt x="211" y="538" on="0"/>
        <pt x="218" y="580" on="0"/>
        <pt x="223" y="620" on="0"/>
        <pt x="223" y="637" on="1"/>
        <pt x="223" y="676" on="0"/>
        <pt x="183" y="720" on="0"/>
        <pt x="135" y="720" on="1"/>
        <pt x="56" y="720" on="1"/>
        <pt x="56" y="778" on="1"/>
      </contour>
    </TTGlyph>
    <TTGlyph name="bracketleft" xMin="106" yMin="-112" xMax="362" yMax="778">
      <contour>
        <pt x="106" y="-112" on="1"/>
        <pt x="106" y="778" on="1"/>
        <pt x="356" y="778" on="1"/>
        <pt x="356" y="720" on="1"/>
        <pt x="176" y="720" on="1"/>
        <pt x="176" y="-54" on="1"/>
        <pt x="352" y="-54" on="1"/>
        <pt x="362" y="-112" on="1"/>
      </contour>
    </TTGlyph>
    <TTGlyph name="bracketleft.flat" xMin="106" yMin="-112" xMax="356" yMax="778">
      <contour>
        <pt x="106" y="-112" on="1"/>
        <pt x="106" y="778" on="1"/>
        <pt x="356" y="778" on="1"/>
        <pt x="356" y="720" on="1"/>
        <pt x="176" y="720" on="1"/>
        <pt x="176" y="-54" on="1"/>
        <pt x="356" y="-54" on="1"/>
        <pt x="356" y="-112" on="1"/>
      </contour>
    </TTGlyph>
    <TTGlyph name="bracketright" xMin="50" yMin="-112" xMax="306" yMax="778">
      <contour>
        <pt x="306" y="778" on="1"/>
        <pt x="306" y="-112" on="1"/>
        <pt x="55" y="-112" on="1"/>
        <pt x="55" y="-54" on="1"/>
        <pt x="235" y="-54" on="1"/>
        <pt x="235" y="721" on="1"/>
        <pt x="59" y="721" on="1"/>
        <pt x="50" y="778" on="1"/>
      </contour>
    </TTGlyph>
    <TTGlyph name="bracketright.flat" xMin="55" yMin="-112" xMax="306" yMax="778">
      <contour>
        <pt x="306" y="778" on="1"/>
        <pt x="306" y="-112" on="1"/>
        <pt x="55" y="-112" on="1"/>
        <pt x="55" y="-54" on="1"/>
        <pt x="235" y="-54" on="1"/>
        <pt x="235" y="721" on="1"/>
        <pt x="55" y="721" on="1"/>
        <pt x="55" y="778" on="1"/>
      </contour>
    </TTGlyph>
    <TTGlyph name="breve" xMin="104" yMin="606" xMax="367" yMax="739">
      <contour>
        <pt x="367" y="730" on="1"/>
        <pt x="360" y="673" on="0"/>
        <pt x="295" y="606" on="0"/>
        <pt x="235" y="606" on="1"/>
        <pt x="176" y="606" on="0"/>
        <pt x="111" y="672" on="0"/>
        <pt x="104" y="730" on="1"/>
        <pt x="155" y="739" on="1"/>
        <pt x="162" y="703" on="0"/>
        <pt x="203" y="668" on="0"/>
        <pt x="235" y="668" on="1"/>
        <pt x="301" y="668" on="0"/>
        <pt x="316" y="739" on="1"/>
      </contour>
    </TTGlyph>
    <TTGlyph name="breve.cap" xMin="97" yMin="568" xMax="346" yMax="694">
      <contour>
        <pt x="346" y="685" on="1"/>
        <pt x="339" y="631" on="0"/>
        <pt x="278" y="568" on="0"/>
        <pt x="221" y="568" on="1"/>
        <pt x="165" y="568" on="0"/>
        <pt x="103" y="630" on="0"/>
        <pt x="97" y="685" on="1"/>
        <pt x="147" y="694" on="1"/>
        <pt x="153" y="660" on="0"/>
        <pt x="192" y="628" on="0"/>
        <pt x="221" y="628" on="1"/>
        <pt x="283" y="628" on="0"/>
        <pt x="296" y="694" on="1"/>
      </contour>
    </TTGlyph>
    <TTGlyph name="bullet" xMin="95" yMin="230" xMax="332" yMax="498">
      <contour>
        <pt x="314" y="248" on="1"/>
        <pt x="214" y="230" on="1"/>
        <pt x="113" y="248" on="1"/>
        <pt x="95" y="365" on="1"/>
        <pt x="113" y="481" on="1"/>
        <pt x="214" y="498" on="1"/>
        <pt x="314" y="481" on="1"/>
        <pt x="332" y="365" on="1"/>
      </contour>
    </TTGlyph>
    <TTGlyph name="c" xMin="51" yMin="-10" xMax="419" yMax="544">
      <contour>
        <pt x="419" y="41" on="1"/>
        <pt x="387" y="17" on="0"/>
        <pt x="313" y="-10" on="0"/>
        <pt x="268" y="-10" on="1"/>
        <pt x="219" y="-10" on="0"/>
        <pt x="139" y="28" on="0"/>
        <pt x="82" y="100" on="0"/>
        <pt x="51" y="202" on="0"/>
        <pt x="51" y="267" on="1"/>
        <pt x="51" y="331" on="0"/>
        <pt x="84" y="434" on="0"/>
        <pt x="142" y="506" on="0"/>
        <pt x="224" y="544" on="0"/>
        <pt x="274" y="544" on="1"/>
        <pt x="318" y="544" on="0"/>
        <pt x="388" y="520" on="0"/>
        <pt x="415" y="500" on="1"/>
        <pt x="402" y="425" on="1"/>
        <pt x="370" y="451" on="0"/>
        <pt x="309" y="478" on="0"/>
        <pt x="272" y="478" on="1"/>
        <pt x="239" y="478" on="0"/>
        <pt x="186" y="448" on="0"/>
        <pt x="147" y="394" on="0"/>
        <pt x="126" y="316" on="0"/>
        <pt x="126" y="268" on="1"/>
        <pt x="126" y="170" on="0"/>
        <pt x="207" y="56" on="0"/>
        <pt x="275" y="56" on="1"/>
        <pt x="310" y="56" on="0"/>
        <pt x="375" y="81" on="0"/>
        <pt x="409" y="110" on="1"/>
      </contour>
    </TTGlyph>
    <TTGlyph name="cacute" xMin="51" yMin="-10" xMax="419" yMax="766">
      <component glyphName="acute" x="87" y="2" flags="0x4"/>
      <component glyphName="c" x="0" y="0" flags="0x4"/>
    </TTGlyph>
    <TTGlyph name="caron" xMin="103" yMin="605" xMax="369" yMax="759">
      <contour>
        <pt x="153" y="759" on="1"/>
        <pt x="236" y="673" on="1"/>
        <pt x="319" y="759" on="1"/>
        <pt x="369" y="759" on="1"/>
        <pt x="269" y="605" on="1"/>
        <pt x="204" y="605" on="1"/>
        <pt x="103" y="759" on="1"/>
      </contour>
    </TTGlyph>
    <TTGlyph name="caron.alt" xMin="181" yMin="600" xMax="283" yMax="804">
      <contour>
        <pt x="262" y="804" on="1"/>
        <pt x="272" y="785" on="0"/>
        <pt x="283" y="748" on="0"/>
        <pt x="283" y="728" on="1"/>
        <pt x="283" y="691" on="0"/>
        <pt x="245" y="626" on="0"/>
        <pt x="216" y="600" on="1"/>
        <pt x="181" y="608" on="1"/>
        <pt x="200" y="637" on="0"/>
        <pt x="217" y="682" on="0"/>
        <pt x="217" y="708" on="1"/>
        <pt x="217" y="729" on="0"/>
        <pt x="204" y="768" on="0"/>
        <pt x="193" y="791" on="1"/>
      </contour>
    </TTGlyph>
    <TTGlyph name="caron.alt.cap" xMin="169" yMin="562" xMax="267" yMax="754">
      <contour>
        <pt x="247" y="754" on="1"/>
        <pt x="256" y="737" on="0"/>
        <pt x="267" y="702" on="0"/>
        <pt x="267" y="683" on="1"/>
        <pt x="267" y="648" on="0"/>
        <pt x="231" y="587" on="0"/>
        <pt x="204" y="562" on="1"/>
        <pt x="169" y="571" on="1"/>
        <pt x="187" y="597" on="0"/>
        <pt x="203" y="640" on="0"/>
        <pt x="203" y="664" on="1"/>
        <pt x="203" y="684" on="0"/>
        <pt x="192" y="720" on="0"/>
        <pt x="181" y="742" on="1"/>
      </contour>
    </TTGlyph>
    <TTGlyph name="caron.cap" xMin="96" yMin="567" xMax="348" yMax="712">
      <contour>
        <pt x="144" y="712" on="1"/>
        <pt x="222" y="632" on="1"/>
        <pt x="299" y="712" on="1"/>
        <pt x="348" y="712" on="1"/>
        <pt x="253" y="567" on="1"/>
        <pt x="190" y="567" on="1"/>
        <pt x="96" y="712" on="1"/>
      </contour>
    </TTGlyph>
    <TTGlyph name="ccaron" xMin="51" yMin="-10" xMax="419" yMax="761">
      <component glyphName="caron" x="29" y="2" flags="0x4"/>
      <component glyphName="c" x="0" y="0" flags="0x4"/>
    </TTGlyph>
    <TTGlyph name="ccedilla" xMin="51" yMin="-209" xMax="419" yMax="544">
      <component glyphName="c" x="0" y="0" flags="0x204"/>
      <component glyphName="cedilla" x="9" y="0" flags="0x4"/>
    </TTGlyph>
    <TTGlyph name="cdotaccent" xMin="51" yMin="-10" xMax="419" yMax="712">
      <component glyphName="c" x="0" y="0" flags="0x204"/>
      <component glyphName="dotaccent" x="29" y="2" flags="0x4"/>
    </TTGlyph>
    <TTGlyph name="cedilla" xMin="136" yMin="-209" xMax="310" yMax="-63">
      <contour>
        <pt x="187" y="-209" on="1"/>
        <pt x="136" y="-209" on="1"/>
        <pt x="221" y="-63" on="1"/>
        <pt x="310" y="-86" on="1"/>
      </contour>
    </TTGlyph>
    <TTGlyph name="cedilla.cap" xMin="128" yMin="-197" xMax="292" yMax="-59">
      <contour>
        <pt x="177" y="-197" on="1"/>
        <pt x="128" y="-197" on="1"/>
        <pt x="206" y="-59" on="1"/>
        <pt x="292" y="-81" on="1"/>
      </contour>
    </TTGlyph>
    <TTGlyph name="cent" xMin="52" yMin="-11" xMax="410" yMax="727">
      <contour>
        <pt x="410" y="149" on="1"/>
        <pt x="378" y="126" on="0"/>
        <pt x="305" y="100" on="0"/>
        <pt x="258" y="100" on="1"/>
        <pt x="245" y="100" on="1"/>
        <pt x="228" y="-11" on="1"/>
        <pt x="175" y="1" on="1"/>
        <pt x="192" y="111" on="1"/>
        <pt x="130" y="132" on="0"/>
        <pt x="52" y="255" on="0"/>
        <pt x="52" y="356" on="1"/>
        <pt x="52" y="418" on="0"/>
        <pt x="84" y="515" on="0"/>
        <pt x="141" y="581" on="0"/>
        <pt x="218" y="616" on="0"/>
        <pt x="263" y="616" on="1"/>
        <pt x="271" y="616" on="1"/>
        <pt x="289" y="727" on="1"/>
        <pt x="342" y="715" on="1"/>
        <pt x="325" y="610" on="1"/>
        <pt x="350" y="604" on="0"/>
        <pt x="390" y="585" on="0"/>
        <pt x="407" y="573" on="1"/>
        <pt x="395" y="503" on="1"/>
        <pt x="376" y="519" on="0"/>
        <pt x="337" y="542" on="0"/>
        <pt x="314" y="549" on="1"/>
        <pt x="254" y="162" on="1"/>
        <pt x="258" y="161" on="0"/>
        <pt x="267" y="161" on="1"/>
        <pt x="305" y="161" on="0"/>
        <pt x="369" y="187" on="0"/>
        <pt x="400" y="213" on="1"/>
      </contour>
      <contour>
        <pt x="121" y="358" on="1"/>
        <pt x="121" y="289" on="0"/>
        <pt x="164" y="195" on="0"/>
        <pt x="204" y="175" on="1"/>
        <pt x="263" y="556" on="1"/>
        <pt x="256" y="556" on="1"/>
        <pt x="194" y="553" on="0"/>
        <pt x="121" y="448" on="0"/>
      </contour>
    </TTGlyph>
    <TTGlyph name="cent.tab" xMin="77" yMin="-12" xMax="451" yMax="727">
      <contour>
        <pt x="451" y="151" on="1"/>
        <pt x="417" y="127" on="0"/>
        <pt x="340" y="101" on="0"/>
        <pt x="292" y="101" on="1"/>
        <pt x="278" y="101" on="1"/>
        <pt x="260" y="-12" on="1"/>
        <pt x="208" y="0" on="1"/>
        <pt x="226" y="111" on="1"/>
        <pt x="160" y="132" on="0"/>
        <pt x="77" y="256" on="0"/>
        <pt x="77" y="356" on="1"/>
        <pt x="77" y="417" on="0"/>
        <pt x="111" y="514" on="0"/>
        <pt x="170" y="580" on="0"/>
        <pt x="250" y="615" on="0"/>
        <pt x="297" y="615" on="1"/>
        <pt x="303" y="615" on="1"/>
        <pt x="321" y="727" on="1"/>
        <pt x="374" y="715" on="1"/>
        <pt x="357" y="610" on="1"/>
        <pt x="385" y="604" on="0"/>
        <pt x="428" y="584" on="0"/>
        <pt x="447" y="571" on="1"/>
        <pt x="436" y="502" on="1"/>
        <pt x="415" y="519" on="0"/>
        <pt x="372" y="543" on="0"/>
        <pt x="346" y="549" on="1"/>
        <pt x="287" y="162" on="1"/>
        <pt x="301" y="162" on="1"/>
        <pt x="340" y="162" on="0"/>
        <pt x="408" y="188" on="0"/>
        <pt x="441" y="214" on="1"/>
      </contour>
      <contour>
        <pt x="146" y="358" on="1"/>
        <pt x="146" y="288" on="0"/>
        <pt x="193" y="194" on="0"/>
        <pt x="237" y="174" on="1"/>
        <pt x="295" y="555" on="1"/>
        <pt x="289" y="555" on="1"/>
        <pt x="223" y="552" on="0"/>
        <pt x="146" y="447" on="0"/>
      </contour>
    </TTGlyph>
    <TTGlyph name="circumflex" xMin="102" yMin="605" xMax="368" yMax="760">
      <contour>
        <pt x="318" y="605" on="1"/>
        <pt x="235" y="692" on="1"/>
        <pt x="152" y="605" on="1"/>
        <pt x="102" y="605" on="1"/>
        <pt x="203" y="760" on="1"/>
        <pt x="268" y="760" on="1"/>
        <pt x="368" y="605" on="1"/>
      </contour>
    </TTGlyph>
    <TTGlyph name="circumflex.cap" xMin="95" yMin="567" xMax="347" yMax="713">
      <contour>
        <pt x="298" y="567" on="1"/>
        <pt x="221" y="648" on="1"/>
        <pt x="143" y="567" on="1"/>
        <pt x="95" y="567" on="1"/>
        <pt x="189" y="713" on="1"/>
        <pt x="253" y="713" on="1"/>
        <pt x="347" y="567" on="1"/>
      </contour>
    </TTGlyph>
    <TTGlyph name="colon" xMin="71" yMin="0" xMax="158" yMax="533">
      <contour>
        <pt x="71" y="422" on="1"/>
        <pt x="71" y="533" on="1"/>
        <pt x="158" y="533" on="1"/>
        <pt x="158" y="422" on="1"/>
      </contour>
      <contour>
        <pt x="71" y="0" on="1"/>
        <pt x="71" y="112" on="1"/>
        <pt x="158" y="112" on="1"/>
        <pt x="158" y="0" on="1"/>
      </contour>
    </TTGlyph>
    <TTGlyph name="colon.tab" xMin="90" yMin="0" xMax="175" yMax="533">
      <contour>
        <pt x="90" y="422" on="1"/>
        <pt x="90" y="533" on="1"/>
        <pt x="175" y="533" on="1"/>
        <pt x="175" y="422" on="1"/>
      </contour>
      <contour>
        <pt x="90" y="0" on="1"/>
        <pt x="90" y="112" on="1"/>
        <pt x="175" y="112" on="1"/>
        <pt x="175" y="0" on="1"/>
      </contour>
    </TTGlyph>
    <TTGlyph name="colonmonetary" xMin="46" yMin="-126" xMax="504" yMax="798">
      <contour>
        <pt x="166" y="-113" on="1"/>
        <pt x="188" y="27" on="1"/>
        <pt x="119" y="68" on="0"/>
        <pt x="46" y="236" on="0"/>
        <pt x="46" y="353" on="1"/>
        <pt x="46" y="431" on="0"/>
        <pt x="79" y="561" on="0"/>
        <pt x="143" y="658" on="0"/>
        <pt x="235" y="715" on="0"/>
        <pt x="295" y="720" on="1"/>
        <pt x="307" y="798" on="1"/>
        <pt x="360" y="786" on="1"/>
        <pt x="350" y="719" on="1"/>
        <pt x="374" y="717" on="0"/>
        <pt x="417" y="704" on="0"/>
        <pt x="435" y="696" on="1"/>
        <pt x="451" y="798" on="1"/>
        <pt x="504" y="786" on="1"/>
        <pt x="392" y="69" on="1"/>
        <pt x="415" y="77" on="0"/>
        <pt x="459" y="103" on="0"/>
        <pt x="482" y="120" on="1"/>
        <pt x="492" y="55" on="1"/>
        <pt x="468" y="38" on="0"/>
        <pt x="414" y="13" on="0"/>
        <pt x="382" y="5" on="1"/>
        <pt x="362" y="-126" on="1"/>
        <pt x="309" y="-113" on="1"/>
        <pt x="327" y="-4" on="1"/>
        <pt x="310" y="-4" on="1"/>
        <pt x="270" y="-4" on="0"/>
        <pt x="239" y="6" on="1"/>
        <pt x="218" y="-126" on="1"/>
      </contour>
      <contour>
        <pt x="115" y="349" on="1"/>
        <pt x="115" y="264" on="0"/>
        <pt x="157" y="133" on="0"/>
        <pt x="200" y="96" on="1"/>
        <pt x="288" y="658" on="1"/>
        <pt x="245" y="652" on="0"/>
        <pt x="180" y="601" on="0"/>
        <pt x="137" y="519" on="0"/>
        <pt x="115" y="412" on="0"/>
      </contour>
      <contour>
        <pt x="316" y="56" on="1"/>
        <pt x="322" y="56" on="0"/>
        <pt x="334" y="56" on="0"/>
        <pt x="340" y="57" on="1"/>
        <pt x="429" y="629" on="1"/>
        <pt x="408" y="641" on="0"/>
        <pt x="364" y="657" on="0"/>
        <pt x="338" y="659" on="1"/>
        <pt x="246" y="68" on="1"/>
        <pt x="277" y="56" on="0"/>
      </contour>
    </TTGlyph>
    <TTGlyph name="comma" xMin="31" yMin="-144" xMax="170" yMax="112">
      <contour>
        <pt x="72" y="-144" on="1"/>
        <pt x="31" y="-135" on="1"/>
        <pt x="80" y="112" on="1"/>
        <pt x="170" y="112" on="1"/>
      </contour>
    </TTGlyph>
    <TTGlyph name="comma.alt" xMin="28" yMin="-146" xMax="159" yMax="112">
      <contour>
        <pt x="153" y="112" on="1"/>
        <pt x="159" y="83" on="0"/>
        <pt x="159" y="55" on="1"/>
        <pt x="159" y="4" on="0"/>
        <pt x="114" y="-95" on="0"/>
        <pt x="69" y="-146" on="1"/>
        <pt x="28" y="-131" on="1"/>
        <pt x="57" y="-80" on="0"/>
        <pt x="81" y="5" on="0"/>
        <pt x="81" y="46" on="1"/>
        <pt x="81" y="61" on="0"/>
        <pt x="77" y="92" on="0"/>
        <pt x="73" y="112" on="1"/>
      </contour>
    </TTGlyph>
    <TTGlyph name="comma.tab" xMin="55" yMin="-155" xMax="192" yMax="112">
      <contour>
        <pt x="98" y="-155" on="1"/>
        <pt x="55" y="-146" on="1"/>
        <pt x="103" y="112" on="1"/>
        <pt x="192" y="112" on="1"/>
      </contour>
    </TTGlyph>
    <TTGlyph name="comma.tab_alt" xMin="50" yMin="-155" xMax="183" yMax="112">
      <contour>
        <pt x="176" y="112" on="1"/>
        <pt x="183" y="84" on="0"/>
        <pt x="183" y="53" on="1"/>
        <pt x="183" y="-1" on="0"/>
        <pt x="136" y="-102" on="0"/>
        <pt x="89" y="-155" on="1"/>
        <pt x="50" y="-139" on="1"/>
        <pt x="81" y="-86" on="0"/>
        <pt x="105" y="2" on="0"/>
        <pt x="105" y="44" on="1"/>
        <pt x="105" y="59" on="0"/>
        <pt x="101" y="91" on="0"/>
        <pt x="97" y="112" on="1"/>
      </contour>
    </TTGlyph>
    <TTGlyph name="commaaccent" xMin="160" yMin="-256" xMax="280" yMax="-65">
      <contour>
        <pt x="241" y="-65" on="1"/>
        <pt x="261" y="-85" on="0"/>
        <pt x="280" y="-121" on="0"/>
        <pt x="280" y="-143" on="1"/>
        <pt x="280" y="-171" on="0"/>
        <pt x="243" y="-225" on="0"/>
        <pt x="207" y="-256" on="1"/>
        <pt x="160" y="-247" on="1"/>
        <pt x="185" y="-217" on="0"/>
        <pt x="208" y="-173" on="0"/>
        <pt x="208" y="-153" on="1"/>
        <pt x="208" y="-136" on="0"/>
        <pt x="192" y="-107" on="0"/>
        <pt x="172" y="-87" on="1"/>
      </contour>
    </TTGlyph>
    <TTGlyph name="commaaccent.cap" xMin="151" yMin="-241" xMax="264" yMax="-61">
      <contour>
        <pt x="228" y="-61" on="1"/>
        <pt x="247" y="-79" on="0"/>
        <pt x="264" y="-114" on="0"/>
        <pt x="264" y="-135" on="1"/>
        <pt x="264" y="-161" on="0"/>
        <pt x="231" y="-212" on="0"/>
        <pt x="196" y="-241" on="1"/>
        <pt x="151" y="-232" on="1"/>
        <pt x="174" y="-204" on="0"/>
        <pt x="195" y="-163" on="0"/>
        <pt x="195" y="-144" on="1"/>
        <pt x="195" y="-128" on="0"/>
        <pt x="180" y="-100" on="0"/>
        <pt x="161" y="-82" on="1"/>
      </contour>
    </TTGlyph>
    <TTGlyph name="commaaccent.rot" xMin="189" yMin="605" xMax="308" yMax="796">
      <contour>
        <pt x="228" y="605" on="1"/>
        <pt x="208" y="625" on="0"/>
        <pt x="189" y="661" on="0"/>
        <pt x="189" y="683" on="1"/>
        <pt x="189" y="711" on="0"/>
        <pt x="226" y="765" on="0"/>
        <pt x="262" y="796" on="1"/>
        <pt x="308" y="787" on="1"/>
        <pt x="283" y="757" on="0"/>
        <pt x="261" y="713" on="0"/>
        <pt x="261" y="693" on="1"/>
        <pt x="261" y="676" on="0"/>
        <pt x="277" y="647" on="0"/>
        <pt x="297" y="627" on="1"/>
      </contour>
    </TTGlyph>
    <TTGlyph name="copyright" xMin="57" yMin="-18" xMax="709" yMax="742">
      <contour>
        <pt x="709" y="363" on="1"/>
        <pt x="709" y="279" on="0"/>
        <pt x="662" y="139" on="0"/>
        <pt x="576" y="38" on="0"/>
        <pt x="457" y="-18" on="0"/>
        <pt x="384" y="-18" on="1"/>
        <pt x="311" y="-18" on="0"/>
        <pt x="190" y="38" on="0"/>
        <pt x="104" y="139" on="0"/>
        <pt x="57" y="278" on="0"/>
        <pt x="57" y="362" on="1"/>
        <pt x="57" y="446" on="0"/>
        <pt x="104" y="585" on="0"/>
        <pt x="190" y="686" on="0"/>
        <pt x="310" y="742" on="0"/>
        <pt x="383" y="742" on="1"/>
        <pt x="456" y="742" on="0"/>
        <pt x="577" y="686" on="0"/>
        <pt x="662" y="586" on="0"/>
        <pt x="709" y="447" on="0"/>
      </contour>
      <contour>
        <pt x="671" y="362" on="1"/>
        <pt x="671" y="442" on="0"/>
        <pt x="628" y="571" on="0"/>
        <pt x="551" y="661" on="0"/>
        <pt x="445" y="710" on="0"/>
        <pt x="383" y="710" on="1"/>
        <pt x="320" y="710" on="0"/>
        <pt x="215" y="661" on="0"/>
        <pt x="139" y="570" on="0"/>
        <pt x="96" y="441" on="0"/>
        <pt x="96" y="362" on="1"/>
        <pt x="96" y="282" on="0"/>
        <pt x="139" y="154" on="0"/>
        <pt x="216" y="64" on="0"/>
        <pt x="322" y="16" on="0"/>
        <pt x="385" y="16" on="1"/>
        <pt x="447" y="16" on="0"/>
        <pt x="552" y="65" on="0"/>
        <pt x="628" y="155" on="0"/>
        <pt x="671" y="283" on="0"/>
      </contour>
      <contour>
        <pt x="505" y="190" on="1"/>
        <pt x="482" y="172" on="0"/>
        <pt x="426" y="151" on="0"/>
        <pt x="392" y="151" on="1"/>
        <pt x="354" y="151" on="0"/>
        <pt x="293" y="181" on="0"/>
        <pt x="250" y="237" on="0"/>
        <pt x="226" y="316" on="0"/>
        <pt x="226" y="365" on="1"/>
        <pt x="226" y="413" on="0"/>
        <pt x="250" y="493" on="0"/>
        <pt x="294" y="550" on="0"/>
        <pt x="357" y="581" on="0"/>
        <pt x="395" y="581" on="1"/>
        <pt x="426" y="581" on="0"/>
        <pt x="475" y="564" on="0"/>
        <pt x="498" y="549" on="1"/>
        <pt x="490" y="491" on="1"/>
        <pt x="464" y="510" on="0"/>
        <pt x="420" y="527" on="0"/>
        <pt x="394" y="527" on="1"/>
        <pt x="343" y="527" on="0"/>
        <pt x="283" y="438" on="0"/>
        <pt x="283" y="366" on="1"/>
        <pt x="283" y="293" on="0"/>
        <pt x="343" y="204" on="0"/>
        <pt x="394" y="204" on="1"/>
        <pt x="423" y="204" on="0"/>
        <pt x="471" y="225" on="0"/>
        <pt x="498" y="245" on="1"/>
      </contour>
    </TTGlyph>
    <TTGlyph name="d" xMin="52" yMin="-11" xMax="462" yMax="805">
      <contour>
        <pt x="405" y="0" on="1"/>
        <pt x="393" y="71" on="1"/>
        <pt x="363" y="36" on="0"/>
        <pt x="292" y="-11" on="0"/>
        <pt x="242" y="-11" on="1"/>
        <pt x="202" y="-11" on="0"/>
        <pt x="133" y="21" on="0"/>
        <pt x="82" y="87" on="0"/>
        <pt x="52" y="187" on="0"/>
        <pt x="52" y="255" on="1"/>
        <pt x="52" y="328" on="0"/>
        <pt x="88" y="435" on="0"/>
        <pt x="149" y="505" on="0"/>
        <pt x="230" y="540" on="0"/>
        <pt x="274" y="540" on="1"/>
        <pt x="307" y="540" on="0"/>
        <pt x="363" y="528" on="0"/>
        <pt x="387" y="518" on="1"/>
        <pt x="387" y="792" on="1"/>
        <pt x="462" y="805" on="1"/>
        <pt x="462" y="0" on="1"/>
      </contour>
      <contour>
        <pt x="387" y="450" on="1"/>
        <pt x="361" y="462" on="0"/>
        <pt x="310" y="475" on="0"/>
        <pt x="278" y="475" on="1"/>
        <pt x="246" y="475" on="0"/>
        <pt x="190" y="449" on="0"/>
        <pt x="150" y="395" on="0"/>
        <pt x="127" y="313" on="0"/>
        <pt x="127" y="257" on="1"/>
        <pt x="127" y="157" on="0"/>
        <pt x="197" y="57" on="0"/>
        <pt x="251" y="57" on="1"/>
        <pt x="289" y="57" on="0"/>
        <pt x="353" y="102" on="0"/>
        <pt x="387" y="141" on="1"/>
      </contour>
    </TTGlyph>
    <TTGlyph name="dagger" xMin="58" yMin="-102" xMax="442" yMax="725">
      <contour>
        <pt x="262" y="520" on="1"/>
        <pt x="238" y="520" on="1"/>
        <pt x="220" y="642" on="1"/>
        <pt x="220" y="725" on="1"/>
        <pt x="281" y="725" on="1"/>
        <pt x="281" y="642" on="1"/>
      </contour>
      <contour>
        <pt x="398" y="455" on="1"/>
        <pt x="283" y="474" on="1"/>
        <pt x="283" y="497" on="1"/>
        <pt x="398" y="517" on="1"/>
        <pt x="442" y="517" on="1"/>
        <pt x="442" y="455" on="1"/>
      </contour>
      <contour>
        <pt x="102" y="455" on="1"/>
        <pt x="58" y="455" on="1"/>
        <pt x="58" y="517" on="1"/>
        <pt x="102" y="517" on="1"/>
        <pt x="217" y="497" on="1"/>
        <pt x="217" y="474" on="1"/>
      </contour>
      <contour>
        <pt x="260" y="-102" on="1"/>
        <pt x="240" y="-102" on="1"/>
        <pt x="222" y="26" on="1"/>
        <pt x="222" y="334" on="1"/>
        <pt x="238" y="452" on="1"/>
        <pt x="262" y="452" on="1"/>
        <pt x="278" y="334" on="1"/>
        <pt x="278" y="26" on="1"/>
      </contour>
    </TTGlyph>
    <TTGlyph name="daggerdbl" xMin="63" yMin="-173" xMax="447" yMax="725">
      <contour>
        <pt x="267" y="520" on="1"/>
        <pt x="243" y="520" on="1"/>
        <pt x="224" y="642" on="1"/>
        <pt x="224" y="725" on="1"/>
        <pt x="286" y="725" on="1"/>
        <pt x="286" y="642" on="1"/>
      </contour>
      <contour>
        <pt x="402" y="455" on="1"/>
        <pt x="288" y="474" on="1"/>
        <pt x="288" y="497" on="1"/>
        <pt x="402" y="517" on="1"/>
        <pt x="447" y="517" on="1"/>
        <pt x="447" y="455" on="1"/>
      </contour>
      <contour>
        <pt x="107" y="455" on="1"/>
        <pt x="63" y="455" on="1"/>
        <pt x="63" y="517" on="1"/>
        <pt x="107" y="517" on="1"/>
        <pt x="222" y="497" on="1"/>
        <pt x="222" y="474" on="1"/>
      </contour>
      <contour>
        <pt x="267" y="101" on="1"/>
        <pt x="243" y="101" on="1"/>
        <pt x="227" y="219" on="1"/>
        <pt x="227" y="334" on="1"/>
        <pt x="243" y="452" on="1"/>
        <pt x="267" y="452" on="1"/>
        <pt x="283" y="334" on="1"/>
        <pt x="283" y="219" on="1"/>
      </contour>
      <contour>
        <pt x="402" y="36" on="1"/>
        <pt x="288" y="55" on="1"/>
        <pt x="288" y="79" on="1"/>
        <pt x="402" y="98" on="1"/>
        <pt x="447" y="98" on="1"/>
        <pt x="447" y="36" on="1"/>
      </contour>
      <contour>
        <pt x="107" y="36" on="1"/>
        <pt x="63" y="36" on="1"/>
        <pt x="63" y="98" on="1"/>
        <pt x="107" y="98" on="1"/>
        <pt x="222" y="79" on="1"/>
        <pt x="222" y="55" on="1"/>
      </contour>
      <contour>
        <pt x="224" y="-173" on="1"/>
        <pt x="224" y="-90" on="1"/>
        <pt x="243" y="33" on="1"/>
        <pt x="267" y="33" on="1"/>
        <pt x="286" y="-90" on="1"/>
        <pt x="286" y="-173" on="1"/>
      </contour>
    </TTGlyph>
    <TTGlyph name="dcaron" xMin="52" yMin="-11" xMax="613" yMax="806">
      <component glyphName="caron.alt" x="330" y="2" flags="0x4"/>
      <component glyphName="d" x="0" y="0" flags="0x4"/>
    </TTGlyph>
    <TTGlyph name="dcroat" xMin="52" yMin="-11" xMax="534" yMax="805">
      <contour>
        <pt x="405" y="0" on="1"/>
        <pt x="393" y="71" on="1"/>
        <pt x="363" y="36" on="0"/>
        <pt x="291" y="-11" on="0"/>
        <pt x="242" y="-11" on="1"/>
        <pt x="202" y="-11" on="0"/>
        <pt x="133" y="21" on="0"/>
        <pt x="82" y="87" on="0"/>
        <pt x="52" y="187" on="0"/>
        <pt x="52" y="255" on="1"/>
        <pt x="52" y="328" on="0"/>
        <pt x="88" y="435" on="0"/>
        <pt x="149" y="505" on="0"/>
        <pt x="230" y="540" on="0"/>
        <pt x="274" y="540" on="1"/>
        <pt x="307" y="540" on="0"/>
        <pt x="363" y="528" on="0"/>
        <pt x="387" y="518" on="1"/>
        <pt x="387" y="645" on="1"/>
        <pt x="246" y="645" on="1"/>
        <pt x="236" y="706" on="1"/>
        <pt x="387" y="706" on="1"/>
        <pt x="387" y="792" on="1"/>
        <pt x="462" y="805" on="1"/>
        <pt x="462" y="706" on="1"/>
        <pt x="534" y="706" on="1"/>
        <pt x="534" y="645" on="1"/>
        <pt x="462" y="645" on="1"/>
        <pt x="462" y="0" on="1"/>
      </contour>
      <contour>
        <pt x="387" y="450" on="1"/>
        <pt x="361" y="462" on="0"/>
        <pt x="310" y="475" on="0"/>
        <pt x="278" y="475" on="1"/>
        <pt x="246" y="475" on="0"/>
        <pt x="190" y="449" on="0"/>
        <pt x="150" y="395" on="0"/>
        <pt x="127" y="313" on="0"/>
        <pt x="127" y="257" on="1"/>
        <pt x="127" y="157" on="0"/>
        <pt x="197" y="57" on="0"/>
        <pt x="251" y="57" on="1"/>
        <pt x="288" y="57" on="0"/>
        <pt x="353" y="102" on="0"/>
        <pt x="387" y="141" on="1"/>
      </contour>
    </TTGlyph>
    <TTGlyph name="dcroat.flat" xMin="52" yMin="-11" xMax="534" yMax="805">
      <contour>
        <pt x="405" y="0" on="1"/>
        <pt x="393" y="71" on="1"/>
        <pt x="363" y="36" on="0"/>
        <pt x="291" y="-11" on="0"/>
        <pt x="242" y="-11" on="1"/>
        <pt x="202" y="-11" on="0"/>
        <pt x="133" y="21" on="0"/>
        <pt x="82" y="87" on="0"/>
        <pt x="52" y="187" on="0"/>
        <pt x="52" y="255" on="1"/>
        <pt x="52" y="328" on="0"/>
        <pt x="88" y="435" on="0"/>
        <pt x="149" y="505" on="0"/>
        <pt x="230" y="540" on="0"/>
        <pt x="274" y="540" on="1"/>
        <pt x="307" y="540" on="0"/>
        <pt x="363" y="528" on="0"/>
        <pt x="387" y="518" on="1"/>
        <pt x="387" y="645" on="1"/>
        <pt x="241" y="645" on="1"/>
        <pt x="241" y="706" on="1"/>
        <pt x="387" y="706" on="1"/>
        <pt x="387" y="792" on="1"/>
        <pt x="462" y="805" on="1"/>
        <pt x="462" y="706" on="1"/>
        <pt x="534" y="706" on="1"/>
        <pt x="534" y="645" on="1"/>
        <pt x="462" y="645" on="1"/>
        <pt x="462" y="0" on="1"/>
      </contour>
      <contour>
        <pt x="387" y="450" on="1"/>
        <pt x="361" y="462" on="0"/>
        <pt x="310" y="475" on="0"/>
        <pt x="278" y="475" on="1"/>
        <pt x="246" y="475" on="0"/>
        <pt x="190" y="449" on="0"/>
        <pt x="150" y="395" on="0"/>
        <pt x="127" y="313" on="0"/>
        <pt x="127" y="257" on="1"/>
        <pt x="127" y="157" on="0"/>
        <pt x="197" y="57" on="0"/>
        <pt x="251" y="57" on="1"/>
        <pt x="288" y="57" on="0"/>
        <pt x="353" y="102" on="0"/>
        <pt x="387" y="141" on="1"/>
      </contour>
    </TTGlyph>
    <TTGlyph name="degree" xMin="56" yMin="424" xMax="356" yMax="724">
      <contour>
        <pt x="356" y="573" on="1"/>
        <pt x="356" y="541" on="0"/>
        <pt x="333" y="487" on="0"/>
        <pt x="293" y="447" on="0"/>
        <pt x="238" y="424" on="0"/>
        <pt x="206" y="424" on="1"/>
        <pt x="174" y="424" on="0"/>
        <pt x="119" y="447" on="0"/>
        <pt x="79" y="487" on="0"/>
        <pt x="56" y="541" on="0"/>
        <pt x="56" y="573" on="1"/>
        <pt x="56" y="605" on="0"/>
        <pt x="79" y="660" on="0"/>
        <pt x="119" y="701" on="0"/>
        <pt x="174" y="724" on="0"/>
        <pt x="206" y="724" on="1"/>
        <pt x="238" y="724" on="0"/>
        <pt x="293" y="701" on="0"/>
        <pt x="333" y="660" on="0"/>
        <pt x="356" y="605" on="0"/>
      </contour>
      <contour>
        <pt x="301" y="573" on="1"/>
        <pt x="301" y="594" on="0"/>
        <pt x="286" y="630" on="0"/>
        <pt x="261" y="657" on="0"/>
        <pt x="226" y="673" on="0"/>
        <pt x="206" y="673" on="1"/>
        <pt x="164" y="673" on="0"/>
        <pt x="112" y="615" on="0"/>
        <pt x="112" y="573" on="1"/>
        <pt x="112" y="531" on="0"/>
        <pt x="165" y="475" on="0"/>
        <pt x="207" y="475" on="1"/>
        <pt x="248" y="475" on="0"/>
        <pt x="301" y="531" on="0"/>
      </contour>
    </TTGlyph>
    <TTGlyph name="degree.tab" xMin="92" yMin="384" xMax="436" yMax="726">
      <contour>
        <pt x="436" y="554" on="1"/>
        <pt x="436" y="517" on="0"/>
        <pt x="410" y="454" on="0"/>
        <pt x="364" y="409" on="0"/>
        <pt x="301" y="384" on="0"/>
        <pt x="264" y="384" on="1"/>
        <pt x="227" y="384" on="0"/>
        <pt x="164" y="409" on="0"/>
        <pt x="118" y="454" on="0"/>
        <pt x="92" y="517" on="0"/>
        <pt x="92" y="554" on="1"/>
        <pt x="92" y="591" on="0"/>
        <pt x="118" y="654" on="0"/>
        <pt x="164" y="700" on="0"/>
        <pt x="227" y="726" on="0"/>
        <pt x="264" y="726" on="1"/>
        <pt x="301" y="726" on="0"/>
        <pt x="364" y="700" on="0"/>
        <pt x="410" y="654" on="0"/>
        <pt x="436" y="591" on="0"/>
      </contour>
      <contour>
        <pt x="149" y="554" on="1"/>
        <pt x="149" y="528" on="0"/>
        <pt x="166" y="485" on="0"/>
        <pt x="197" y="454" on="0"/>
        <pt x="239" y="436" on="0"/>
        <pt x="264" y="436" on="1"/>
        <pt x="289" y="436" on="0"/>
        <pt x="331" y="454" on="0"/>
        <pt x="362" y="485" on="0"/>
        <pt x="379" y="528" on="0"/>
        <pt x="379" y="554" on="1"/>
        <pt x="379" y="579" on="0"/>
        <pt x="362" y="623" on="0"/>
        <pt x="331" y="655" on="0"/>
        <pt x="289" y="673" on="0"/>
        <pt x="264" y="673" on="1"/>
        <pt x="213" y="673" on="0"/>
        <pt x="149" y="605" on="0"/>
      </contour>
    </TTGlyph>
    <TTGlyph name="dieresis" xMin="108" yMin="612" xMax="363" yMax="710">
      <contour>
        <pt x="108" y="612" on="1"/>
        <pt x="108" y="710" on="1"/>
        <pt x="193" y="710" on="1"/>
        <pt x="193" y="612" on="1"/>
      </contour>
      <contour>
        <pt x="279" y="612" on="1"/>
        <pt x="279" y="710" on="1"/>
        <pt x="363" y="710" on="1"/>
        <pt x="363" y="612" on="1"/>
      </contour>
    </TTGlyph>
    <TTGlyph name="dieresis.cap" xMin="100" yMin="574" xMax="342" yMax="667">
      <contour>
        <pt x="100" y="574" on="1"/>
        <pt x="100" y="667" on="1"/>
        <pt x="182" y="667" on="1"/>
        <pt x="182" y="574" on="1"/>
      </contour>
      <contour>
        <pt x="261" y="574" on="1"/>
        <pt x="261" y="667" on="1"/>
        <pt x="342" y="667" on="1"/>
        <pt x="342" y="574" on="1"/>
      </contour>
    </TTGlyph>
    <TTGlyph name="divide" xMin="58" yMin="138" xMax="477" yMax="580">
      <contour>
        <pt x="229" y="487" on="1"/>
        <pt x="229" y="580" on="1"/>
        <pt x="306" y="580" on="1"/>
        <pt x="306" y="487" on="1"/>
      </contour>
      <contour>
        <pt x="58" y="329" on="1"/>
        <pt x="58" y="388" on="1"/>
        <pt x="477" y="388" on="1"/>
        <pt x="477" y="329" on="1"/>
      </contour>
      <contour>
        <pt x="229" y="138" on="1"/>
        <pt x="229" y="231" on="1"/>
        <pt x="306" y="231" on="1"/>
        <pt x="306" y="138" on="1"/>
      </contour>
    </TTGlyph>
    <TTGlyph name="divide.tab" xMin="56" yMin="138" xMax="474" yMax="580">
      <contour>
        <pt x="226" y="487" on="1"/>
        <pt x="226" y="580" on="1"/>
        <pt x="303" y="580" on="1"/>
        <pt x="303" y="487" on="1"/>
      </contour>
      <contour>
        <pt x="56" y="329" on="1"/>
        <pt x="56" y="388" on="1"/>
        <pt x="474" y="388" on="1"/>
        <pt x="474" y="329" on="1"/>
      </contour>
      <contour>
        <pt x="226" y="138" on="1"/>
        <pt x="226" y="231" on="1"/>
        <pt x="303" y="231" on="1"/>
        <pt x="303" y="138" on="1"/>
      </contour>
    </TTGlyph>
    <TTGlyph name="dollar" xMin="44" yMin="-131" xMax="460" yMax="801">
      <contour>
        <pt x="344" y="713" on="1"/>
        <pt x="372" y="708" on="0"/>
        <pt x="420" y="691" on="0"/>
        <pt x="441" y="680" on="1"/>
        <pt x="430" y="611" on="1"/>
        <pt x="408" y="624" on="0"/>
        <pt x="359" y="645" on="0"/>
        <pt x="332" y="651" on="1"/>
        <pt x="292" y="395" on="1"/>
        <pt x="379" y="354" on="0"/>
        <pt x="460" y="261" on="0"/>
        <pt x="460" y="190" on="1"/>
        <pt x="460" y="145" on="0"/>
        <pt x="429" y="74" on="0"/>
        <pt x="373" y="24" on="0"/>
        <pt x="293" y="-3" on="0"/>
        <pt x="244" y="-3" on="1"/>
        <pt x="231" y="-3" on="1"/>
        <pt x="211" y="-131" on="1"/>
        <pt x="160" y="-119" on="1"/>
        <pt x="179" y="2" on="1"/>
        <pt x="139" y="9" on="0"/>
        <pt x="71" y="34" on="0"/>
        <pt x="44" y="48" on="1"/>
        <pt x="55" y="116" on="1"/>
        <pt x="86" y="98" on="0"/>
        <pt x="153" y="71" on="0"/>
        <pt x="190" y="64" on="1"/>
        <pt x="234" y="346" on="1"/>
        <pt x="151" y="384" on="0"/>
        <pt x="67" y="471" on="0"/>
        <pt x="67" y="542" on="1"/>
        <pt x="67" y="583" on="0"/>
        <pt x="96" y="649" on="0"/>
        <pt x="149" y="695" on="0"/>
        <pt x="224" y="720" on="0"/>
        <pt x="269" y="720" on="1"/>
        <pt x="274" y="720" on="0"/>
        <pt x="286" y="720" on="0"/>
        <pt x="291" y="719" on="1"/>
        <pt x="303" y="801" on="1"/>
        <pt x="356" y="789" on="1"/>
      </contour>
      <contour>
        <pt x="392" y="184" on="1"/>
        <pt x="392" y="205" on="0"/>
        <pt x="383" y="242" on="0"/>
        <pt x="358" y="276" on="0"/>
        <pt x="315" y="308" on="0"/>
        <pt x="281" y="324" on="1"/>
        <pt x="240" y="58" on="1"/>
        <pt x="251" y="58" on="1"/>
        <pt x="321" y="58" on="0"/>
        <pt x="392" y="128" on="0"/>
      </contour>
      <contour>
        <pt x="134" y="548" on="1"/>
        <pt x="134" y="503" on="0"/>
        <pt x="184" y="446" on="0"/>
        <pt x="245" y="417" on="1"/>
        <pt x="282" y="659" on="1"/>
        <pt x="277" y="660" on="0"/>
        <pt x="268" y="660" on="0"/>
        <pt x="263" y="660" on="1"/>
        <pt x="200" y="660" on="0"/>
        <pt x="134" y="598" on="0"/>
      </contour>
    </TTGlyph>
    <TTGlyph name="dollar.tab" xMin="48" yMin="-129" xMax="472" yMax="800">
      <contour>
        <pt x="169" y="-117" on="1"/>
        <pt x="187" y="2" on="1"/>
        <pt x="147" y="8" on="0"/>
        <pt x="78" y="33" on="0"/>
        <pt x="48" y="49" on="1"/>
        <pt x="59" y="117" on="1"/>
        <pt x="94" y="96" on="0"/>
        <pt x="161" y="68" on="0"/>
        <pt x="198" y="62" on="1"/>
        <pt x="239" y="347" on="1"/>
        <pt x="196" y="365" on="0"/>
        <pt x="132" y="403" on="0"/>
        <pt x="90" y="448" on="0"/>
        <pt x="69" y="503" on="0"/>
        <pt x="69" y="539" on="1"/>
        <pt x="69" y="580" on="0"/>
        <pt x="99" y="647" on="0"/>
        <pt x="151" y="694" on="0"/>
        <pt x="224" y="720" on="0"/>
        <pt x="268" y="720" on="1"/>
        <pt x="275" y="720" on="0"/>
        <pt x="287" y="720" on="0"/>
        <pt x="293" y="719" on="1"/>
        <pt x="304" y="800" on="1"/>
        <pt x="357" y="787" on="1"/>
        <pt x="345" y="714" on="1"/>
        <pt x="377" y="708" on="0"/>
        <pt x="429" y="689" on="0"/>
        <pt x="454" y="678" on="1"/>
        <pt x="443" y="609" on="1"/>
        <pt x="417" y="623" on="0"/>
        <pt x="364" y="646" on="0"/>
        <pt x="335" y="653" on="1"/>
        <pt x="298" y="395" on="1"/>
        <pt x="345" y="375" on="0"/>
        <pt x="411" y="334" on="0"/>
        <pt x="453" y="286" on="0"/>
        <pt x="472" y="228" on="0"/>
        <pt x="472" y="192" on="1"/>
        <pt x="472" y="148" on="0"/>
        <pt x="441" y="76" on="0"/>
        <pt x="384" y="25" on="0"/>
        <pt x="303" y="-3" on="0"/>
        <pt x="254" y="-3" on="1"/>
        <pt x="241" y="-3" on="1"/>
        <pt x="222" y="-129" on="1"/>
      </contour>
      <contour>
        <pt x="136" y="544" on="1"/>
        <pt x="136" y="523" on="0"/>
        <pt x="146" y="489" on="0"/>
        <pt x="171" y="458" on="0"/>
        <pt x="215" y="430" on="0"/>
        <pt x="249" y="415" on="1"/>
        <pt x="285" y="660" on="1"/>
        <pt x="280" y="661" on="0"/>
        <pt x="271" y="661" on="0"/>
        <pt x="266" y="661" on="1"/>
        <pt x="264" y="661" on="1"/>
        <pt x="204" y="661" on="0"/>
        <pt x="136" y="594" on="0"/>
      </contour>
      <contour>
        <pt x="404" y="188" on="1"/>
        <pt x="404" y="230" on="0"/>
        <pt x="356" y="297" on="0"/>
        <pt x="288" y="327" on="1"/>
        <pt x="248" y="57" on="1"/>
        <pt x="259" y="57" on="1"/>
        <pt x="328" y="57" on="0"/>
        <pt x="404" y="129" on="0"/>
      </contour>
    </TTGlyph>
    <TTGlyph name="dotaccent" xMin="191" yMin="610" xMax="280" yMax="710">
      <contour>
        <pt x="191" y="610" on="1"/>
        <pt x="191" y="710" on="1"/>
        <pt x="280" y="710" on="1"/>
        <pt x="280" y="610" on="1"/>
      </contour>
    </TTGlyph>
    <TTGlyph name="dotaccent.cap" xMin="179" yMin="573" xMax="263" yMax="667">
      <contour>
        <pt x="179" y="573" on="1"/>
        <pt x="179" y="667" on="1"/>
        <pt x="263" y="667" on="1"/>
        <pt x="263" y="573" on="1"/>
      </contour>
    </TTGlyph>
    <TTGlyph name="dotlessi" xMin="88" yMin="0" xMax="163" yMax="533">
      <contour>
        <pt x="88" y="0" on="1"/>
        <pt x="88" y="533" on="1"/>
        <pt x="163" y="533" on="1"/>
        <pt x="163" y="0" on="1"/>
      </contour>
    </TTGlyph>
    <TTGlyph name="e" xMin="50" yMin="-10" xMax="451" yMax="544">
      <contour>
        <pt x="449" y="55" on="1"/>
        <pt x="413" y="26" on="0"/>
        <pt x="323" y="-10" on="0"/>
        <pt x="268" y="-10" on="1"/>
        <pt x="219" y="-10" on="0"/>
        <pt x="138" y="27" on="0"/>
        <pt x="81" y="97" on="0"/>
        <pt x="50" y="201" on="0"/>
        <pt x="50" y="268" on="1"/>
        <pt x="50" y="329" on="0"/>
        <pt x="80" y="431" on="0"/>
        <pt x="135" y="504" on="0"/>
        <pt x="211" y="544" on="0"/>
        <pt x="257" y="544" on="1"/>
        <pt x="307" y="544" on="0"/>
        <pt x="380" y="502" on="0"/>
        <pt x="428" y="430" on="0"/>
        <pt x="451" y="333" on="0"/>
        <pt x="451" y="277" on="1"/>
        <pt x="451" y="255" on="1"/>
        <pt x="124" y="255" on="1"/>
        <pt x="126" y="161" on="0"/>
        <pt x="204" y="54" on="0"/>
        <pt x="275" y="55" on="1"/>
        <pt x="319" y="55" on="0"/>
        <pt x="399" y="91" on="0"/>
        <pt x="438" y="123" on="1"/>
      </contour>
      <contour>
        <pt x="257" y="483" on="1"/>
        <pt x="204" y="483" on="0"/>
        <pt x="135" y="393" on="0"/>
        <pt x="127" y="315" on="1"/>
        <pt x="375" y="315" on="1"/>
        <pt x="370" y="391" on="0"/>
        <pt x="311" y="483" on="0"/>
      </contour>
    </TTGlyph>
    <TTGlyph name="eacute" xMin="50" yMin="-10" xMax="451" yMax="766">
      <component glyphName="acute" x="82" y="2" flags="0x4"/>
      <component glyphName="e" x="0" y="0" flags="0x4"/>
    </TTGlyph>
    <TTGlyph name="ebreve" xMin="50" yMin="-10" xMax="451" yMax="741">
      <component glyphName="e" x="0" y="0" flags="0x204"/>
      <component glyphName="breve" x="25" y="2" flags="0x4"/>
    </TTGlyph>
    <TTGlyph name="ecaron" xMin="50" yMin="-10" xMax="451" yMax="761">
      <component glyphName="caron" x="24" y="2" flags="0x4"/>
      <component glyphName="e" x="0" y="0" flags="0x4"/>
    </TTGlyph>
    <TTGlyph name="ecircumflex" xMin="50" yMin="-10" xMax="451" yMax="762">
      <component glyphName="circumflex" x="25" y="2" flags="0x4"/>
      <component glyphName="e" x="0" y="0" flags="0x4"/>
    </TTGlyph>
    <TTGlyph name="edieresis" xMin="50" yMin="-10" xMax="451" yMax="712">
      <component glyphName="dieresis" x="24" y="2" flags="0x4"/>
      <component glyphName="e" x="0" y="0" flags="0x4"/>
    </TTGlyph>
    <TTGlyph name="edotaccent" xMin="50" yMin="-10" xMax="451" yMax="712">
      <component glyphName="e" x="0" y="0" flags="0x204"/>
      <component glyphName="dotaccent" x="25" y="2" flags="0x4"/>
    </TTGlyph>
    <TTGlyph name="egrave" xMin="50" yMin="-10" xMax="451" yMax="766">
      <component glyphName="e" x="0" y="0" flags="0x204"/>
      <component glyphName="grave" x="-35" y="2" flags="0x4"/>
    </TTGlyph>
    <TTGlyph name="eight" xMin="53" yMin="-13" xMax="493" yMax="730">
      <contour>
        <pt x="53" y="182" on="1"/>
        <pt x="53" y="245" on="0"/>
        <pt x="128" y="345" on="0"/>
        <pt x="191" y="381" on="1"/>
        <pt x="138" y="410" on="0"/>
        <pt x="75" y="494" on="0"/>
        <pt x="75" y="554" on="1"/>
        <pt x="75" y="593" on="0"/>
        <pt x="105" y="657" on="0"/>
        <pt x="159" y="704" on="0"/>
        <pt x="233" y="730" on="0"/>
        <pt x="276" y="730" on="1"/>
        <pt x="320" y="730" on="0"/>
        <pt x="392" y="704" on="0"/>
        <pt x="444" y="658" on="0"/>
        <pt x="473" y="594" on="0"/>
        <pt x="473" y="555" on="1"/>
        <pt x="473" y="494" on="0"/>
        <pt x="404" y="408" on="0"/>
        <pt x="355" y="376" on="1"/>
        <pt x="418" y="344" on="0"/>
        <pt x="493" y="254" on="0"/>
        <pt x="493" y="182" on="1"/>
        <pt x="493" y="140" on="0"/>
        <pt x="461" y="69" on="0"/>
        <pt x="402" y="17" on="0"/>
        <pt x="321" y="-13" on="0"/>
        <pt x="272" y="-13" on="1"/>
        <pt x="221" y="-13" on="0"/>
        <pt x="139" y="18" on="0"/>
        <pt x="83" y="71" on="0"/>
        <pt x="53" y="142" on="0"/>
      </contour>
      <contour>
        <pt x="127" y="186" on="1"/>
        <pt x="127" y="156" on="0"/>
        <pt x="149" y="105" on="0"/>
        <pt x="188" y="69" on="0"/>
        <pt x="242" y="49" on="0"/>
        <pt x="274" y="49" on="1"/>
        <pt x="305" y="49" on="0"/>
        <pt x="359" y="69" on="0"/>
        <pt x="397" y="105" on="0"/>
        <pt x="419" y="153" on="0"/>
        <pt x="419" y="182" on="1"/>
        <pt x="419" y="212" on="0"/>
        <pt x="401" y="258" on="0"/>
        <pt x="361" y="298" on="0"/>
        <pt x="297" y="333" on="0"/>
        <pt x="250" y="353" on="1"/>
        <pt x="193" y="324" on="0"/>
        <pt x="127" y="237" on="0"/>
      </contour>
      <contour>
        <pt x="147" y="556" on="1"/>
        <pt x="147" y="530" on="0"/>
        <pt x="163" y="488" on="0"/>
        <pt x="199" y="452" on="0"/>
        <pt x="255" y="419" on="0"/>
        <pt x="295" y="402" on="1"/>
        <pt x="343" y="431" on="0"/>
        <pt x="401" y="505" on="0"/>
        <pt x="401" y="552" on="1"/>
        <pt x="401" y="603" on="0"/>
        <pt x="331" y="669" on="0"/>
        <pt x="274" y="669" on="1"/>
        <pt x="245" y="669" on="0"/>
        <pt x="198" y="651" on="0"/>
        <pt x="165" y="620" on="0"/>
        <pt x="147" y="579" on="0"/>
      </contour>
    </TTGlyph>
    <TTGlyph name="eight.den" xMin="44" yMin="-11" xMax="308" yMax="377">
      <component glyphName="eight.num" x="0" y="-351" flags="0x204"/>
    </TTGlyph>
    <TTGlyph name="eight.inf" xMin="44" yMin="-168" xMax="308" yMax="220">
      <component glyphName="eight.num" x="0" y="-508" flags="0x204"/>
    </TTGlyph>
    <TTGlyph name="eight.num" xMin="44" yMin="340" xMax="308" yMax="728">
      <contour>
        <pt x="44" y="443" on="1"/>
        <pt x="44" y="505" on="0"/>
        <pt x="116" y="545" on="1"/>
        <pt x="84" y="562" on="0"/>
        <pt x="56" y="606" on="0"/>
        <pt x="56" y="632" on="1"/>
        <pt x="56" y="674" on="0"/>
        <pt x="123" y="728" on="0"/>
        <pt x="177" y="728" on="1"/>
        <pt x="230" y="728" on="0"/>
        <pt x="296" y="676" on="0"/>
        <pt x="296" y="635" on="1"/>
        <pt x="296" y="604" on="0"/>
        <pt x="261" y="560" on="0"/>
        <pt x="234" y="543" on="1"/>
        <pt x="273" y="525" on="0"/>
        <pt x="308" y="475" on="0"/>
        <pt x="308" y="444" on="1"/>
        <pt x="308" y="400" on="0"/>
        <pt x="235" y="340" on="0"/>
        <pt x="176" y="340" on="1"/>
        <pt x="112" y="340" on="0"/>
        <pt x="44" y="401" on="0"/>
      </contour>
      <contour>
        <pt x="250" y="445" on="1"/>
        <pt x="250" y="474" on="0"/>
        <pt x="206" y="509" on="0"/>
        <pt x="156" y="528" on="1"/>
        <pt x="127" y="511" on="0"/>
        <pt x="100" y="471" on="0"/>
        <pt x="100" y="448" on="1"/>
        <pt x="100" y="419" on="0"/>
        <pt x="142" y="384" on="0"/>
        <pt x="177" y="384" on="1"/>
        <pt x="209" y="384" on="0"/>
        <pt x="250" y="417" on="0"/>
      </contour>
      <contour>
        <pt x="112" y="632" on="1"/>
        <pt x="112" y="609" on="0"/>
        <pt x="146" y="577" on="0"/>
        <pt x="193" y="559" on="1"/>
        <pt x="215" y="574" on="0"/>
        <pt x="240" y="608" on="0"/>
        <pt x="240" y="630" on="1"/>
        <pt x="240" y="655" on="0"/>
        <pt x="205" y="686" on="0"/>
        <pt x="176" y="686" on="1"/>
        <pt x="145" y="686" on="0"/>
        <pt x="112" y="654" on="0"/>
      </contour>
    </TTGlyph>
    <TTGlyph name="eight.sup" xMin="44" yMin="438" xMax="308" yMax="826">
      <component glyphName="eight.num" x="0" y="98" flags="0x204"/>
    </TTGlyph>
    <TTGlyph name="eight.tab" xMin="50" yMin="-11" xMax="475" yMax="731">
      <contour>
        <pt x="475" y="183" on="1"/>
        <pt x="475" y="142" on="0"/>
        <pt x="445" y="71" on="0"/>
        <pt x="389" y="19" on="0"/>
        <pt x="312" y="-11" on="0"/>
        <pt x="264" y="-11" on="1"/>
        <pt x="213" y="-11" on="0"/>
        <pt x="133" y="20" on="0"/>
        <pt x="79" y="74" on="0"/>
        <pt x="50" y="145" on="0"/>
        <pt x="50" y="184" on="1"/>
        <pt x="50" y="249" on="0"/>
        <pt x="120" y="348" on="0"/>
        <pt x="179" y="385" on="1"/>
        <pt x="128" y="414" on="0"/>
        <pt x="72" y="496" on="0"/>
        <pt x="72" y="553" on="1"/>
        <pt x="72" y="592" on="0"/>
        <pt x="101" y="657" on="0"/>
        <pt x="152" y="705" on="0"/>
        <pt x="224" y="731" on="0"/>
        <pt x="266" y="731" on="1"/>
        <pt x="308" y="731" on="0"/>
        <pt x="377" y="705" on="0"/>
        <pt x="428" y="659" on="0"/>
        <pt x="456" y="594" on="0"/>
        <pt x="456" y="555" on="1"/>
        <pt x="456" y="523" on="0"/>
        <pt x="438" y="471" on="0"/>
        <pt x="408" y="426" on="0"/>
        <pt x="369" y="389" on="0"/>
        <pt x="347" y="374" on="1"/>
        <pt x="411" y="340" on="0"/>
        <pt x="475" y="249" on="0"/>
      </contour>
      <contour>
        <pt x="403" y="185" on="1"/>
        <pt x="403" y="214" on="0"/>
        <pt x="387" y="259" on="0"/>
        <pt x="348" y="298" on="0"/>
        <pt x="285" y="336" on="0"/>
        <pt x="237" y="357" on="1"/>
        <pt x="183" y="327" on="0"/>
        <pt x="123" y="241" on="0"/>
        <pt x="123" y="188" on="1"/>
        <pt x="123" y="158" on="0"/>
        <pt x="144" y="108" on="0"/>
        <pt x="182" y="72" on="0"/>
        <pt x="234" y="52" on="0"/>
        <pt x="265" y="52" on="1"/>
        <pt x="295" y="52" on="0"/>
        <pt x="346" y="72" on="0"/>
        <pt x="383" y="107" on="0"/>
        <pt x="403" y="156" on="0"/>
      </contour>
      <contour>
        <pt x="143" y="554" on="1"/>
        <pt x="143" y="529" on="0"/>
        <pt x="157" y="490" on="0"/>
        <pt x="192" y="454" on="0"/>
        <pt x="249" y="420" on="0"/>
        <pt x="291" y="401" on="1"/>
        <pt x="335" y="431" on="0"/>
        <pt x="384" y="507" on="0"/>
        <pt x="384" y="554" on="1"/>
        <pt x="384" y="604" on="0"/>
        <pt x="320" y="670" on="0"/>
        <pt x="265" y="670" on="1"/>
        <pt x="236" y="670" on="0"/>
        <pt x="191" y="651" on="0"/>
        <pt x="160" y="620" on="0"/>
        <pt x="143" y="578" on="0"/>
      </contour>
    </TTGlyph>
    <TTGlyph name="ellipsis" xMin="71" yMin="0" xMax="594" yMax="111">
      <contour>
        <pt x="508" y="0" on="1"/>
        <pt x="508" y="111" on="1"/>
        <pt x="594" y="111" on="1"/>
        <pt x="594" y="0" on="1"/>
      </contour>
      <contour>
        <pt x="289" y="0" on="1"/>
        <pt x="289" y="111" on="1"/>
        <pt x="375" y="111" on="1"/>
        <pt x="375" y="0" on="1"/>
      </contour>
      <contour>
        <pt x="71" y="0" on="1"/>
        <pt x="71" y="111" on="1"/>
        <pt x="158" y="111" on="1"/>
        <pt x="158" y="0" on="1"/>
      </contour>
    </TTGlyph>
    <TTGlyph name="emacron" xMin="50" yMin="-10" xMax="451" yMax="698">
      <component glyphName="e" x="0" y="0" flags="0x204"/>
      <component glyphName="macron" x="25" y="2" flags="0x4"/>
    </TTGlyph>
    <TTGlyph name="emdash" xMin="59" yMin="284" xMax="854" yMax="353">
      <contour>
        <pt x="59" y="284" on="1"/>
        <pt x="59" y="353" on="1"/>
        <pt x="854" y="353" on="1"/>
        <pt x="854" y="284" on="1"/>
      </contour>
    </TTGlyph>
    <TTGlyph name="endash" xMin="59" yMin="284" xMax="406" yMax="354">
      <contour>
        <pt x="59" y="284" on="1"/>
        <pt x="59" y="354" on="1"/>
        <pt x="406" y="354" on="1"/>
        <pt x="406" y="284" on="1"/>
      </contour>
    </TTGlyph>
    <TTGlyph name="eogonek" xMin="50" yMin="-192" xMax="451" yMax="544">
      <contour>
        <pt x="366" y="-192" on="1"/>
        <pt x="327" y="-192" on="0"/>
        <pt x="284" y="-154" on="0"/>
        <pt x="284" y="-119" on="1"/>
        <pt x="284" y="-93" on="0"/>
        <pt x="312" y="-40" on="0"/>
        <pt x="344" y="1" on="1"/>
        <pt x="306" y="-10" on="0"/>
        <pt x="269" y="-10" on="1"/>
        <pt x="219" y="-10" on="0"/>
        <pt x="139" y="27" on="0"/>
        <pt x="81" y="97" on="0"/>
        <pt x="50" y="201" on="0"/>
        <pt x="50" y="268" on="1"/>
        <pt x="50" y="329" on="0"/>
        <pt x="80" y="431" on="0"/>
        <pt x="135" y="504" on="0"/>
        <pt x="211" y="544" on="0"/>
        <pt x="257" y="544" on="1"/>
        <pt x="307" y="544" on="0"/>
        <pt x="380" y="502" on="0"/>
        <pt x="428" y="430" on="0"/>
        <pt x="451" y="333" on="0"/>
        <pt x="451" y="277" on="1"/>
        <pt x="451" y="255" on="1"/>
        <pt x="124" y="255" on="1"/>
        <pt x="126" y="161" on="0"/>
        <pt x="204" y="55" on="0"/>
        <pt x="275" y="55" on="1"/>
        <pt x="319" y="55" on="0"/>
        <pt x="399" y="91" on="0"/>
        <pt x="438" y="123" on="1"/>
        <pt x="448" y="63" on="1"/>
        <pt x="397" y="-4" on="1"/>
        <pt x="369" y="-40" on="0"/>
        <pt x="347" y="-84" on="0"/>
        <pt x="347" y="-104" on="1"/>
        <pt x="347" y="-138" on="0"/>
        <pt x="388" y="-138" on="1"/>
        <pt x="399" y="-138" on="0"/>
        <pt x="422" y="-134" on="0"/>
        <pt x="433" y="-132" on="1"/>
        <pt x="434" y="-178" on="1"/>
        <pt x="419" y="-184" on="0"/>
        <pt x="383" y="-192" on="0"/>
      </contour>
      <contour>
        <pt x="375" y="315" on="1"/>
        <pt x="370" y="391" on="0"/>
        <pt x="311" y="483" on="0"/>
        <pt x="257" y="483" on="1"/>
        <pt x="203" y="483" on="0"/>
        <pt x="135" y="391" on="0"/>
        <pt x="127" y="315" on="1"/>
      </contour>
    </TTGlyph>
    <TTGlyph name="equal" xMin="72" yMin="225" xMax="479" yMax="493">
      <contour>
        <pt x="72" y="429" on="1"/>
        <pt x="72" y="493" on="1"/>
        <pt x="479" y="493" on="1"/>
        <pt x="479" y="429" on="1"/>
      </contour>
      <contour>
        <pt x="72" y="225" on="1"/>
        <pt x="72" y="289" on="1"/>
        <pt x="479" y="289" on="1"/>
        <pt x="479" y="225" on="1"/>
      </contour>
    </TTGlyph>
    <TTGlyph name="equal.tab" xMin="61" yMin="225" xMax="468" yMax="493">
      <contour>
        <pt x="61" y="429" on="1"/>
        <pt x="61" y="493" on="1"/>
        <pt x="468" y="493" on="1"/>
        <pt x="468" y="429" on="1"/>
      </contour>
      <contour>
        <pt x="61" y="225" on="1"/>
        <pt x="61" y="289" on="1"/>
        <pt x="468" y="289" on="1"/>
        <pt x="468" y="225" on="1"/>
      </contour>
    </TTGlyph>
</ttFont>
